<svg width="50" height="50" viewBox="0 0 50 50" fill="none" xmlns="http://www.w3.org/2000/svg">
<path d="M48.7296 37.3946H46.3391V4.46824C46.3391 2.00457 44.3345 0 41.8704 0H7.47577C5.01166 0 3.00709 2.00457 3.00709 4.46824V37.3946H0.617002C0.276668 37.3946 0 37.6704 0 38.0116V43.7449C0 45.1045 1.10577 46.2112 2.46631 46.2112H4.96016V48.7295C4.96016 49.0707 5.23638 49.3465 5.57716 49.3465L12.1056 49.3461C12.4459 49.3461 12.7226 49.0703 12.7226 48.7291V46.2108H36.5739V48.7291C36.5739 49.0703 36.8501 49.3461 37.1909 49.3461H43.7185C44.0588 49.3461 44.3355 49.0703 44.3355 48.7291V46.2108H46.8809C48.241 46.2108 49.3472 45.1041 49.3472 43.7444V38.0112C49.3467 37.6704 49.0705 37.3946 48.7302 37.3946H48.7296ZM4.24107 4.46824C4.24107 2.68484 5.69237 1.23354 7.47621 1.23354H41.8708C43.6547 1.23354 45.106 2.68484 45.106 4.46824V37.3946H4.24129L4.24107 4.46824ZM13.5704 38.6283H35.7762V38.846C35.7762 39.6613 35.1123 40.3244 34.2978 40.3244L15.0495 40.3248C14.2342 40.3248 13.5711 39.6618 13.5711 38.8464L13.5704 38.6283ZM11.4889 48.1125H6.19453V46.2107H11.4889V48.1125ZM43.1012 48.1125H37.8068V46.2107H43.1012V48.1125ZM48.1129 43.7449C48.1129 44.4247 47.56 44.9773 46.8806 44.9773H2.46693C1.78711 44.9773 1.2346 44.4244 1.2346 43.7449V38.6283H12.3375V38.846C12.3375 40.3415 13.5542 41.5583 15.0498 41.5583H34.2981C35.7937 41.5583 37.0105 40.3415 37.0105 38.846V38.6283H48.1133L48.1129 43.7449Z" fill="black"/>
<path d="M13.4549 9.65049H35.8919C37.4013 9.65049 38.6293 8.4229 38.6293 6.91311C38.6293 5.40332 37.4014 4.17572 35.8919 4.17572L13.4549 4.17529C11.9456 4.17529 10.7175 5.40289 10.7175 6.91268C10.7175 8.42291 11.9455 9.65049 13.4549 9.65049ZM13.4549 5.40981H35.8919C36.721 5.40981 37.3957 6.08447 37.3957 6.91355C37.3957 7.74266 36.7214 8.41728 35.8919 8.41728H13.4549C12.6258 8.41728 11.9512 7.74263 11.9512 6.91355C11.9512 6.08443 12.6254 5.40981 13.4549 5.40981Z" fill="black"/>
<path d="M20.9526 13.5796H6.56956C6.53858 13.5796 6.51234 13.5925 6.48265 13.5968C6.43747 13.6028 6.39402 13.6067 6.35142 13.6235C6.30969 13.6394 6.27483 13.6652 6.23784 13.6893C6.21202 13.7061 6.18276 13.7138 6.15953 13.7349C6.1548 13.7392 6.15351 13.7448 6.1492 13.7491C6.11607 13.7805 6.09327 13.8201 6.06702 13.8584C6.04809 13.8872 6.02314 13.9126 6.0098 13.9436C5.9956 13.975 5.99302 14.0103 5.98398 14.0443C5.97236 14.0895 5.95817 14.1325 5.95688 14.1781C5.95688 14.1841 5.953 14.1893 5.953 14.1953V30.6006C5.953 32.1272 7.19514 33.369 8.72178 33.369H23.1037C23.1807 33.369 23.2578 33.3522 23.3309 33.3234C23.3619 33.3109 23.3864 33.2902 23.4144 33.2726C23.4475 33.2528 23.4836 33.2395 23.5138 33.2128C23.5185 33.2085 23.5198 33.2029 23.5241 33.1986C23.5572 33.1672 23.58 33.1276 23.6063 33.0893C23.6252 33.0605 23.6502 33.0351 23.6644 33.0037C23.6786 32.9723 23.6811 32.937 23.6902 32.9039C23.7018 32.8587 23.716 32.8157 23.7173 32.7701C23.7173 32.764 23.7211 32.7589 23.7211 32.7528L23.7207 16.3486C23.7207 14.8221 22.4786 13.5803 20.9519 13.5803L20.9526 13.5796ZM22.4878 16.3479V31.133L7.94508 14.8136H20.9524C21.7991 14.8136 22.488 15.502 22.488 16.3484L22.4878 16.3479ZM7.18727 30.5999V15.8148L21.73 32.1342H8.72272C7.8764 32.1347 7.18749 31.4458 7.18749 30.5995L7.18727 30.5999Z" fill="black"/>
<path d="M40.3738 13.5796H25.9919C25.9609 13.5796 25.9346 13.5925 25.905 13.5977C25.8606 13.6037 25.8168 13.6076 25.7737 13.6243C25.732 13.6403 25.6971 13.6661 25.6601 13.691C25.6343 13.7078 25.6051 13.7156 25.5818 13.7366C25.5771 13.7409 25.5758 13.7465 25.5715 13.7508C25.5384 13.7822 25.5156 13.8218 25.4893 13.8601C25.4704 13.889 25.4454 13.9143 25.4321 13.9453C25.4179 13.9767 25.4153 14.012 25.4063 14.046C25.3947 14.0912 25.3805 14.1342 25.3792 14.1798C25.3792 14.1858 25.3753 14.191 25.3753 14.197L25.3749 30.6002C25.3749 32.1267 26.617 33.3685 28.1437 33.3685H42.5256C42.6026 33.3685 42.6796 33.3517 42.7528 33.3229C42.7838 33.3104 42.8083 33.2898 42.8362 33.2721C42.8694 33.2523 42.9055 33.239 42.9356 33.2123C42.9404 33.208 42.9417 33.2024 42.946 33.1981C42.9791 33.1667 43.0019 33.1271 43.0281 33.0888C43.0471 33.06 43.072 33.0346 43.0862 33.0032C43.1004 32.9718 43.103 32.9365 43.112 32.9034C43.1237 32.8582 43.1379 32.8152 43.1391 32.7696C43.1391 32.7635 43.143 32.7584 43.143 32.7524L43.1426 16.3481C43.1426 14.8216 41.9005 13.5798 40.3738 13.5798L40.3738 13.5796ZM41.909 16.3479V31.133L27.3674 14.8136H40.3747C41.221 14.8136 41.9099 15.502 41.9099 16.3484L41.909 16.3479ZM26.6085 30.5999V15.8148L41.1512 32.1342H28.1439C27.2976 32.1347 26.6091 31.4458 26.6091 30.5995L26.6085 30.5999Z" fill="black"/>
</svg>
