<svg width="25" height="25" viewBox="0 0 25 25" fill="none" xmlns="http://www.w3.org/2000/svg">
<path d="M17.3646 13.2396C18.3859 12.4361 19.1313 11.3343 19.4972 10.0875C19.8631 8.84061 19.8312 7.51072 19.4061 6.28281C18.9809 5.05489 18.1837 3.99002 17.1251 3.23634C16.0666 2.48265 14.7995 2.07764 13.5001 2.07764C12.2006 2.07764 10.9335 2.48265 9.87498 3.23634C8.81646 3.99002 8.01917 5.05489 7.59403 6.28281C7.16889 7.51072 7.13705 8.84061 7.50293 10.0875C7.86882 11.3343 8.61423 12.4361 9.63547 13.2396C7.88555 13.9407 6.35869 15.1035 5.21765 16.6041C4.07662 18.1047 3.36419 19.8868 3.15631 21.7604C3.14126 21.8972 3.1533 22.0357 3.19175 22.1678C3.2302 22.2999 3.29429 22.4232 3.38038 22.5306C3.55424 22.7474 3.80712 22.8863 4.08339 22.9167C4.35966 22.9471 4.63668 22.8665 4.85352 22.6926C5.07036 22.5188 5.20925 22.2659 5.23964 21.9896C5.46838 19.9534 6.43931 18.0727 7.96695 16.7071C9.49459 15.3415 11.4718 14.5865 13.5209 14.5865C15.57 14.5865 17.5472 15.3415 19.0748 16.7071C20.6025 18.0727 21.5734 19.9534 21.8021 21.9896C21.8305 22.2456 21.9526 22.482 22.145 22.6532C22.3373 22.8244 22.5863 22.9183 22.8438 22.9167H22.9584C23.2314 22.8853 23.481 22.7472 23.6527 22.5326C23.8244 22.318 23.9043 22.0442 23.8751 21.7709C23.6662 19.8919 22.9499 18.1052 21.803 16.6023C20.6561 15.0994 19.1218 13.937 17.3646 13.2396ZM13.5001 12.5C12.676 12.5 11.8704 12.2557 11.1852 11.7978C10.5 11.34 9.96592 10.6892 9.65056 9.92788C9.33519 9.16652 9.25268 8.32874 9.41345 7.52049C9.57422 6.71223 9.97106 5.9698 10.5538 5.38708C11.1365 4.80436 11.8789 4.40753 12.6872 4.24676C13.4954 4.08598 14.3332 4.1685 15.0946 4.48386C15.8559 4.79923 16.5067 5.33328 16.9645 6.01849C17.4224 6.70369 17.6667 7.50927 17.6667 8.33336C17.6667 9.43843 17.2277 10.4982 16.4463 11.2796C15.6649 12.061 14.6051 12.5 13.5001 12.5Z" fill="black"/>
</svg>
