<svg width="13" height="8" viewBox="0 0 13 8" fill="none" xmlns="http://www.w3.org/2000/svg">
<path d="M6.53322 7.99902C6.67397 7.99055 6.80766 7.92885 6.91109 7.82468L12.8059 1.91671C12.9646 1.75736 13.0328 1.51822 12.985 1.28928C12.9372 1.06045 12.7805 0.876723 12.5741 0.807239C12.3675 0.737753 12.1427 0.793159 11.9841 0.952621L6.50004 6.45031L1.016 0.95262C0.898229 0.834252 0.741986 0.771521 0.581713 0.778276C0.421348 0.784915 0.270047 0.860583 0.16103 0.988451C0.0520111 1.11632 -0.00576533 1.28596 0.000456428 1.46009C0.00667818 1.63422 0.0763679 1.79848 0.194138 1.91673L6.08898 7.8247C6.20918 7.9457 6.36934 8.00865 6.53307 7.99904L6.53322 7.99902Z" fill="black"/>
</svg>
