<svg width="16" height="19" viewBox="0 0 16 19" fill="none" xmlns="http://www.w3.org/2000/svg">
<path fill-rule="evenodd" clip-rule="evenodd" d="M8.47186 0C2.85305 0 0 3.7026 0 6.80704C0 7.38447 0.0650756 7.94156 0.216946 8.44687C0.553267 9.61228 1.28004 10.5509 2.43002 10.9843C2.70101 11.0975 2.95046 10.9843 3.01553 10.7161C3.08085 10.52 3.19966 10.0454 3.26514 9.83928C3.35194 9.56066 3.31928 9.46812 3.10233 9.2308C2.82047 8.91087 2.58172 8.54988 2.45165 8.09612C2.36478 7.797 2.31048 7.46699 2.31048 7.0855C2.31048 4.33165 4.5558 1.85627 8.15742 1.85627C11.3356 1.85627 13.0931 3.64057 13.0931 6.03351C13.0931 6.7454 13.017 7.41567 12.876 8.05498C12.3772 10.2519 11.0755 11.8403 9.32887 11.8403C8.09227 11.8403 7.14846 10.9013 7.45237 9.73595C7.62604 9.08671 7.87524 8.40564 8.09235 7.74553C8.32015 7.05437 8.5153 6.38417 8.5153 5.86854C8.5153 4.96086 7.99469 4.22871 6.89935 4.22871C5.62975 4.22871 4.61034 5.44575 4.61034 7.0543C4.61034 7.35365 4.64243 7.64244 4.68603 7.8588C4.8054 8.43654 4.98994 8.7872 4.98994 8.7872C4.98994 8.7872 3.68834 13.8513 3.47115 14.7385C3.01562 16.5121 3.40607 18.6676 3.43881 18.8843C3.44967 19.0077 3.6338 19.0389 3.72092 18.946C3.84005 18.8021 5.34765 17.0998 5.8685 15.3777C5.99865 14.8825 6.70395 12.3662 6.70395 12.3662C7.10543 13.0987 8.30929 13.7378 9.60003 13.7378C12.6913 13.7378 14.9913 11.6029 15.7396 8.49849C15.9131 7.797 16 7.03372 16 6.25018C16 3.00119 13.017 0 8.47186 0Z" fill="#20191A"/>
</svg>
