<svg width="20" height="19" viewBox="0 0 20 19" fill="none" xmlns="http://www.w3.org/2000/svg">
<path d="M16.0363 11.4727C15.784 11.7154 15.6675 12.0735 15.7267 12.4142L16.5896 17.1897C16.6585 17.5974 16.4935 18.004 16.1528 18.238C15.8228 18.4806 15.386 18.5097 15.0172 18.3156L10.7183 16.0735C10.562 15.9958 10.397 15.9463 10.233 15.9463H9.96996C9.8729 15.956 9.78652 15.9958 9.7079 16.0337L5.40805 18.2865C5.19451 18.3933 4.95186 18.4321 4.71891 18.3933C4.13653 18.2768 3.75896 17.7323 3.85505 17.1596L4.71891 12.3841C4.77714 12.0357 4.66067 11.6863 4.40928 11.4339L0.90437 8.03674C0.613183 7.74555 0.506415 7.32721 0.643273 6.93994C0.769453 6.56042 1.09849 6.27894 1.50615 6.21197L6.33014 5.51215C6.69897 5.47333 7.01928 5.25106 7.18428 4.92105L9.30994 0.56296C9.35847 0.465898 9.42641 0.377571 9.50504 0.300892L9.59142 0.232949C9.63025 0.183447 9.68848 0.145593 9.74769 0.106768L9.85349 0.0679434L10.0185 0H10.4271C10.796 0.0388248 11.1163 0.261097 11.2813 0.581402L13.4351 4.92105C13.5904 5.24135 13.8913 5.45489 14.2407 5.51215L19.0647 6.21197C19.4723 6.27021 19.813 6.55169 19.9479 6.93994C20.0741 7.32721 19.9674 7.75526 19.6665 8.03674L16.0363 11.4727Z" fill="black"/>
</svg>
