<svg width="19" height="15" viewBox="0 0 19 15" fill="none" xmlns="http://www.w3.org/2000/svg">
<path d="M19 1.7971C18.2859 2.09753 17.5308 2.29614 16.758 2.38674C17.5733 1.9144 18.1842 1.17133 18.4775 0.295371C17.7114 0.737656 16.8727 1.04927 15.998 1.21668C15.4133 0.601772 14.6347 0.192458 13.7843 0.0529306C12.9339 -0.0865966 12.0598 0.0515551 11.2991 0.445719C10.5384 0.839882 9.93409 1.46776 9.58098 2.23089C9.22787 2.99401 9.14593 3.84921 9.348 4.66236C7.79896 4.58638 6.28372 4.19522 4.90072 3.51429C3.51772 2.83336 2.2979 1.87789 1.3205 0.709959C0.977681 1.29054 0.797543 1.94803 0.798 2.61706C0.796784 3.23838 0.954006 3.85034 1.25567 4.39847C1.55733 4.9466 1.99407 5.41388 2.527 5.75872C1.90758 5.74237 1.30139 5.58118 0.76 5.28885V5.33492C0.764643 6.20545 1.07919 7.04771 1.65045 7.71923C2.2217 8.39074 3.01459 8.85029 3.895 9.02015C3.55609 9.12017 3.20423 9.1729 2.85 9.17677C2.6048 9.17399 2.3602 9.15242 2.1185 9.11228C2.36921 9.86112 2.85439 10.5156 3.50652 10.9845C4.15865 11.4535 4.9453 11.7136 5.757 11.7288C4.38634 12.7747 2.69409 13.3455 0.95 13.3503C0.632448 13.3513 0.315149 13.3328 0 13.295C1.78071 14.41 3.85587 15.0019 5.9755 14.9994C7.43821 15.0142 8.88928 14.7461 10.244 14.2109C11.5986 13.6756 12.8298 12.884 13.8654 11.8822C14.9011 10.8804 15.7206 9.68845 16.2759 8.37606C16.8313 7.06368 17.1114 5.65712 17.1 4.23856C17.1 4.08194 17.1 3.91611 17.1 3.75027C17.8455 3.21113 18.4884 2.5502 19 1.7971Z" fill="black"/>
</svg>
