<svg width="17" height="12" viewBox="0 0 17 12" fill="none" xmlns="http://www.w3.org/2000/svg">
<path d="M16.9961 4.21001C17.0343 3.10466 16.7925 2.00759 16.2933 1.02066C15.9546 0.615693 15.4846 0.342406 14.9651 0.248417C12.8164 0.0534456 10.6587 -0.0264666 8.50145 0.0090223C6.35203 -0.0280774 4.20216 0.0492561 2.06097 0.240694C1.63764 0.317699 1.24588 0.516262 0.933496 0.812152C0.23848 1.45311 0.161256 2.54969 0.084032 3.47638C-0.0280107 5.14254 -0.0280107 6.81434 0.084032 8.48049C0.106373 9.00207 0.184032 9.5198 0.315704 10.025C0.408817 10.415 0.597203 10.7759 0.863994 11.0752C1.1785 11.3868 1.57939 11.5966 2.01463 11.6776C3.67952 11.8831 5.35705 11.9682 7.03419 11.9324C9.73703 11.971 12.1078 11.9324 14.911 11.7162C15.357 11.6402 15.7691 11.4301 16.0926 11.1138C16.3088 10.8975 16.4703 10.6328 16.5636 10.3416C16.8398 9.49415 16.9755 8.60723 16.9652 7.71598C16.9961 7.28352 16.9961 4.67335 16.9961 4.21001ZM6.75618 8.17932V3.39916L11.3278 5.80082C10.0459 6.51128 8.35472 7.31441 6.75618 8.17932Z" fill="black"/>
</svg>
