<svg width="17" height="22" viewBox="0 0 17 22" fill="none" xmlns="http://www.w3.org/2000/svg">
<path d="M0.361332 21.9999H16.6383C16.7407 21.9999 16.8384 21.9559 16.9067 21.879C16.975 21.802 17.0083 21.6989 16.9982 21.5959L15.6031 7.8699C15.5839 7.68297 15.4287 7.54104 15.2431 7.54104H13.3594V4.92637C13.3594 2.20974 11.1794 0 8.50003 0C5.82064 0 3.6407 2.20983 3.6407 4.92595V7.54062H1.75692C1.57138 7.54062 1.4162 7.68287 1.39698 7.86948L0.00181238 21.5955C-0.00836058 21.699 0.0245806 21.8019 0.0933685 21.8785C0.16216 21.9553 0.259367 22 0.361746 22L0.361332 21.9999ZM4.36371 4.92567C4.36371 2.61351 6.21927 0.73306 8.49962 0.73306C10.78 0.73306 12.6355 2.61372 12.6355 4.92567V7.54034L4.3633 7.54051L4.36371 4.92567ZM2.08299 8.27352H3.64046V11.4745H4.36388V8.27352H12.6361V11.4745H13.3595V8.27352H14.917L16.2377 21.2662H0.762273L2.08299 8.27352Z" fill="white"/>
</svg>
