<svg width="25" height="52" viewBox="0 0 25 52" fill="none" xmlns="http://www.w3.org/2000/svg">
<g clip-path="url(#clip0_215_3700)">
<path d="M3.29989 16.6784H5.26714V5.46031C5.26714 3.1702 6.72972 1.23027 8.74834 0.557807C8.92361 0.226222 9.26508 0 9.65792 0H15.3391C15.7349 0 16.0734 0.226222 16.2486 0.557807C18.2642 1.22718 19.7298 3.1702 19.7298 5.46031V16.6753H21.7001C23.5193 16.6784 25 18.1938 25 20.0594V45.452C25 47.3175 23.5193 48.836 21.7001 48.836H20.6213V50.2615C20.6213 51.2191 19.8628 52 18.926 52H18.4909C17.5571 52 16.7956 51.2222 16.7956 50.2615V48.836H8.19836V50.2615C8.19836 51.2191 7.43987 52 6.50308 52H6.06793C5.13417 52 4.37266 51.2222 4.37266 50.2615V48.836H3.29385C1.47468 48.836 -0.00604248 47.3175 -0.00604248 45.452V20.0594C1.90735e-06 18.1938 1.48072 16.6784 3.29989 16.6784ZM18.1041 50.2615C18.1041 50.4815 18.2793 50.6613 18.4939 50.6613H18.929C19.1436 50.6613 19.3189 50.4815 19.3189 50.2615V48.836H18.1041V50.2615ZM5.68113 50.2615C5.68113 50.4815 5.8564 50.6613 6.07095 50.6613H6.50611C6.72066 50.6613 6.89593 50.4815 6.89593 50.2615V48.836H5.68113V50.2615ZM18.4274 5.46031C18.4274 3.82408 17.4151 2.42956 16.0008 1.88725C15.8195 2.04219 15.5899 2.13826 15.3391 2.13826H9.65792C9.40409 2.13826 9.17443 2.04219 8.99613 1.88725C7.58189 2.42956 6.56956 3.82408 6.56956 5.46031V16.6753H18.4274V5.46031ZM1.30243 45.4551C1.30243 46.5831 2.19691 47.5035 3.29989 47.5035H21.7031C22.8031 47.5035 23.7006 46.5862 23.7006 45.4551V20.0594C23.7006 18.9313 22.8061 18.011 21.7031 18.011H19.0862H19.0832H5.92288H5.91986H3.30291C2.20295 18.011 1.30545 18.9282 1.30545 20.0594V45.4551H1.30243Z" fill="black"/>
<path d="M4.22157 19.3003C4.58118 19.3003 4.8743 19.6009 4.8743 19.9697V45.2259C4.8743 45.5947 4.58118 45.8953 4.22157 45.8953C3.86197 45.8953 3.56885 45.5947 3.56885 45.2259V19.9697C3.57187 19.5978 3.86197 19.3003 4.22157 19.3003Z" fill="black"/>
<path d="M9.73952 19.3003C10.0991 19.3003 10.3922 19.6009 10.3922 19.9697V45.2259C10.3922 45.5947 10.0991 45.8953 9.73952 45.8953C9.37991 45.8953 9.08679 45.5947 9.08679 45.2259V19.9697C9.08981 19.5978 9.37991 19.3003 9.73952 19.3003Z" fill="black"/>
<path d="M15.2575 19.3003C15.6171 19.3003 15.9102 19.6009 15.9102 19.9697V45.2259C15.9102 45.5947 15.6171 45.8953 15.2575 45.8953C14.8979 45.8953 14.6047 45.5947 14.6047 45.2259V19.9697C14.6078 19.5978 14.8979 19.3003 15.2575 19.3003Z" fill="black"/>
<path d="M20.7754 19.3003C21.135 19.3003 21.4281 19.6009 21.4281 19.9697V45.2259C21.4281 45.5947 21.135 45.8953 20.7754 45.8953C20.4158 45.8953 20.1227 45.5947 20.1227 45.2259V19.9697C20.1257 19.5978 20.4158 19.3003 20.7754 19.3003Z" fill="black"/>
</g>
<defs>
<clipPath id="clip0_215_3700">
<rect width="25" height="52" fill="white" transform="matrix(-1 0 0 1 25 0)"/>
</clipPath>
</defs>
</svg>
