<svg width="25" height="25" viewBox="0 0 25 25" fill="none" xmlns="http://www.w3.org/2000/svg">
<g clip-path="url(#clip0_15_37655)">
<path d="M21.875 6.25H18.75C18.3188 6.25 17.9688 6.6 17.9688 7.03125C17.9688 7.4625 18.3188 7.8125 18.75 7.8125H21.875C22.3055 7.8125 22.6562 8.16328 22.6562 8.59375V10.1562C22.6562 10.5867 22.3055 10.9375 21.875 10.9375H3.125C2.69453 10.9375 2.34375 10.5867 2.34375 10.1562V8.59375C2.34375 8.16328 2.69453 7.8125 3.125 7.8125H6.25C6.68125 7.8125 7.03125 7.4625 7.03125 7.03125C7.03125 6.6 6.68125 6.25 6.25 6.25H3.125C1.83281 6.25 0.78125 7.30156 0.78125 8.59375V10.1562C0.78125 11.2031 1.47578 12.0812 2.425 12.3812L3.70625 21.9914C3.87266 23.2406 4.98984 24.2188 6.25 24.2188H18.75C20.0102 24.2188 21.1273 23.2406 21.293 21.9922L22.5742 12.3812C23.5242 12.0812 24.2188 11.2031 24.2188 10.1562V8.59375C24.2188 7.30156 23.1672 6.25 21.875 6.25ZM19.7445 21.7859C19.6828 22.2492 19.218 22.6562 18.75 22.6562H6.25C5.78203 22.6562 5.31719 22.2492 5.25547 21.7852L4.01719 12.5H20.9828L19.7445 21.7859Z" fill="black"/>
<path d="M7.52192 10.1008C7.61723 10.1383 7.71567 10.1563 7.81254 10.1563C8.1227 10.1563 8.41567 9.97036 8.53832 9.66489L11.6633 1.85239C11.8235 1.45161 11.6289 0.996919 11.2282 0.836762C10.825 0.677387 10.3727 0.871137 10.2125 1.27192L7.08754 9.08442C6.9266 9.48598 7.12192 9.93989 7.52192 10.1008ZM16.4618 9.66567C16.5844 9.97036 16.8782 10.1563 17.1875 10.1563C17.2844 10.1563 17.3821 10.1383 17.4774 10.1C17.8782 9.93911 18.0727 9.4852 17.9125 9.08442L14.7875 1.27192C14.6274 0.871919 14.1735 0.67895 13.7719 0.836762C13.3711 0.9977 13.1766 1.45161 13.3368 1.85239L16.4618 9.66567ZM12.5 20.3125C12.9313 20.3125 13.2813 19.9625 13.2813 19.5313V15.625C13.2813 15.1938 12.9313 14.8438 12.5 14.8438C12.0688 14.8438 11.7188 15.1938 11.7188 15.625V19.5313C11.7188 19.9625 12.0688 20.3125 12.5 20.3125ZM16.4063 20.3125C16.8375 20.3125 17.1875 19.9625 17.1875 19.5313V15.625C17.1875 15.1938 16.8375 14.8438 16.4063 14.8438C15.975 14.8438 15.625 15.1938 15.625 15.625V19.5313C15.625 19.9625 15.975 20.3125 16.4063 20.3125ZM8.59379 20.3125C9.02504 20.3125 9.37504 19.9625 9.37504 19.5313V15.625C9.37504 15.1938 9.02504 14.8438 8.59379 14.8438C8.16254 14.8438 7.81254 15.1938 7.81254 15.625V19.5313C7.81254 19.9625 8.16254 20.3125 8.59379 20.3125Z" fill="black"/>
</g>
<defs>
<clipPath id="clip0_15_37655">
<rect width="25" height="25" fill="white"/>
</clipPath>
</defs>
</svg>
