<svg width="171" height="54" viewBox="0 0 171 54" fill="none" xmlns="http://www.w3.org/2000/svg">
<path d="M2.1 9V30H10.92C17.67 30 22.29 25.71 22.29 19.5C22.29 13.26 17.73 9 11.13 9H2.1ZM7.44 13.26H11.01C14.4 13.26 16.86 15.81 16.86 19.53C16.86 23.22 14.52 25.74 11.25 25.74H7.44V13.26ZM41.538 13.2V9H25.098V30H41.868V25.8H30.438V21.57H40.458V17.37H30.438V13.2H41.538ZM64.6929 30V9H59.7129V21.96L50.0229 9H45.3129V30H50.3229V17.07L59.9829 30H64.6929ZM92.5069 30L99.4369 9H93.9769L89.9269 24.45L85.8169 9H80.5969L76.5769 24.45L72.4669 9H66.7669L73.6369 30H79.1569L83.1169 15.48L87.0169 30H92.5069ZM111.23 8.82C104.75 8.82 99.8899 13.35 99.8899 19.47C99.8899 25.62 104.75 30.24 111.23 30.24C117.74 30.24 122.6 25.59 122.6 19.47C122.6 13.38 117.74 8.82 111.23 8.82ZM111.29 13.29C114.53 13.29 117.11 15.96 117.11 19.5C117.11 23.04 114.53 25.77 111.29 25.77C108.08 25.77 105.35 23.04 105.35 19.5C105.35 15.96 108.05 13.29 111.29 13.29ZM134.99 8.82C128.51 8.82 123.65 13.35 123.65 19.47C123.65 25.62 128.51 30.24 134.99 30.24C141.5 30.24 146.36 25.59 146.36 19.47C146.36 13.38 141.5 8.82 134.99 8.82ZM135.05 13.29C138.29 13.29 140.87 15.96 140.87 19.5C140.87 23.04 138.29 25.77 135.05 25.77C131.84 25.77 129.11 23.04 129.11 19.5C129.11 15.96 131.81 13.29 135.05 13.29ZM149.17 9V30H157.99C164.74 30 169.36 25.71 169.36 19.5C169.36 13.26 164.8 9 158.2 9H149.17ZM154.51 13.26H158.08C161.47 13.26 163.93 15.81 163.93 19.53C163.93 23.22 161.59 25.74 158.32 25.74H154.51V13.26Z" fill="black"/>
<path d="M15.054 49L10.608 35.7H12.565L16.65 47.974H15.662L19.899 35.7H21.647L25.789 47.974H24.839L28.981 35.7H30.786L26.34 49H24.345L20.469 37.619H20.982L17.087 49H15.054ZM44.6746 38.835C45.4979 38.835 46.2199 38.9933 46.8406 39.31C47.4739 39.6267 47.9679 40.108 48.3226 40.754C48.6772 41.4 48.8546 42.217 48.8546 43.205V49H47.0306V43.414C47.0306 42.4387 46.7899 41.704 46.3086 41.21C45.8399 40.716 45.1749 40.469 44.3136 40.469C43.6676 40.469 43.1039 40.5957 42.6226 40.849C42.1412 41.1023 41.7676 41.476 41.5016 41.97C41.2482 42.464 41.1216 43.0783 41.1216 43.813V49H39.2976V34.902H41.1216V41.647L40.7606 40.925C41.0899 40.2663 41.5966 39.7533 42.2806 39.386C42.9646 39.0187 43.7626 38.835 44.6746 38.835ZM62.7182 49.114C61.7048 49.114 60.8055 48.8923 60.0202 48.449C59.2348 48.0057 58.6142 47.3977 58.1582 46.625C57.7022 45.8397 57.4742 44.953 57.4742 43.965C57.4742 42.9643 57.7022 42.0777 58.1582 41.305C58.6142 40.5323 59.2348 39.9307 60.0202 39.5C60.8055 39.0567 61.7048 38.835 62.7182 38.835C63.7188 38.835 64.6118 39.0567 65.3972 39.5C66.1952 39.9307 66.8158 40.5323 67.2592 41.305C67.7152 42.065 67.9432 42.9517 67.9432 43.965C67.9432 44.9657 67.7152 45.8523 67.2592 46.625C66.8158 47.3977 66.1952 48.0057 65.3972 48.449C64.6118 48.8923 63.7188 49.114 62.7182 49.114ZM62.7182 47.518C63.3642 47.518 63.9405 47.3723 64.4472 47.081C64.9665 46.7897 65.3718 46.378 65.6632 45.846C65.9545 45.3013 66.1002 44.6743 66.1002 43.965C66.1002 43.243 65.9545 42.6223 65.6632 42.103C65.3718 41.571 64.9665 41.1593 64.4472 40.868C63.9405 40.5767 63.3642 40.431 62.7182 40.431C62.0722 40.431 61.4958 40.5767 60.9892 40.868C60.4825 41.1593 60.0772 41.571 59.7732 42.103C59.4692 42.6223 59.3172 43.243 59.3172 43.965C59.3172 44.6743 59.4692 45.3013 59.7732 45.846C60.0772 46.378 60.4825 46.7897 60.9892 47.081C61.4958 47.3723 62.0722 47.518 62.7182 47.518ZM76.6407 49V34.902H78.4647V49H76.6407ZM92.6064 49.114C91.5297 49.114 90.5797 48.8923 89.7564 48.449C88.9457 48.0057 88.3124 47.3977 87.8564 46.625C87.413 45.8523 87.1914 44.9657 87.1914 43.965C87.1914 42.9643 87.4067 42.0777 87.8374 41.305C88.2807 40.5323 88.8824 39.9307 89.6424 39.5C90.415 39.0567 91.2827 38.835 92.2454 38.835C93.2207 38.835 94.082 39.0503 94.8294 39.481C95.5767 39.9117 96.1594 40.5197 96.5774 41.305C97.008 42.0777 97.2234 42.9833 97.2234 44.022C97.2234 44.098 97.217 44.1867 97.2044 44.288C97.2044 44.3893 97.198 44.4843 97.1854 44.573H88.6164V43.262H96.2354L95.4944 43.718C95.507 43.072 95.374 42.4957 95.0954 41.989C94.8167 41.4823 94.4304 41.0897 93.9364 40.811C93.455 40.5197 92.8914 40.374 92.2454 40.374C91.612 40.374 91.0484 40.5197 90.5544 40.811C90.0604 41.0897 89.674 41.4887 89.3954 42.008C89.1167 42.5147 88.9774 43.0973 88.9774 43.756V44.06C88.9774 44.7313 89.1294 45.333 89.4334 45.865C89.75 46.3843 90.187 46.7897 90.7444 47.081C91.3017 47.3723 91.9414 47.518 92.6634 47.518C93.2587 47.518 93.797 47.4167 94.2784 47.214C94.7724 47.0113 95.203 46.7073 95.5704 46.302L96.5774 47.48C96.1214 48.012 95.5514 48.4173 94.8674 48.696C94.196 48.9747 93.4424 49.114 92.6064 49.114ZM108.819 49.114C107.983 49.114 107.185 49 106.425 48.772C105.678 48.544 105.089 48.2653 104.658 47.936L105.418 46.492C105.849 46.7833 106.381 47.0303 107.014 47.233C107.647 47.4357 108.293 47.537 108.952 47.537C109.801 47.537 110.409 47.4167 110.776 47.176C111.156 46.9353 111.346 46.5997 111.346 46.169C111.346 45.8523 111.232 45.6053 111.004 45.428C110.776 45.2507 110.472 45.1177 110.092 45.029C109.725 44.9403 109.313 44.8643 108.857 44.801C108.401 44.725 107.945 44.6363 107.489 44.535C107.033 44.421 106.615 44.269 106.235 44.079C105.855 43.8763 105.551 43.604 105.323 43.262C105.095 42.9073 104.981 42.4387 104.981 41.856C104.981 41.248 105.152 40.716 105.494 40.26C105.836 39.804 106.317 39.4557 106.938 39.215C107.571 38.9617 108.319 38.835 109.18 38.835C109.839 38.835 110.504 38.9173 111.175 39.082C111.859 39.234 112.416 39.4557 112.847 39.747L112.068 41.191C111.612 40.887 111.137 40.678 110.643 40.564C110.149 40.45 109.655 40.393 109.161 40.393C108.363 40.393 107.768 40.526 107.375 40.792C106.982 41.0453 106.786 41.3747 106.786 41.78C106.786 42.122 106.9 42.388 107.128 42.578C107.369 42.7553 107.673 42.8947 108.04 42.996C108.42 43.0973 108.838 43.186 109.294 43.262C109.75 43.3253 110.206 43.414 110.662 43.528C111.118 43.6293 111.53 43.775 111.897 43.965C112.277 44.155 112.581 44.421 112.809 44.763C113.05 45.105 113.17 45.561 113.17 46.131C113.17 46.739 112.993 47.2647 112.638 47.708C112.283 48.1513 111.783 48.4997 111.137 48.753C110.491 48.9937 109.718 49.114 108.819 49.114ZM127.876 49V46.872L127.781 46.473V42.844C127.781 42.0713 127.553 41.476 127.097 41.058C126.653 40.6273 125.982 40.412 125.083 40.412C124.487 40.412 123.905 40.5133 123.335 40.716C122.765 40.906 122.283 41.1657 121.891 41.495L121.131 40.127C121.65 39.709 122.271 39.3923 122.993 39.177C123.727 38.949 124.494 38.835 125.292 38.835C126.672 38.835 127.736 39.1707 128.484 39.842C129.231 40.5133 129.605 41.5393 129.605 42.92V49H127.876ZM124.57 49.114C123.822 49.114 123.164 48.9873 122.594 48.734C122.036 48.4807 121.606 48.1323 121.302 47.689C120.998 47.233 120.846 46.72 120.846 46.15C120.846 45.6053 120.972 45.1113 121.226 44.668C121.492 44.2247 121.916 43.87 122.499 43.604C123.094 43.338 123.892 43.205 124.893 43.205H128.085V44.516H124.969C124.057 44.516 123.442 44.668 123.126 44.972C122.809 45.276 122.651 45.6433 122.651 46.074C122.651 46.568 122.847 46.967 123.24 47.271C123.632 47.5623 124.177 47.708 124.874 47.708C125.558 47.708 126.153 47.556 126.66 47.252C127.179 46.948 127.553 46.5047 127.781 45.922L128.142 47.176C127.901 47.7713 127.477 48.2463 126.869 48.601C126.261 48.943 125.494 49.114 124.57 49.114ZM139.155 49V34.902H140.979V49H139.155ZM155.121 49.114C154.044 49.114 153.094 48.8923 152.271 48.449C151.46 48.0057 150.827 47.3977 150.371 46.625C149.927 45.8523 149.706 44.9657 149.706 43.965C149.706 42.9643 149.921 42.0777 150.352 41.305C150.795 40.5323 151.397 39.9307 152.157 39.5C152.929 39.0567 153.797 38.835 154.76 38.835C155.735 38.835 156.596 39.0503 157.344 39.481C158.091 39.9117 158.674 40.5197 159.092 41.305C159.522 42.0777 159.738 42.9833 159.738 44.022C159.738 44.098 159.731 44.1867 159.719 44.288C159.719 44.3893 159.712 44.4843 159.7 44.573H151.131V43.262H158.75L158.009 43.718C158.021 43.072 157.888 42.4957 157.61 41.989C157.331 41.4823 156.945 41.0897 156.451 40.811C155.969 40.5197 155.406 40.374 154.76 40.374C154.126 40.374 153.563 40.5197 153.069 40.811C152.575 41.0897 152.188 41.4887 151.91 42.008C151.631 42.5147 151.492 43.0973 151.492 43.756V44.06C151.492 44.7313 151.644 45.333 151.948 45.865C152.264 46.3843 152.701 46.7897 153.259 47.081C153.816 47.3723 154.456 47.518 155.178 47.518C155.773 47.518 156.311 47.4167 156.793 47.214C157.287 47.0113 157.717 46.7073 158.085 46.302L159.092 47.48C158.636 48.012 158.066 48.4173 157.382 48.696C156.71 48.9747 155.957 49.114 155.121 49.114Z" fill="#274670"/>
</svg>
