<svg width="171" height="54" viewBox="0 0 171 54" fill="none" xmlns="http://www.w3.org/2000/svg">
<path d="M2.1 9V30H10.92C17.67 30 22.29 25.71 22.29 19.5C22.29 13.26 17.73 9 11.13 9H2.1ZM7.44 13.26H11.01C14.4 13.26 16.86 15.81 16.86 19.53C16.86 23.22 14.52 25.74 11.25 25.74H7.44V13.26ZM41.538 13.2V9H25.098V30H41.868V25.8H30.438V21.57H40.458V17.37H30.438V13.2H41.538ZM64.6929 30V9H59.7129V21.96L50.0229 9H45.3129V30H50.3229V17.07L59.9829 30H64.6929ZM92.5069 30L99.4369 9H93.9769L89.9269 24.45L85.8169 9H80.5969L76.5769 24.45L72.4669 9H66.7669L73.6369 30H79.1569L83.1169 15.48L87.0169 30H92.5069ZM111.23 8.82C104.75 8.82 99.8899 13.35 99.8899 19.47C99.8899 25.62 104.75 30.24 111.23 30.24C117.74 30.24 122.6 25.59 122.6 19.47C122.6 13.38 117.74 8.82 111.23 8.82ZM111.29 13.29C114.53 13.29 117.11 15.96 117.11 19.5C117.11 23.04 114.53 25.77 111.29 25.77C108.08 25.77 105.35 23.04 105.35 19.5C105.35 15.96 108.05 13.29 111.29 13.29ZM134.99 8.82C128.51 8.82 123.65 13.35 123.65 19.47C123.65 25.62 128.51 30.24 134.99 30.24C141.5 30.24 146.36 25.59 146.36 19.47C146.36 13.38 141.5 8.82 134.99 8.82ZM135.05 13.29C138.29 13.29 140.87 15.96 140.87 19.5C140.87 23.04 138.29 25.77 135.05 25.77C131.84 25.77 129.11 23.04 129.11 19.5C129.11 15.96 131.81 13.29 135.05 13.29ZM149.17 9V30H157.99C164.74 30 169.36 25.71 169.36 19.5C169.36 13.26 164.8 9 158.2 9H149.17ZM154.51 13.26H158.08C161.47 13.26 163.93 15.81 163.93 19.53C163.93 23.22 161.59 25.74 158.32 25.74H154.51V13.26Z" fill="black"/>
<path d="M3.724 41.438H10.564V43.053H3.724V41.438ZM3.895 47.347H11.647V49H1.995V35.7H11.381V37.353H3.895V47.347ZM20.6325 49V34.902H22.4565V49H20.6325ZM36.5982 49.114C35.5215 49.114 34.5715 48.8923 33.7482 48.449C32.9375 48.0057 32.3042 47.3977 31.8482 46.625C31.4048 45.8523 31.1832 44.9657 31.1832 43.965C31.1832 42.9643 31.3985 42.0777 31.8292 41.305C32.2725 40.5323 32.8742 39.9307 33.6342 39.5C34.4068 39.0567 35.2745 38.835 36.2372 38.835C37.2125 38.835 38.0738 39.0503 38.8212 39.481C39.5685 39.9117 40.1512 40.5197 40.5692 41.305C40.9998 42.0777 41.2152 42.9833 41.2152 44.022C41.2152 44.098 41.2088 44.1867 41.1962 44.288C41.1962 44.3893 41.1898 44.4843 41.1772 44.573H32.6082V43.262H40.2272L39.4862 43.718C39.4988 43.072 39.3658 42.4957 39.0872 41.989C38.8085 41.4823 38.4222 41.0897 37.9282 40.811C37.4468 40.5197 36.8832 40.374 36.2372 40.374C35.6038 40.374 35.0402 40.5197 34.5462 40.811C34.0522 41.0897 33.6658 41.4887 33.3872 42.008C33.1085 42.5147 32.9692 43.0973 32.9692 43.756V44.06C32.9692 44.7313 33.1212 45.333 33.4252 45.865C33.7418 46.3843 34.1788 46.7897 34.7362 47.081C35.2935 47.3723 35.9332 47.518 36.6552 47.518C37.2505 47.518 37.7888 47.4167 38.2702 47.214C38.7642 47.0113 39.1948 46.7073 39.5622 46.302L40.5692 47.48C40.1132 48.012 39.5432 48.4173 38.8592 48.696C38.1878 48.9747 37.4342 49.114 36.5982 49.114ZM54.3119 49.114C53.2859 49.114 52.3676 48.8923 51.5569 48.449C50.7589 48.0057 50.1319 47.3977 49.6759 46.625C49.2199 45.8523 48.9919 44.9657 48.9919 43.965C48.9919 42.9643 49.2199 42.0777 49.6759 41.305C50.1319 40.5323 50.7589 39.9307 51.5569 39.5C52.3676 39.0567 53.2859 38.835 54.3119 38.835C55.2239 38.835 56.0346 39.0187 56.7439 39.386C57.4659 39.7407 58.0233 40.2727 58.4159 40.982L57.0289 41.875C56.6996 41.381 56.2943 41.02 55.8129 40.792C55.3443 40.5513 54.8376 40.431 54.2929 40.431C53.6343 40.431 53.0453 40.5767 52.5259 40.868C52.0066 41.1593 51.5949 41.571 51.2909 42.103C50.9869 42.6223 50.8349 43.243 50.8349 43.965C50.8349 44.687 50.9869 45.314 51.2909 45.846C51.5949 46.378 52.0066 46.7897 52.5259 47.081C53.0453 47.3723 53.6343 47.518 54.2929 47.518C54.8376 47.518 55.3443 47.404 55.8129 47.176C56.2943 46.9353 56.6996 46.568 57.0289 46.074L58.4159 46.948C58.0233 47.6447 57.4659 48.183 56.7439 48.563C56.0346 48.9303 55.2239 49.114 54.3119 49.114ZM70.5403 49.114C69.527 49.114 68.7417 48.8417 68.1843 48.297C67.627 47.7523 67.3483 46.9733 67.3483 45.96V36.726H69.1723V45.884C69.1723 46.4287 69.3053 46.8467 69.5713 47.138C69.85 47.4293 70.2427 47.575 70.7493 47.575C71.3193 47.575 71.7943 47.4167 72.1743 47.1L72.7443 48.411C72.4657 48.6517 72.13 48.829 71.7373 48.943C71.3573 49.057 70.9583 49.114 70.5403 49.114ZM65.6383 40.431V38.93H72.0603V40.431H65.6383ZM81.1245 49V38.93H82.8725V41.666L82.7015 40.982C82.9802 40.2853 83.4488 39.7533 84.1075 39.386C84.7662 39.0187 85.5768 38.835 86.5395 38.835V40.602C86.4635 40.5893 86.3875 40.583 86.3115 40.583C86.2482 40.583 86.1848 40.583 86.1215 40.583C85.1462 40.583 84.3735 40.8743 83.8035 41.457C83.2335 42.0397 82.9485 42.882 82.9485 43.984V49H81.1245ZM99.1828 49.114C98.1695 49.114 97.2702 48.8923 96.4848 48.449C95.6995 48.0057 95.0788 47.3977 94.6228 46.625C94.1668 45.8397 93.9388 44.953 93.9388 43.965C93.9388 42.9643 94.1668 42.0777 94.6228 41.305C95.0788 40.5323 95.6995 39.9307 96.4848 39.5C97.2702 39.0567 98.1695 38.835 99.1828 38.835C100.183 38.835 101.076 39.0567 101.862 39.5C102.66 39.9307 103.28 40.5323 103.724 41.305C104.18 42.065 104.408 42.9517 104.408 43.965C104.408 44.9657 104.18 45.8523 103.724 46.625C103.28 47.3977 102.66 48.0057 101.862 48.449C101.076 48.8923 100.183 49.114 99.1828 49.114ZM99.1828 47.518C99.8288 47.518 100.405 47.3723 100.912 47.081C101.431 46.7897 101.836 46.378 102.128 45.846C102.419 45.3013 102.565 44.6743 102.565 43.965C102.565 43.243 102.419 42.6223 102.128 42.103C101.836 41.571 101.431 41.1593 100.912 40.868C100.405 40.5767 99.8288 40.431 99.1828 40.431C98.5368 40.431 97.9605 40.5767 97.4538 40.868C96.9472 41.1593 96.5418 41.571 96.2378 42.103C95.9338 42.6223 95.7818 43.243 95.7818 43.965C95.7818 44.6743 95.9338 45.3013 96.2378 45.846C96.5418 46.378 96.9472 46.7897 97.4538 47.081C97.9605 47.3723 98.5368 47.518 99.1828 47.518ZM118.482 38.835C119.306 38.835 120.028 38.9933 120.648 39.31C121.282 39.6267 121.776 40.108 122.13 40.754C122.485 41.4 122.662 42.217 122.662 43.205V49H120.838V43.414C120.838 42.4387 120.598 41.704 120.116 41.21C119.648 40.716 118.983 40.469 118.121 40.469C117.475 40.469 116.912 40.5957 116.43 40.849C115.949 41.1023 115.575 41.476 115.309 41.97C115.056 42.464 114.929 43.0783 114.929 43.813V49H113.105V38.93H114.853V41.647L114.568 40.925C114.898 40.2663 115.404 39.7533 116.088 39.386C116.772 39.0187 117.57 38.835 118.482 38.835ZM132.213 49V38.93H134.037V49H132.213ZM133.125 36.992C132.77 36.992 132.473 36.878 132.232 36.65C132.004 36.422 131.89 36.1433 131.89 35.814C131.89 35.472 132.004 35.187 132.232 34.959C132.473 34.731 132.77 34.617 133.125 34.617C133.48 34.617 133.771 34.731 133.999 34.959C134.24 35.1743 134.36 35.4467 134.36 35.776C134.36 36.118 134.246 36.4093 134.018 36.65C133.79 36.878 133.492 36.992 133.125 36.992ZM148.084 49.114C147.058 49.114 146.139 48.8923 145.329 48.449C144.531 48.0057 143.904 47.3977 143.448 46.625C142.992 45.8523 142.764 44.9657 142.764 43.965C142.764 42.9643 142.992 42.0777 143.448 41.305C143.904 40.5323 144.531 39.9307 145.329 39.5C146.139 39.0567 147.058 38.835 148.084 38.835C148.996 38.835 149.806 39.0187 150.516 39.386C151.238 39.7407 151.795 40.2727 152.188 40.982L150.801 41.875C150.471 41.381 150.066 41.02 149.585 40.792C149.116 40.5513 148.609 40.431 148.065 40.431C147.406 40.431 146.817 40.5767 146.298 40.868C145.778 41.1593 145.367 41.571 145.063 42.103C144.759 42.6223 144.607 43.243 144.607 43.965C144.607 44.687 144.759 45.314 145.063 45.846C145.367 46.378 145.778 46.7897 146.298 47.081C146.817 47.3723 147.406 47.518 148.065 47.518C148.609 47.518 149.116 47.404 149.585 47.176C150.066 46.9353 150.471 46.568 150.801 46.074L152.188 46.948C151.795 47.6447 151.238 48.183 150.516 48.563C149.806 48.9303 148.996 49.114 148.084 49.114ZM163.612 49.114C162.776 49.114 161.978 49 161.218 48.772C160.471 48.544 159.882 48.2653 159.451 47.936L160.211 46.492C160.642 46.7833 161.174 47.0303 161.807 47.233C162.44 47.4357 163.086 47.537 163.745 47.537C164.594 47.537 165.202 47.4167 165.569 47.176C165.949 46.9353 166.139 46.5997 166.139 46.169C166.139 45.8523 166.025 45.6053 165.797 45.428C165.569 45.2507 165.265 45.1177 164.885 45.029C164.518 44.9403 164.106 44.8643 163.65 44.801C163.194 44.725 162.738 44.6363 162.282 44.535C161.826 44.421 161.408 44.269 161.028 44.079C160.648 43.8763 160.344 43.604 160.116 43.262C159.888 42.9073 159.774 42.4387 159.774 41.856C159.774 41.248 159.945 40.716 160.287 40.26C160.629 39.804 161.11 39.4557 161.731 39.215C162.364 38.9617 163.112 38.835 163.973 38.835C164.632 38.835 165.297 38.9173 165.968 39.082C166.652 39.234 167.209 39.4557 167.64 39.747L166.861 41.191C166.405 40.887 165.93 40.678 165.436 40.564C164.942 40.45 164.448 40.393 163.954 40.393C163.156 40.393 162.561 40.526 162.168 40.792C161.775 41.0453 161.579 41.3747 161.579 41.78C161.579 42.122 161.693 42.388 161.921 42.578C162.162 42.7553 162.466 42.8947 162.833 42.996C163.213 43.0973 163.631 43.186 164.087 43.262C164.543 43.3253 164.999 43.414 165.455 43.528C165.911 43.6293 166.323 43.775 166.69 43.965C167.07 44.155 167.374 44.421 167.602 44.763C167.843 45.105 167.963 45.561 167.963 46.131C167.963 46.739 167.786 47.2647 167.431 47.708C167.076 48.1513 166.576 48.4997 165.93 48.753C165.284 48.9937 164.511 49.114 163.612 49.114Z" fill="#006FAC"/>
</svg>
