<svg width="171" height="54" viewBox="0 0 171 54" fill="none" xmlns="http://www.w3.org/2000/svg">
<path d="M2.1 9V30H10.92C17.67 30 22.29 25.71 22.29 19.5C22.29 13.26 17.73 9 11.13 9H2.1ZM7.44 13.26H11.01C14.4 13.26 16.86 15.81 16.86 19.53C16.86 23.22 14.52 25.74 11.25 25.74H7.44V13.26ZM41.538 13.2V9H25.098V30H41.868V25.8H30.438V21.57H40.458V17.37H30.438V13.2H41.538ZM64.6929 30V9H59.7129V21.96L50.0229 9H45.3129V30H50.3229V17.07L59.9829 30H64.6929ZM92.5069 30L99.4369 9H93.9769L89.9269 24.45L85.8169 9H80.5969L76.5769 24.45L72.4669 9H66.7669L73.6369 30H79.1569L83.1169 15.48L87.0169 30H92.5069ZM111.23 8.82C104.75 8.82 99.8899 13.35 99.8899 19.47C99.8899 25.62 104.75 30.24 111.23 30.24C117.74 30.24 122.6 25.59 122.6 19.47C122.6 13.38 117.74 8.82 111.23 8.82ZM111.29 13.29C114.53 13.29 117.11 15.96 117.11 19.5C117.11 23.04 114.53 25.77 111.29 25.77C108.08 25.77 105.35 23.04 105.35 19.5C105.35 15.96 108.05 13.29 111.29 13.29ZM134.99 8.82C128.51 8.82 123.65 13.35 123.65 19.47C123.65 25.62 128.51 30.24 134.99 30.24C141.5 30.24 146.36 25.59 146.36 19.47C146.36 13.38 141.5 8.82 134.99 8.82ZM135.05 13.29C138.29 13.29 140.87 15.96 140.87 19.5C140.87 23.04 138.29 25.77 135.05 25.77C131.84 25.77 129.11 23.04 129.11 19.5C129.11 15.96 131.81 13.29 135.05 13.29ZM149.17 9V30H157.99C164.74 30 169.36 25.71 169.36 19.5C169.36 13.26 164.8 9 158.2 9H149.17ZM154.51 13.26H158.08C161.47 13.26 163.93 15.81 163.93 19.53C163.93 23.22 161.59 25.74 158.32 25.74H154.51V13.26Z" fill="black"/>
<path d="M50.999 49.152C49.973 49.152 49.0293 48.9873 48.168 48.658C47.3067 48.316 46.5593 47.841 45.926 47.233C45.2927 46.6123 44.7987 45.8903 44.444 45.067C44.0893 44.2437 43.912 43.338 43.912 42.35C43.912 41.362 44.0893 40.4563 44.444 39.633C44.7987 38.8097 45.2927 38.094 45.926 37.486C46.572 36.8653 47.3257 36.3903 48.187 36.061C49.0483 35.719 49.9983 35.548 51.037 35.548C52.0883 35.548 53.051 35.719 53.925 36.061C54.799 36.403 55.54 36.916 56.148 37.6L54.97 38.778C54.4253 38.246 53.83 37.8597 53.184 37.619C52.5507 37.3657 51.8603 37.239 51.113 37.239C50.353 37.239 49.6437 37.3657 48.985 37.619C48.339 37.8723 47.7753 38.227 47.294 38.683C46.8253 39.139 46.458 39.6837 46.192 40.317C45.9387 40.9377 45.812 41.6153 45.812 42.35C45.812 43.072 45.9387 43.7497 46.192 44.383C46.458 45.0037 46.8253 45.5483 47.294 46.017C47.7753 46.473 48.339 46.8277 48.985 47.081C49.631 47.3343 50.334 47.461 51.094 47.461C51.8033 47.461 52.481 47.3533 53.127 47.138C53.7857 46.91 54.3937 46.5363 54.951 46.017L56.034 47.461C55.3753 48.0183 54.6027 48.4427 53.716 48.734C52.842 49.0127 51.9363 49.152 50.999 49.152ZM54.21 47.214V42.274H56.034V47.461L54.21 47.214ZM65.5808 49V38.93H67.3288V41.666L67.1578 40.982C67.4364 40.2853 67.9051 39.7533 68.5638 39.386C69.2224 39.0187 70.0331 38.835 70.9958 38.835V40.602C70.9198 40.5893 70.8438 40.583 70.7678 40.583C70.7044 40.583 70.6411 40.583 70.5778 40.583C69.6024 40.583 68.8298 40.8743 68.2598 41.457C67.6898 42.0397 67.4048 42.882 67.4048 43.984V49H65.5808ZM83.8101 49.114C82.7334 49.114 81.7834 48.8923 80.9601 48.449C80.1494 48.0057 79.5161 47.3977 79.0601 46.625C78.6167 45.8523 78.3951 44.9657 78.3951 43.965C78.3951 42.9643 78.6104 42.0777 79.0411 41.305C79.4844 40.5323 80.0861 39.9307 80.8461 39.5C81.6187 39.0567 82.4864 38.835 83.4491 38.835C84.4244 38.835 85.2857 39.0503 86.0331 39.481C86.7804 39.9117 87.3631 40.5197 87.7811 41.305C88.2117 42.0777 88.4271 42.9833 88.4271 44.022C88.4271 44.098 88.4207 44.1867 88.4081 44.288C88.4081 44.3893 88.4017 44.4843 88.3891 44.573H79.8201V43.262H87.4391L86.6981 43.718C86.7107 43.072 86.5777 42.4957 86.2991 41.989C86.0204 41.4823 85.6341 41.0897 85.1401 40.811C84.6587 40.5197 84.0951 40.374 83.4491 40.374C82.8157 40.374 82.2521 40.5197 81.7581 40.811C81.2641 41.0897 80.8777 41.4887 80.5991 42.008C80.3204 42.5147 80.1811 43.0973 80.1811 43.756V44.06C80.1811 44.7313 80.3331 45.333 80.6371 45.865C80.9537 46.3843 81.3907 46.7897 81.9481 47.081C82.5054 47.3723 83.1451 47.518 83.8671 47.518C84.4624 47.518 85.0007 47.4167 85.4821 47.214C85.9761 47.0113 86.4067 46.7073 86.7741 46.302L87.7811 47.48C87.3251 48.012 86.7551 48.4173 86.0711 48.696C85.3997 48.9747 84.6461 49.114 83.8101 49.114ZM101.619 49.114C100.542 49.114 99.5922 48.8923 98.7689 48.449C97.9582 48.0057 97.3249 47.3977 96.8689 46.625C96.4255 45.8523 96.2039 44.9657 96.2039 43.965C96.2039 42.9643 96.4192 42.0777 96.8499 41.305C97.2932 40.5323 97.8949 39.9307 98.6549 39.5C99.4275 39.0567 100.295 38.835 101.258 38.835C102.233 38.835 103.095 39.0503 103.842 39.481C104.589 39.9117 105.172 40.5197 105.59 41.305C106.021 42.0777 106.236 42.9833 106.236 44.022C106.236 44.098 106.23 44.1867 106.217 44.288C106.217 44.3893 106.211 44.4843 106.198 44.573H97.6289V43.262H105.248L104.507 43.718C104.52 43.072 104.387 42.4957 104.108 41.989C103.829 41.4823 103.443 41.0897 102.949 40.811C102.468 40.5197 101.904 40.374 101.258 40.374C100.625 40.374 100.061 40.5197 99.5669 40.811C99.0729 41.0897 98.6865 41.4887 98.4079 42.008C98.1292 42.5147 97.9899 43.0973 97.9899 43.756V44.06C97.9899 44.7313 98.1419 45.333 98.4459 45.865C98.7625 46.3843 99.1995 46.7897 99.7569 47.081C100.314 47.3723 100.954 47.518 101.676 47.518C102.271 47.518 102.81 47.4167 103.291 47.214C103.785 47.0113 104.216 46.7073 104.583 46.302L105.59 47.48C105.134 48.012 104.564 48.4173 103.88 48.696C103.209 48.9747 102.455 49.114 101.619 49.114ZM120.321 38.835C121.144 38.835 121.866 38.9933 122.487 39.31C123.12 39.6267 123.614 40.108 123.969 40.754C124.323 41.4 124.501 42.217 124.501 43.205V49H122.677V43.414C122.677 42.4387 122.436 41.704 121.955 41.21C121.486 40.716 120.821 40.469 119.96 40.469C119.314 40.469 118.75 40.5957 118.269 40.849C117.787 41.1023 117.414 41.476 117.148 41.97C116.894 42.464 116.768 43.0783 116.768 43.813V49H114.944V38.93H116.692V41.647L116.407 40.925C116.736 40.2663 117.243 39.7533 117.927 39.386C118.611 39.0187 119.409 38.835 120.321 38.835Z" fill="#30AD23"/>
</svg>
