<svg width="171" height="54" viewBox="0 0 171 54" fill="none" xmlns="http://www.w3.org/2000/svg">
<path d="M2.1 9V30H10.92C17.67 30 22.29 25.71 22.29 19.5C22.29 13.26 17.73 9 11.13 9H2.1ZM7.44 13.26H11.01C14.4 13.26 16.86 15.81 16.86 19.53C16.86 23.22 14.52 25.74 11.25 25.74H7.44V13.26ZM41.538 13.2V9H25.098V30H41.868V25.8H30.438V21.57H40.458V17.37H30.438V13.2H41.538ZM64.6929 30V9H59.7129V21.96L50.0229 9H45.3129V30H50.3229V17.07L59.9829 30H64.6929ZM92.5069 30L99.4369 9H93.9769L89.9269 24.45L85.8169 9H80.5969L76.5769 24.45L72.4669 9H66.7669L73.6369 30H79.1569L83.1169 15.48L87.0169 30H92.5069ZM111.23 8.82C104.75 8.82 99.8899 13.35 99.8899 19.47C99.8899 25.62 104.75 30.24 111.23 30.24C117.74 30.24 122.6 25.59 122.6 19.47C122.6 13.38 117.74 8.82 111.23 8.82ZM111.29 13.29C114.53 13.29 117.11 15.96 117.11 19.5C117.11 23.04 114.53 25.77 111.29 25.77C108.08 25.77 105.35 23.04 105.35 19.5C105.35 15.96 108.05 13.29 111.29 13.29ZM134.99 8.82C128.51 8.82 123.65 13.35 123.65 19.47C123.65 25.62 128.51 30.24 134.99 30.24C141.5 30.24 146.36 25.59 146.36 19.47C146.36 13.38 141.5 8.82 134.99 8.82ZM135.05 13.29C138.29 13.29 140.87 15.96 140.87 19.5C140.87 23.04 138.29 25.77 135.05 25.77C131.84 25.77 129.11 23.04 129.11 19.5C129.11 15.96 131.81 13.29 135.05 13.29ZM149.17 9V30H157.99C164.74 30 169.36 25.71 169.36 19.5C169.36 13.26 164.8 9 158.2 9H149.17ZM154.51 13.26H158.08C161.47 13.26 163.93 15.81 163.93 19.53C163.93 23.22 161.59 25.74 158.32 25.74H154.51V13.26Z" fill="black"/>
<path d="M11.533 35.7H13.433V49H11.533V35.7ZM3.895 49H1.995V35.7H3.895V49ZM11.704 43.072H3.705V41.419H11.704V43.072ZM27.6359 49.114C26.6226 49.114 25.7233 48.8923 24.9379 48.449C24.1526 48.0057 23.5319 47.3977 23.0759 46.625C22.6199 45.8397 22.3919 44.953 22.3919 43.965C22.3919 42.9643 22.6199 42.0777 23.0759 41.305C23.5319 40.5323 24.1526 39.9307 24.9379 39.5C25.7233 39.0567 26.6226 38.835 27.6359 38.835C28.6366 38.835 29.5296 39.0567 30.3149 39.5C31.1129 39.9307 31.7336 40.5323 32.1769 41.305C32.6329 42.065 32.8609 42.9517 32.8609 43.965C32.8609 44.9657 32.6329 45.8523 32.1769 46.625C31.7336 47.3977 31.1129 48.0057 30.3149 48.449C29.5296 48.8923 28.6366 49.114 27.6359 49.114ZM27.6359 47.518C28.2819 47.518 28.8583 47.3723 29.3649 47.081C29.8843 46.7897 30.2896 46.378 30.5809 45.846C30.8723 45.3013 31.0179 44.6743 31.0179 43.965C31.0179 43.243 30.8723 42.6223 30.5809 42.103C30.2896 41.571 29.8843 41.1593 29.3649 40.868C28.8583 40.5767 28.2819 40.431 27.6359 40.431C26.9899 40.431 26.4136 40.5767 25.9069 40.868C25.4003 41.1593 24.9949 41.571 24.6909 42.103C24.3869 42.6223 24.2349 43.243 24.2349 43.965C24.2349 44.6743 24.3869 45.3013 24.6909 45.846C24.9949 46.378 25.4003 46.7897 25.9069 47.081C26.4136 47.3723 26.9899 47.518 27.6359 47.518ZM45.7955 49.114C44.9342 49.114 44.1742 48.9557 43.5155 48.639C42.8695 48.3223 42.3628 47.841 41.9955 47.195C41.6408 46.5363 41.4635 45.713 41.4635 44.725V38.93H43.2875V44.516C43.2875 45.504 43.5218 46.245 43.9905 46.739C44.4718 47.233 45.1432 47.48 46.0045 47.48C46.6378 47.48 47.1888 47.3533 47.6575 47.1C48.1262 46.834 48.4872 46.454 48.7405 45.96C48.9938 45.4533 49.1205 44.8453 49.1205 44.136V38.93H50.9445V49H49.2155V46.283L49.5005 47.005C49.1712 47.6763 48.6772 48.1957 48.0185 48.563C47.3598 48.9303 46.6188 49.114 45.7955 49.114ZM63.4799 49.114C62.6439 49.114 61.8459 49 61.0859 48.772C60.3386 48.544 59.7496 48.2653 59.3189 47.936L60.0789 46.492C60.5096 46.7833 61.0416 47.0303 61.6749 47.233C62.3082 47.4357 62.9542 47.537 63.6129 47.537C64.4616 47.537 65.0696 47.4167 65.4369 47.176C65.8169 46.9353 66.0069 46.5997 66.0069 46.169C66.0069 45.8523 65.8929 45.6053 65.6649 45.428C65.4369 45.2507 65.1329 45.1177 64.7529 45.029C64.3856 44.9403 63.9739 44.8643 63.5179 44.801C63.0619 44.725 62.6059 44.6363 62.1499 44.535C61.6939 44.421 61.2759 44.269 60.8959 44.079C60.5159 43.8763 60.2119 43.604 59.9839 43.262C59.7559 42.9073 59.6419 42.4387 59.6419 41.856C59.6419 41.248 59.8129 40.716 60.1549 40.26C60.4969 39.804 60.9782 39.4557 61.5989 39.215C62.2322 38.9617 62.9796 38.835 63.8409 38.835C64.4996 38.835 65.1646 38.9173 65.8359 39.082C66.5199 39.234 67.0772 39.4557 67.5079 39.747L66.7289 41.191C66.2729 40.887 65.7979 40.678 65.3039 40.564C64.8099 40.45 64.3159 40.393 63.8219 40.393C63.0239 40.393 62.4286 40.526 62.0359 40.792C61.6432 41.0453 61.4469 41.3747 61.4469 41.78C61.4469 42.122 61.5609 42.388 61.7889 42.578C62.0296 42.7553 62.3336 42.8947 62.7009 42.996C63.0809 43.0973 63.4989 43.186 63.9549 43.262C64.4109 43.3253 64.8669 43.414 65.3229 43.528C65.7789 43.6293 66.1906 43.775 66.5579 43.965C66.9379 44.155 67.2419 44.421 67.4699 44.763C67.7106 45.105 67.8309 45.561 67.8309 46.131C67.8309 46.739 67.6536 47.2647 67.2989 47.708C66.9442 48.1513 66.4439 48.4997 65.7979 48.753C65.1519 48.9937 64.3792 49.114 63.4799 49.114ZM80.7694 49.114C79.6928 49.114 78.7428 48.8923 77.9194 48.449C77.1088 48.0057 76.4754 47.3977 76.0194 46.625C75.5761 45.8523 75.3544 44.9657 75.3544 43.965C75.3544 42.9643 75.5698 42.0777 76.0004 41.305C76.4438 40.5323 77.0454 39.9307 77.8054 39.5C78.5781 39.0567 79.4458 38.835 80.4084 38.835C81.3838 38.835 82.2451 39.0503 82.9924 39.481C83.7398 39.9117 84.3224 40.5197 84.7404 41.305C85.1711 42.0777 85.3864 42.9833 85.3864 44.022C85.3864 44.098 85.3801 44.1867 85.3674 44.288C85.3674 44.3893 85.3611 44.4843 85.3484 44.573H76.7794V43.262H84.3984L83.6574 43.718C83.6701 43.072 83.5371 42.4957 83.2584 41.989C82.9798 41.4823 82.5934 41.0897 82.0994 40.811C81.6181 40.5197 81.0544 40.374 80.4084 40.374C79.7751 40.374 79.2114 40.5197 78.7174 40.811C78.2234 41.0897 77.8371 41.4887 77.5584 42.008C77.2798 42.5147 77.1404 43.0973 77.1404 43.756V44.06C77.1404 44.7313 77.2924 45.333 77.5964 45.865C77.9131 46.3843 78.3501 46.7897 78.9074 47.081C79.4648 47.3723 80.1044 47.518 80.8264 47.518C81.4218 47.518 81.9601 47.4167 82.4414 47.214C82.9354 47.0113 83.3661 46.7073 83.7334 46.302L84.7404 47.48C84.2844 48.012 83.7144 48.4173 83.0304 48.696C82.3591 48.9747 81.6054 49.114 80.7694 49.114ZM99.4712 38.835C100.295 38.835 101.017 38.9933 101.637 39.31C102.271 39.6267 102.765 40.108 103.119 40.754C103.474 41.4 103.651 42.217 103.651 43.205V49H101.827V43.414C101.827 42.4387 101.587 41.704 101.105 41.21C100.637 40.716 99.9716 40.469 99.1102 40.469C98.4642 40.469 97.9006 40.5957 97.4192 40.849C96.9379 41.1023 96.5642 41.476 96.2982 41.97C96.0449 42.464 95.9182 43.0783 95.9182 43.813V49H94.0942V34.902H95.9182V41.647L95.5572 40.925C95.8866 40.2663 96.3932 39.7533 97.0772 39.386C97.7612 39.0187 98.5592 38.835 99.4712 38.835ZM117.515 49.114C116.502 49.114 115.602 48.8923 114.817 48.449C114.032 48.0057 113.411 47.3977 112.955 46.625C112.499 45.8397 112.271 44.953 112.271 43.965C112.271 42.9643 112.499 42.0777 112.955 41.305C113.411 40.5323 114.032 39.9307 114.817 39.5C115.602 39.0567 116.502 38.835 117.515 38.835C118.516 38.835 119.409 39.0567 120.194 39.5C120.992 39.9307 121.613 40.5323 122.056 41.305C122.512 42.065 122.74 42.9517 122.74 43.965C122.74 44.9657 122.512 45.8523 122.056 46.625C121.613 47.3977 120.992 48.0057 120.194 48.449C119.409 48.8923 118.516 49.114 117.515 49.114ZM117.515 47.518C118.161 47.518 118.737 47.3723 119.244 47.081C119.763 46.7897 120.169 46.378 120.46 45.846C120.751 45.3013 120.897 44.6743 120.897 43.965C120.897 43.243 120.751 42.6223 120.46 42.103C120.169 41.571 119.763 41.1593 119.244 40.868C118.737 40.5767 118.161 40.431 117.515 40.431C116.869 40.431 116.293 40.5767 115.786 40.868C115.279 41.1593 114.874 41.571 114.57 42.103C114.266 42.6223 114.114 43.243 114.114 43.965C114.114 44.6743 114.266 45.3013 114.57 45.846C114.874 46.378 115.279 46.7897 115.786 47.081C116.293 47.3723 116.869 47.518 117.515 47.518ZM131.437 49V34.902H133.261V49H131.437ZM147.08 49.114C146.105 49.114 145.231 48.8987 144.458 48.468C143.698 48.0373 143.096 47.4357 142.653 46.663C142.21 45.8903 141.988 44.991 141.988 43.965C141.988 42.939 142.21 42.046 142.653 41.286C143.096 40.5133 143.698 39.9117 144.458 39.481C145.231 39.0503 146.105 38.835 147.08 38.835C147.929 38.835 148.695 39.025 149.379 39.405C150.063 39.785 150.608 40.355 151.013 41.115C151.431 41.875 151.64 42.825 151.64 43.965C151.64 45.105 151.437 46.055 151.032 46.815C150.639 47.575 150.101 48.1513 149.417 48.544C148.733 48.924 147.954 49.114 147.08 49.114ZM147.232 47.518C147.865 47.518 148.435 47.3723 148.942 47.081C149.461 46.7897 149.867 46.378 150.158 45.846C150.462 45.3013 150.614 44.6743 150.614 43.965C150.614 43.243 150.462 42.6223 150.158 42.103C149.867 41.571 149.461 41.1593 148.942 40.868C148.435 40.5767 147.865 40.431 147.232 40.431C146.586 40.431 146.01 40.5767 145.503 40.868C144.996 41.1593 144.591 41.571 144.287 42.103C143.983 42.6223 143.831 43.243 143.831 43.965C143.831 44.6743 143.983 45.3013 144.287 45.846C144.591 46.378 144.996 46.7897 145.503 47.081C146.01 47.3723 146.586 47.518 147.232 47.518ZM150.671 49V46.283L150.785 43.946L150.595 41.609V34.902H152.419V49H150.671ZM164.933 49.114C164.097 49.114 163.299 49 162.539 48.772C161.792 48.544 161.203 48.2653 160.772 47.936L161.532 46.492C161.963 46.7833 162.495 47.0303 163.128 47.233C163.762 47.4357 164.408 47.537 165.066 47.537C165.915 47.537 166.523 47.4167 166.89 47.176C167.27 46.9353 167.46 46.5997 167.46 46.169C167.46 45.8523 167.346 45.6053 167.118 45.428C166.89 45.2507 166.586 45.1177 166.206 45.029C165.839 44.9403 165.427 44.8643 164.971 44.801C164.515 44.725 164.059 44.6363 163.603 44.535C163.147 44.421 162.729 44.269 162.349 44.079C161.969 43.8763 161.665 43.604 161.437 43.262C161.209 42.9073 161.095 42.4387 161.095 41.856C161.095 41.248 161.266 40.716 161.608 40.26C161.95 39.804 162.432 39.4557 163.052 39.215C163.686 38.9617 164.433 38.835 165.294 38.835C165.953 38.835 166.618 38.9173 167.289 39.082C167.973 39.234 168.531 39.4557 168.961 39.747L168.182 41.191C167.726 40.887 167.251 40.678 166.757 40.564C166.263 40.45 165.769 40.393 165.275 40.393C164.477 40.393 163.882 40.526 163.489 40.792C163.097 41.0453 162.9 41.3747 162.9 41.78C162.9 42.122 163.014 42.388 163.242 42.578C163.483 42.7553 163.787 42.8947 164.154 42.996C164.534 43.0973 164.952 43.186 165.408 43.262C165.864 43.3253 166.32 43.414 166.776 43.528C167.232 43.6293 167.644 43.775 168.011 43.965C168.391 44.155 168.695 44.421 168.923 44.763C169.164 45.105 169.284 45.561 169.284 46.131C169.284 46.739 169.107 47.2647 168.752 47.708C168.398 48.1513 167.897 48.4997 167.251 48.753C166.605 48.9937 165.833 49.114 164.933 49.114Z" fill="#908696"/>
</svg>
