<svg width="651" height="44" viewBox="0 0 651 44" fill="none" xmlns="http://www.w3.org/2000/svg">
<path d="M30.68 14.08C30.68 16.32 30.14 18.42 29.06 20.38C28.02 22.34 26.36 23.92 24.08 25.12C21.84 26.32 19 26.92 15.56 26.92H8.54V43H0.14V1.12H15.56C18.8 1.12 21.56 1.68 23.84 2.8C26.12 3.92 27.82 5.46 28.94 7.42C30.1 9.38 30.68 11.6 30.68 14.08ZM15.2 20.14C17.52 20.14 19.24 19.62 20.36 18.58C21.48 17.5 22.04 16 22.04 14.08C22.04 10 19.76 7.96 15.2 7.96H8.54V20.14H15.2ZM56.0839 43.42C52.1639 43.42 48.5639 42.5 45.2839 40.66C42.0039 38.82 39.4039 36.28 37.4839 33.04C35.5639 29.76 34.6039 26.06 34.6039 21.94C34.6039 17.86 35.5639 14.2 37.4839 10.96C39.4039 7.68 42.0039 5.12 45.2839 3.28C48.5639 1.44 52.1639 0.52 56.0839 0.52C60.0439 0.52 63.6439 1.44 66.8839 3.28C70.1639 5.12 72.7439 7.68 74.6239 10.96C76.5439 14.2 77.5039 17.86 77.5039 21.94C77.5039 26.06 76.5439 29.76 74.6239 33.04C72.7439 36.28 70.1639 38.82 66.8839 40.66C63.6039 42.5 60.0039 43.42 56.0839 43.42ZM56.0839 35.92C58.6039 35.92 60.8239 35.36 62.7439 34.24C64.6639 33.08 66.1639 31.44 67.2439 29.32C68.3239 27.2 68.8639 24.74 68.8639 21.94C68.8639 19.14 68.3239 16.7 67.2439 14.62C66.1639 12.5 64.6639 10.88 62.7439 9.76C60.8239 8.64 58.6039 8.08 56.0839 8.08C53.5639 8.08 51.3239 8.64 49.3639 9.76C47.4439 10.88 45.9439 12.5 44.8639 14.62C43.7839 16.7 43.2439 19.14 43.2439 21.94C43.2439 24.74 43.7839 27.2 44.8639 29.32C45.9439 31.44 47.4439 33.08 49.3639 34.24C51.3239 35.36 53.5639 35.92 56.0839 35.92ZM114.293 14.08C114.293 16.32 113.753 18.42 112.673 20.38C111.633 22.34 109.973 23.92 107.693 25.12C105.453 26.32 102.613 26.92 99.1733 26.92H92.1533V43H83.7533V1.12H99.1733C102.413 1.12 105.173 1.68 107.453 2.8C109.733 3.92 111.433 5.46 112.553 7.42C113.713 9.38 114.293 11.6 114.293 14.08ZM98.8133 20.14C101.133 20.14 102.853 19.62 103.973 18.58C105.093 17.5 105.653 16 105.653 14.08C105.653 10 103.373 7.96 98.8133 7.96H92.1533V20.14H98.8133ZM128.537 1.12V27.04C128.537 29.88 129.277 32.06 130.757 33.58C132.237 35.06 134.317 35.8 136.997 35.8C139.717 35.8 141.817 35.06 143.297 33.58C144.777 32.06 145.517 29.88 145.517 27.04V1.12H153.977V26.98C153.977 30.54 153.197 33.56 151.637 36.04C150.117 38.48 148.057 40.32 145.457 41.56C142.897 42.8 140.037 43.42 136.877 43.42C133.757 43.42 130.917 42.8 128.357 41.56C125.837 40.32 123.837 38.48 122.357 36.04C120.877 33.56 120.137 30.54 120.137 26.98V1.12H128.537ZM170.493 36.34H184.293V43H162.093V1.12H170.493V36.34ZM215.312 35.02H198.632L195.872 43H187.052L202.112 1.06H211.892L226.952 43H218.072L215.312 35.02ZM213.032 28.3L206.972 10.78L200.912 28.3H213.032ZM254.181 43L244.941 26.68H240.981V43H232.581V1.12H248.301C251.541 1.12 254.301 1.7 256.581 2.86C258.861 3.98 260.561 5.52 261.681 7.48C262.841 9.4 263.421 11.56 263.421 13.96C263.421 16.72 262.621 19.22 261.021 21.46C259.421 23.66 257.041 25.18 253.881 26.02L263.901 43H254.181ZM240.981 20.38H248.001C250.281 20.38 251.981 19.84 253.101 18.76C254.221 17.64 254.781 16.1 254.781 14.14C254.781 12.22 254.221 10.74 253.101 9.7C251.981 8.62 250.281 8.08 248.001 8.08H240.981V20.38ZM283.276 22C283.276 17.88 284.196 14.2 286.036 10.96C287.916 7.68 290.456 5.14 293.656 3.34C296.896 1.5 300.516 0.579999 304.516 0.579999C309.196 0.579999 313.296 1.78 316.816 4.18C320.336 6.58 322.796 9.9 324.196 14.14H314.536C313.576 12.14 312.216 10.64 310.456 9.64C308.736 8.64 306.736 8.14 304.456 8.14C302.016 8.14 299.836 8.72 297.916 9.88C296.036 11 294.556 12.6 293.476 14.68C292.436 16.76 291.916 19.2 291.916 22C291.916 24.76 292.436 27.2 293.476 29.32C294.556 31.4 296.036 33.02 297.916 34.18C299.836 35.3 302.016 35.86 304.456 35.86C306.736 35.86 308.736 35.36 310.456 34.36C312.216 33.32 313.576 31.8 314.536 29.8H324.196C322.796 34.08 320.336 37.42 316.816 39.82C313.336 42.18 309.236 43.36 304.516 43.36C300.516 43.36 296.896 42.46 293.656 40.66C290.456 38.82 287.916 36.28 286.036 33.04C284.196 29.8 283.276 26.12 283.276 22ZM357.05 35.02H340.37L337.61 43H328.79L343.85 1.06H353.63L368.69 43H359.81L357.05 35.02ZM354.77 28.3L348.71 10.78L342.65 28.3H354.77ZM402.82 1.12V7.9H391.66V43H383.26V7.9H372.1V1.12H402.82ZM417.349 7.9V18.4H431.449V25.06H417.349V36.16H433.249V43H408.949V1.06H433.249V7.9H417.349ZM470.042 13.72C469.082 11.96 467.762 10.62 466.082 9.7C464.402 8.78 462.442 8.32 460.202 8.32C457.722 8.32 455.522 8.88 453.602 10C451.682 11.12 450.182 12.72 449.102 14.8C448.022 16.88 447.482 19.28 447.482 22C447.482 24.8 448.022 27.24 449.102 29.32C450.222 31.4 451.762 33 453.722 34.12C455.682 35.24 457.962 35.8 460.562 35.8C463.762 35.8 466.382 34.96 468.422 33.28C470.462 31.56 471.802 29.18 472.442 26.14H458.042V19.72H480.722V27.04C480.162 29.96 478.962 32.66 477.122 35.14C475.282 37.62 472.902 39.62 469.982 41.14C467.102 42.62 463.862 43.36 460.262 43.36C456.222 43.36 452.562 42.46 449.282 40.66C446.042 38.82 443.482 36.28 441.602 33.04C439.762 29.8 438.842 26.12 438.842 22C438.842 17.88 439.762 14.2 441.602 10.96C443.482 7.68 446.042 5.14 449.282 3.34C452.562 1.5 456.202 0.579999 460.202 0.579999C464.922 0.579999 469.022 1.74 472.502 4.06C475.982 6.34 478.382 9.56 479.702 13.72H470.042ZM506.377 43.42C502.457 43.42 498.857 42.5 495.577 40.66C492.297 38.82 489.697 36.28 487.777 33.04C485.857 29.76 484.897 26.06 484.897 21.94C484.897 17.86 485.857 14.2 487.777 10.96C489.697 7.68 492.297 5.12 495.577 3.28C498.857 1.44 502.457 0.52 506.377 0.52C510.337 0.52 513.937 1.44 517.177 3.28C520.457 5.12 523.037 7.68 524.917 10.96C526.837 14.2 527.797 17.86 527.797 21.94C527.797 26.06 526.837 29.76 524.917 33.04C523.037 36.28 520.457 38.82 517.177 40.66C513.897 42.5 510.297 43.42 506.377 43.42ZM506.377 35.92C508.897 35.92 511.117 35.36 513.037 34.24C514.957 33.08 516.457 31.44 517.537 29.32C518.617 27.2 519.157 24.74 519.157 21.94C519.157 19.14 518.617 16.7 517.537 14.62C516.457 12.5 514.957 10.88 513.037 9.76C511.117 8.64 508.897 8.08 506.377 8.08C503.857 8.08 501.617 8.64 499.657 9.76C497.737 10.88 496.237 12.5 495.157 14.62C494.077 16.7 493.537 19.14 493.537 21.94C493.537 24.74 494.077 27.2 495.157 29.32C496.237 31.44 497.737 33.08 499.657 34.24C501.617 35.36 503.857 35.92 506.377 35.92ZM555.646 43L546.406 26.68H542.446V43H534.046V1.12H549.766C553.006 1.12 555.766 1.7 558.046 2.86C560.326 3.98 562.026 5.52 563.146 7.48C564.306 9.4 564.886 11.56 564.886 13.96C564.886 16.72 564.086 19.22 562.486 21.46C560.886 23.66 558.506 25.18 555.346 26.02L565.366 43H555.646ZM542.446 20.38H549.466C551.746 20.38 553.446 19.84 554.566 18.76C555.686 17.64 556.246 16.1 556.246 14.14C556.246 12.22 555.686 10.74 554.566 9.7C553.446 8.62 551.746 8.08 549.466 8.08H542.446V20.38ZM580.884 1.12V43H572.484V1.12H580.884ZM597.583 7.9V18.4H611.683V25.06H597.583V36.16H613.483V43H589.183V1.06H613.483V7.9H597.583ZM635.577 43.42C632.657 43.42 630.017 42.92 627.657 41.92C625.337 40.92 623.497 39.48 622.137 37.6C620.777 35.72 620.077 33.5 620.037 30.94H629.037C629.157 32.66 629.757 34.02 630.837 35.02C631.957 36.02 633.477 36.52 635.397 36.52C637.357 36.52 638.897 36.06 640.017 35.14C641.137 34.18 641.697 32.94 641.697 31.42C641.697 30.18 641.317 29.16 640.557 28.36C639.797 27.56 638.837 26.94 637.677 26.5C636.557 26.02 634.997 25.5 632.997 24.94C630.277 24.14 628.057 23.36 626.337 22.6C624.657 21.8 623.197 20.62 621.957 19.06C620.757 17.46 620.157 15.34 620.157 12.7C620.157 10.22 620.777 8.06 622.017 6.22C623.257 4.38 624.997 2.98 627.237 2.02C629.477 1.02 632.037 0.52 634.917 0.52C639.237 0.52 642.737 1.58 645.417 3.7C648.137 5.78 649.637 8.7 649.917 12.46H640.677C640.597 11.02 639.977 9.84 638.817 8.92C637.697 7.96 636.197 7.48 634.317 7.48C632.677 7.48 631.357 7.9 630.357 8.74C629.397 9.58 628.917 10.8 628.917 12.4C628.917 13.52 629.277 14.46 629.997 15.22C630.757 15.94 631.677 16.54 632.757 17.02C633.877 17.46 635.437 17.98 637.437 18.58C640.157 19.38 642.377 20.18 644.097 20.98C645.817 21.78 647.297 22.98 648.537 24.58C649.777 26.18 650.397 28.28 650.397 30.88C650.397 33.12 649.817 35.2 648.657 37.12C647.497 39.04 645.797 40.58 643.557 41.74C641.317 42.86 638.657 43.42 635.577 43.42Z" fill="black" fill-opacity="0.04"/>
</svg>
