<svg width="18" height="23" viewBox="0 0 18 23" fill="none" xmlns="http://www.w3.org/2000/svg">
<path d="M16.3456 0H3.33088C2.89226 0.000493585 2.47174 0.174956 2.16158 0.485111C1.85143 0.795267 1.67696 1.21579 1.67647 1.65441V1.69853H0.992647C0.729381 1.69853 0.476897 1.80311 0.29074 1.98927C0.104582 2.17543 0 2.42791 0 2.69118C0 2.95444 0.104582 3.20693 0.29074 3.39308C0.476897 3.57924 0.729381 3.68382 0.992647 3.68382H1.67647V7.43382H0.992647C0.729381 7.43382 0.476897 7.53841 0.29074 7.72456C0.104582 7.91072 0 8.1632 0 8.42647C0 8.68974 0.104582 8.94222 0.29074 9.12838C0.476897 9.31454 0.729381 9.41912 0.992647 9.41912H1.67647V13.1691H0.992647C0.729381 13.1691 0.476897 13.2737 0.29074 13.4599C0.104582 13.646 0 13.8985 0 14.1618C0 14.425 0.104582 14.6775 0.29074 14.8637C0.476897 15.0498 0.729381 15.1544 0.992647 15.1544H1.67647V18.9044H0.992647C0.729381 18.9044 0.476897 19.009 0.29074 19.1952C0.104582 19.3813 0 19.6338 0 19.8971C0 20.1603 0.104582 20.4128 0.29074 20.599C0.476897 20.7851 0.729381 20.8897 0.992647 20.8897H1.67647V20.9338C1.67696 21.3724 1.85143 21.793 2.16158 22.1031C2.47174 22.4133 2.89226 22.5877 3.33088 22.5882H16.3456C16.7842 22.5877 17.2047 22.4133 17.5149 22.1031C17.825 21.793 17.9995 21.3724 18 20.9338V1.65441C17.9995 1.21579 17.825 0.795267 17.5149 0.485111C17.2047 0.174956 16.7842 0.000493585 16.3456 0ZM0.992647 3.02206C0.904892 3.02206 0.82073 2.9872 0.758678 2.92515C0.696625 2.86309 0.661765 2.77893 0.661765 2.69118C0.661765 2.60342 0.696625 2.51926 0.758678 2.45721C0.82073 2.39515 0.904892 2.36029 0.992647 2.36029H2.71324C2.80099 2.36029 2.88515 2.39515 2.9472 2.45721C3.00926 2.51926 3.04412 2.60342 3.04412 2.69118C3.04412 2.77893 3.00926 2.86309 2.9472 2.92515C2.88515 2.9872 2.80099 3.02206 2.71324 3.02206H0.992647ZM0.992647 8.75735C0.904892 8.75735 0.82073 8.72249 0.758678 8.66044C0.696625 8.59839 0.661765 8.51423 0.661765 8.42647C0.661765 8.33871 0.696625 8.25455 0.758678 8.1925C0.82073 8.13045 0.904892 8.09559 0.992647 8.09559H2.71324C2.80099 8.09559 2.88515 8.13045 2.9472 8.1925C3.00926 8.25455 3.04412 8.33871 3.04412 8.42647C3.04412 8.51423 3.00926 8.59839 2.9472 8.66044C2.88515 8.72249 2.80099 8.75735 2.71324 8.75735H0.992647ZM0.992647 14.4926C0.904892 14.4926 0.82073 14.4578 0.758678 14.3957C0.696625 14.3337 0.661765 14.2495 0.661765 14.1618C0.661765 14.074 0.696625 13.9898 0.758678 13.9278C0.82073 13.8657 0.904892 13.8309 0.992647 13.8309H2.71324C2.80099 13.8309 2.88515 13.8657 2.9472 13.9278C3.00926 13.9898 3.04412 14.074 3.04412 14.1618C3.04412 14.2495 3.00926 14.3337 2.9472 14.3957C2.88515 14.4578 2.80099 14.4926 2.71324 14.4926H0.992647ZM0.992647 20.2279C0.904892 20.2279 0.82073 20.1931 0.758678 20.131C0.696625 20.069 0.661765 19.9848 0.661765 19.8971C0.661765 19.8093 0.696625 19.7251 0.758678 19.6631C0.82073 19.601 0.904892 19.5662 0.992647 19.5662H2.71324C2.80099 19.5662 2.88515 19.601 2.9472 19.6631C3.00926 19.7251 3.04412 19.8093 3.04412 19.8971C3.04412 19.9848 3.00926 20.069 2.9472 20.131C2.88515 20.1931 2.80099 20.2279 2.71324 20.2279H0.992647ZM17.3382 20.9338C17.3379 21.197 17.2333 21.4493 17.0472 21.6354C16.8611 21.8215 16.6088 21.9262 16.3456 21.9265H3.33088C3.06771 21.9262 2.8154 21.8215 2.6293 21.6354C2.44321 21.4493 2.33853 21.197 2.33824 20.9338V20.8897H2.71324C2.9765 20.8897 3.22899 20.7851 3.41514 20.599C3.6013 20.4128 3.70588 20.1603 3.70588 19.8971C3.70588 19.6338 3.6013 19.3813 3.41514 19.1952C3.22899 19.009 2.9765 18.9044 2.71324 18.9044H2.33824V15.1544H2.71324C2.9765 15.1544 3.22899 15.0498 3.41514 14.8637C3.6013 14.6775 3.70588 14.425 3.70588 14.1618C3.70588 13.8985 3.6013 13.646 3.41514 13.4599C3.22899 13.2737 2.9765 13.1691 2.71324 13.1691H2.33824V9.41912H2.71324C2.9765 9.41912 3.22899 9.31454 3.41514 9.12838C3.6013 8.94222 3.70588 8.68974 3.70588 8.42647C3.70588 8.1632 3.6013 7.91072 3.41514 7.72456C3.22899 7.53841 2.9765 7.43382 2.71324 7.43382H2.33824V3.68382H2.71324C2.9765 3.68382 3.22899 3.57924 3.41514 3.39308C3.6013 3.20693 3.70588 2.95444 3.70588 2.69118C3.70588 2.42791 3.6013 2.17543 3.41514 1.98927C3.22899 1.80311 2.9765 1.69853 2.71324 1.69853H2.33824V1.65441C2.33853 1.39124 2.44321 1.13893 2.6293 0.952834C2.8154 0.766741 3.06771 0.662063 3.33088 0.661765H16.3456C16.6088 0.662063 16.8611 0.766741 17.0472 0.952834C17.2333 1.13893 17.3379 1.39124 17.3382 1.65441V20.9338ZM12.6233 12.5286L11.3911 11.8718C11.3951 11.8269 11.3978 11.7819 11.3978 11.7366V11.1199C11.7521 10.8703 12.0413 10.5393 12.2409 10.1546C12.4406 9.76996 12.5449 9.34295 12.5451 8.90957V8.08564C12.5451 7.36774 12.2599 6.67924 11.7523 6.17161C11.2446 5.66398 10.5561 5.3788 9.83824 5.3788C9.12034 5.3788 8.43184 5.66398 7.92421 6.17161C7.41658 6.67924 7.1314 7.36774 7.1314 8.08564V8.55756C7.13139 8.55842 7.13139 8.55929 7.1314 8.56014V8.90957C7.13153 9.35179 7.24004 9.78724 7.44742 10.1778C7.65481 10.5684 7.95476 10.9022 8.32102 11.15V11.7366C8.32102 11.7746 8.32289 11.8124 8.32568 11.8502L7.0532 12.5285C6.60565 12.767 6.23136 13.1226 5.97039 13.5574C5.70941 13.9922 5.57157 14.4898 5.57162 14.9969C5.57228 15.5835 5.80559 16.1459 6.22037 16.5606C6.63515 16.9754 7.19752 17.2088 7.78411 17.2094H11.8924C12.1829 17.2095 12.4706 17.1523 12.7391 17.0411C13.0075 16.9299 13.2515 16.7669 13.4569 16.5615C13.6624 16.356 13.8254 16.1121 13.9365 15.8436C14.0477 15.5752 14.1049 15.2875 14.1049 14.9969C14.1055 14.4897 13.9679 13.9919 13.7068 13.557C13.4458 13.1221 13.0712 12.7666 12.6233 12.5286ZM7.79316 8.08564C7.79307 7.54343 8.00831 7.02338 8.39155 6.63982C8.7748 6.25627 9.29467 6.04061 9.83688 6.04026C10.3791 6.03991 10.8992 6.2549 11.283 6.63796C11.6667 7.02102 11.8826 7.54079 11.8832 8.083C11.3429 8.2542 10.7657 8.27244 10.2157 8.1357C9.77281 8.02066 9.3617 7.80698 9.01308 7.51064C8.97036 7.4744 8.91915 7.4496 8.86423 7.43856C8.80931 7.42753 8.75249 7.43061 8.6991 7.44753C8.6457 7.46444 8.59747 7.49464 8.55892 7.53528C8.52038 7.57593 8.49279 7.62569 8.47873 7.67992C8.4422 7.8364 8.35536 7.97659 8.23154 8.07901C8.10771 8.18142 7.95372 8.24042 7.79316 8.24695V8.08564ZM7.79316 8.90957V8.90928C8.12708 8.89862 8.44683 8.77189 8.69738 8.5509C8.78713 8.46992 8.86581 8.37747 8.93141 8.27594C9.36023 8.56299 9.84521 8.75554 10.3542 8.84079C10.8631 8.92603 11.3844 8.90203 11.8833 8.77037V8.90957C11.8833 9.45195 11.6678 9.97213 11.2843 10.3557C10.9008 10.7392 10.3806 10.9546 9.83824 10.9546C9.29585 10.9546 8.77568 10.7392 8.39215 10.3557C8.00862 9.97213 7.79316 9.45195 7.79316 8.90957ZM10.736 11.4627V11.7366C10.736 11.9691 10.6437 12.1921 10.4793 12.3565C10.3149 12.5209 10.0919 12.6133 9.85941 12.6133C9.62692 12.6133 9.40394 12.5209 9.23954 12.3565C9.07515 12.1921 8.98279 11.9691 8.98279 11.7366V11.4771C9.5525 11.6676 10.1695 11.6626 10.736 11.4627ZM12.989 16.0935C12.8453 16.238 12.6744 16.3525 12.4862 16.4304C12.2979 16.5084 12.0961 16.5482 11.8924 16.5476H7.78412C7.37298 16.5472 6.97881 16.3836 6.68809 16.0929C6.39737 15.8022 6.23384 15.408 6.23338 14.9969C6.23334 14.6098 6.33856 14.2299 6.53781 13.898C6.73705 13.5661 7.0228 13.2946 7.36448 13.1125L8.52114 12.4959C8.65458 12.731 8.8476 12.9268 9.08076 13.0636C9.31392 13.2003 9.579 13.2732 9.8493 13.275C10.1196 13.2767 10.3856 13.2072 10.6205 13.0735C10.8554 12.9397 11.0509 12.7464 11.1874 12.5131L12.3121 13.1126C12.654 13.2943 12.94 13.5657 13.1393 13.8977C13.3385 14.2297 13.4436 14.6097 13.4431 14.9969C13.4437 15.2006 13.4038 15.4025 13.3259 15.5907C13.2479 15.7789 13.1334 15.9498 12.989 16.0935Z" fill="white"/>
</svg>
