<svg width="23" height="16" viewBox="0 0 23 16" fill="none" xmlns="http://www.w3.org/2000/svg">
<path d="M5.36607 11.5C5.13862 11.5 4.91628 11.5674 4.72716 11.6938C4.53804 11.8202 4.39064 11.9998 4.3036 12.2099C4.21656 12.42 4.19379 12.6513 4.23816 12.8744C4.28253 13.0974 4.39206 13.3023 4.55289 13.4632C4.71372 13.624 4.91863 13.7335 5.14171 13.7779C5.36479 13.8223 5.59602 13.7995 5.80615 13.7125C6.01629 13.6254 6.19589 13.478 6.32226 13.2889C6.44862 13.0998 6.51607 12.8774 6.51607 12.65C6.51607 12.345 6.39491 12.0525 6.17924 11.8368C5.96357 11.6212 5.67106 11.5 5.36607 11.5ZM5.36607 13.0333C5.29025 13.0333 5.21614 13.0109 5.1531 12.9687C5.09006 12.9266 5.04093 12.8667 5.01191 12.7967C4.9829 12.7267 4.97531 12.6496 4.9901 12.5752C5.00489 12.5009 5.0414 12.4326 5.09501 12.3789C5.14862 12.3253 5.21692 12.2888 5.29128 12.274C5.36564 12.2592 5.44272 12.2668 5.51276 12.2958C5.58281 12.3249 5.64267 12.374 5.6848 12.437C5.72692 12.5001 5.7494 12.5742 5.7494 12.65C5.7494 12.7517 5.70901 12.8492 5.63712 12.9211C5.56523 12.9929 5.46773 13.0333 5.36607 13.0333ZM18.3994 11.5C18.172 11.5 17.9496 11.5674 17.7605 11.6938C17.5714 11.8202 17.424 11.9998 17.3369 12.2099C17.2499 12.42 17.2271 12.6513 17.2715 12.8744C17.3159 13.0974 17.4254 13.3023 17.5862 13.4632C17.7471 13.624 17.952 13.7335 18.175 13.7779C18.3981 13.8223 18.6294 13.7995 18.8395 13.7125C19.0496 13.6254 19.2292 13.478 19.3556 13.2889C19.482 13.0998 19.5494 12.8774 19.5494 12.65C19.5494 12.345 19.4282 12.0525 19.2126 11.8368C18.9969 11.6212 18.7044 11.5 18.3994 11.5ZM18.3994 13.0333C18.3236 13.0333 18.2495 13.0109 18.1864 12.9687C18.1234 12.9266 18.0743 12.8667 18.0452 12.7967C18.0162 12.7267 18.0086 12.6496 18.0234 12.5752C18.0382 12.5009 18.0747 12.4326 18.1283 12.3789C18.182 12.3253 18.2503 12.2888 18.3246 12.274C18.399 12.2592 18.4761 12.2668 18.5461 12.2958C18.6161 12.3249 18.676 12.374 18.7181 12.437C18.7603 12.5001 18.7827 12.5742 18.7827 12.65C18.7827 12.7517 18.7423 12.8492 18.6705 12.9211C18.5986 12.9929 18.5011 13.0333 18.3994 13.0333Z" fill="white"/>
<path d="M22.6167 11.1167V8.05C22.6164 7.99242 22.6032 7.93564 22.5779 7.88388C22.5527 7.83211 22.5162 7.7867 22.471 7.751L20.5543 6.21767C20.4872 6.16292 20.4033 6.13312 20.3167 6.13333H19.8643L19.0363 1.8975C18.942 1.46991 18.705 1.08711 18.3644 0.811956C18.0238 0.536804 17.5997 0.385657 17.1618 0.383333H14.95C14.95 0.281667 14.9096 0.184165 14.8377 0.112276C14.7658 0.0403869 14.6683 0 14.5667 0H0.383333C0.281667 0 0.184165 0.0403869 0.112276 0.112276C0.0403868 0.184165 0 0.281667 0 0.383333V11.5C0 11.6017 0.0403868 11.6992 0.112276 11.7711C0.184165 11.8429 0.281667 11.8833 0.383333 11.8833H1.15V12.65C1.15 12.7517 1.19039 12.8492 1.26228 12.9211C1.33416 12.9929 1.43167 13.0333 1.53333 13.0333H2.714C2.80566 13.6715 3.12432 14.2553 3.61155 14.6775C4.09879 15.0998 4.72192 15.3322 5.36667 15.3322C6.01141 15.3322 6.63455 15.0998 7.12178 14.6775C7.60901 14.2553 7.92768 13.6715 8.01933 13.0333H15.7473C15.839 13.6715 16.1577 14.2553 16.6449 14.6775C17.1321 15.0998 17.7553 15.3322 18.4 15.3322C19.0447 15.3322 19.6679 15.0998 20.1551 14.6775C20.6423 14.2553 20.961 13.6715 21.0527 13.0333H22.6167C22.7183 13.0333 22.8158 12.9929 22.8877 12.9211C22.9596 12.8492 23 12.7517 23 12.65V11.5C23 11.3983 22.9596 11.3008 22.8877 11.2289C22.8158 11.1571 22.7183 11.1167 22.6167 11.1167ZM14.95 1.15H17.1618C17.4233 1.15114 17.6767 1.24081 17.8806 1.4044C18.0846 1.56799 18.2271 1.79585 18.285 2.05083L19.0862 6.13333H14.95V1.15ZM2.714 12.2667H1.91667V11.8833H2.7945C2.75958 12.0093 2.73269 12.1373 2.714 12.2667ZM5.36667 14.5667C4.98759 14.5667 4.61702 14.4543 4.30182 14.2436C3.98663 14.033 3.74097 13.7337 3.5959 13.3835C3.45083 13.0332 3.41287 12.6479 3.48683 12.2761C3.56078 11.9043 3.74333 11.5628 4.01138 11.2947C4.27943 11.0267 4.62095 10.8441 4.99274 10.7702C5.36454 10.6962 5.74992 10.7342 6.10014 10.8792C6.45037 11.0243 6.74971 11.27 6.96032 11.5852C7.17092 11.9003 7.28333 12.2709 7.28333 12.65C7.28333 13.1583 7.0814 13.6458 6.72195 14.0053C6.36251 14.3647 5.875 14.5667 5.36667 14.5667ZM5.36667 9.96667C4.93446 9.96727 4.50877 10.0721 4.12573 10.2723C3.74268 10.4725 3.41357 10.7622 3.16633 11.1167H0.766667V0.766667H14.1833V11.1167H7.567C7.31976 10.7622 6.99065 10.4725 6.60761 10.2723C6.22456 10.0721 5.79887 9.96727 5.36667 9.96667ZM15.7473 12.2667H8.01933C8.00064 12.1373 7.97375 12.0093 7.93883 11.8833H15.8317C15.7922 12.0084 15.764 12.1366 15.7473 12.2667ZM18.4 14.5667C17.8917 14.5667 17.4042 14.3647 17.0447 14.0053C16.6853 13.6458 16.4833 13.1583 16.4833 12.65C16.4815 12.3145 16.5703 11.9848 16.7402 11.6955C16.7402 11.6917 16.7402 11.6917 16.744 11.6917C16.9113 11.4004 17.1525 11.1583 17.4433 10.9901C17.7341 10.8218 18.0641 10.7331 18.4 10.7331C18.7359 10.7331 19.0659 10.8218 19.3567 10.9901C19.6475 11.1583 19.8887 11.4004 20.056 11.6917C20.0598 11.6917 20.0598 11.6917 20.0598 11.6955C20.2297 11.9848 20.3185 12.3145 20.3167 12.65C20.3167 13.1583 20.1147 13.6458 19.7553 14.0053C19.3958 14.3647 18.9083 14.5667 18.4 14.5667ZM18.4 9.96667C17.9679 9.96794 17.5425 10.0731 17.1595 10.2732C16.7766 10.4734 16.4474 10.7626 16.1997 11.1167H14.95V6.9H20.1825L21.85 8.234V11.1167H20.6003C20.3526 10.7626 20.0234 10.4734 19.6405 10.2732C19.2575 10.0731 18.8321 9.96794 18.4 9.96667ZM22.2333 12.2667H21.0527C21.036 12.1366 21.0078 12.0084 20.9683 11.8833H22.2333V12.2667Z" fill="white"/>
<path d="M6.51737 5.75081H13.034C13.1357 5.75081 13.2332 5.71043 13.3051 5.63854C13.377 5.56665 13.4174 5.46915 13.4174 5.36748V2.30081C13.4174 2.19915 13.377 2.10164 13.3051 2.02976C13.2332 1.95787 13.1357 1.91748 13.034 1.91748H6.51737C6.4157 1.91748 6.3182 1.95787 6.24631 2.02976C6.17442 2.10164 6.13403 2.19915 6.13403 2.30081V5.36748C6.13403 5.46915 6.17442 5.56665 6.24631 5.63854C6.3182 5.71043 6.4157 5.75081 6.51737 5.75081ZM6.9007 2.68415H12.6507V4.98415H6.9007V2.68415Z" fill="white"/>
<path d="M4.98415 1.91748H1.91748V2.68415H4.98415V1.91748Z" fill="white"/>
<path d="M4.98262 3.45068H2.68262V4.21735H4.98262V3.45068Z" fill="white"/>
<path d="M4.98402 4.9834H3.45068V5.75007H4.98402V4.9834Z" fill="white"/>
</svg>
