<svg width="25" height="24" viewBox="0 0 25 24" fill="none" xmlns="http://www.w3.org/2000/svg">
<path d="M18.125 0C15.9375 0 13.8751 1.00613 12.5 2.64105C11.1248 1.00613 9.0625 0 6.875 0C2.99988 0 0 3.01809 0 6.91677C0 11.6954 4.24988 15.5314 10.6873 21.4416L12.5 23.0769L14.3127 21.4416C20.7501 15.5314 25 11.6953 25 6.91677C25 3.01809 22.0001 0 18.125 0ZM13.2714 19.7871L13.0178 20.0198L12.5 20.487L11.9822 20.0199L11.729 19.7874C8.69904 17.006 6.08227 14.6038 4.3524 12.456C2.6723 10.3699 1.92308 8.66154 1.92308 6.91677C1.92308 5.54267 2.42921 4.27668 3.34826 3.3521C4.26424 2.43059 5.51671 1.92308 6.875 1.92308C8.44555 1.92308 9.9982 2.65427 11.0282 3.87891L12.5 5.62867L13.9717 3.87891C15.0018 2.65427 16.5544 1.92308 18.125 1.92308C19.4834 1.92308 20.7358 2.43059 21.6518 3.35204C22.5708 4.27668 23.0769 5.54261 23.0769 6.91677C23.0769 8.66154 22.3277 10.3698 20.6477 12.4559C18.9179 14.6037 16.3013 17.0057 13.2714 19.7871Z" fill="black"/>
</svg>
