<svg width="40" height="52" viewBox="0 0 40 52" fill="none" xmlns="http://www.w3.org/2000/svg">
<path d="M22.8711 38.3159V46.7045H21.7879V38.3159H22.8711ZM16.1744 46.7045V38.3159H17.2576V46.7045H16.1744Z" fill="black"/>
<path d="M10.4985 46.1616H28.5467C29.3489 46.1616 30.0776 46.4895 30.6052 47.017C31.1332 47.545 31.4606 48.2737 31.4606 49.0755V51.4482C31.4606 51.7475 31.2178 51.9898 30.919 51.9898H8.12482C7.8255 51.9898 7.58325 51.7471 7.58325 51.4482V49.0755C7.58325 48.2733 7.91109 47.5446 8.43865 47.017C8.96668 46.489 9.69534 46.1616 10.4971 46.1616H10.4985ZM28.5467 47.2448H10.4985C9.99566 47.2448 9.53774 47.4508 9.20558 47.7829C8.87339 48.1151 8.66739 48.5726 8.66739 49.0759V50.9071H30.3784V49.0759C30.3784 48.573 30.1724 48.1151 29.8402 47.7829C29.5081 47.4508 29.0506 47.2448 28.5473 47.2448H28.5467Z" fill="black"/>
<path fill-rule="evenodd" clip-rule="evenodd" d="M19.5226 48.2632C19.9713 48.2632 20.3349 48.6268 20.3349 49.0755C20.3349 49.5243 19.9713 49.8879 19.5226 49.8879C19.0738 49.8879 18.7102 49.5243 18.7102 49.0755C18.7102 48.6268 19.0738 48.2632 19.5226 48.2632Z" fill="black"/>
<path d="M19.5226 15.6465C20.5927 15.6465 21.5618 16.0802 22.2634 16.7818C22.9645 17.483 23.3987 18.452 23.3987 19.5226C23.3987 20.5927 22.965 21.5618 22.2634 22.2629C21.5622 22.964 20.5932 23.3983 19.5226 23.3983C18.4525 23.3983 17.4835 22.9645 16.7823 22.2629C16.0812 21.5618 15.647 20.5928 15.647 19.5226C15.647 18.4525 16.0807 17.4835 16.7823 16.7823C17.4835 16.0812 18.4525 15.647 19.5226 15.647V15.6465ZM21.4974 17.5472C20.9921 17.0419 20.2938 16.7296 19.5226 16.7296C18.7514 16.7296 18.0531 17.0419 17.5478 17.5472C17.0425 18.0525 16.7302 18.7508 16.7302 19.522C16.7302 20.2933 17.0425 20.9915 17.5478 21.4968C18.0531 22.0021 18.7514 22.3145 19.5226 22.3145C20.2938 22.3145 20.9921 22.0021 21.4974 21.4968C22.0027 20.9915 22.3151 20.2932 22.3151 19.522C22.3151 18.7508 22.0027 18.0525 21.4974 17.5472Z" fill="black"/>
<path d="M17.1224 16.9289C17.0335 16.8158 16.9179 16.6775 16.7806 16.5135C15.7163 15.2399 13.4446 12.5219 13.0873 9.50074C12.9804 8.59844 13.0307 7.6672 13.3252 6.82582C13.5887 6.07391 14.0427 5.40128 14.7472 4.89066C16.0896 3.91776 18.2099 3.45262 20.2737 3.77271C22.0392 4.04639 23.7745 4.88873 24.968 6.4709C26.055 7.9124 25.1798 9.01436 24.0492 10.4374C22.9226 11.8561 21.4865 13.6641 22.0556 16.5199L20.9938 16.7317C20.3265 13.3866 21.9386 11.3571 23.2031 9.76486C24.0397 8.71123 24.6876 7.89543 24.1045 7.12275C23.0968 5.78671 21.6181 5.07296 20.1085 4.8395C18.3227 4.5629 16.51 4.94926 15.3813 5.76742C14.8687 6.13878 14.5375 6.63103 14.3441 7.1823C14.1091 7.85347 14.0719 8.61985 14.1608 9.3747C14.4804 12.0772 16.6104 14.6265 17.6089 15.8208C17.7564 15.9973 17.8811 16.1467 17.9716 16.2613L17.121 16.93L17.1224 16.9289Z" fill="black"/>
<path d="M19.5226 0C24.9137 0 29.7945 2.18509 33.3274 5.71786C36.8601 9.25062 39.0452 14.1315 39.0452 19.5226C39.0452 24.9137 36.8601 29.7945 33.3274 33.3274C29.7946 36.8601 24.9137 39.0452 19.5226 39.0452C14.1315 39.0452 9.25074 36.8601 5.71785 33.3274C2.18509 29.7946 0 24.9137 0 19.5226C0 14.1315 2.18509 9.25074 5.71785 5.71786C9.25062 2.18509 14.1315 0 19.5226 0ZM32.5611 6.48385C29.2242 3.14692 24.6146 1.08314 19.5226 1.08314C14.4306 1.08314 9.82078 3.14692 6.4841 6.48385C3.14717 9.82078 1.08339 14.4304 1.08339 19.5224C1.08339 24.6146 3.14717 29.2242 6.4841 32.5609C9.82103 35.8975 14.4306 37.9616 19.5226 37.9616C24.6146 37.9616 29.2244 35.8978 32.5611 32.5609C35.8978 29.2239 37.9618 24.6143 37.9618 19.5224C37.9618 14.4301 35.898 9.82053 32.5611 6.48385Z" fill="black"/>
<path d="M22.116 17.1218C22.2292 17.0329 22.3674 16.9168 22.5314 16.78C23.805 15.7157 26.5235 13.444 29.5442 13.0866C30.4465 12.9798 31.3777 13.0301 32.2191 13.3245C32.971 13.5881 33.6436 14.0421 34.1542 14.7466C35.1271 16.089 35.5923 18.2093 35.2722 20.2731C34.9985 22.0386 34.1562 23.7739 32.574 24.9674C31.1325 26.0544 30.0305 25.1791 28.6075 24.0486C27.1888 22.922 25.3804 21.4859 22.525 22.055L22.3132 20.9932C25.6583 20.3259 27.6878 21.938 29.28 23.2025C30.3337 24.0391 31.1495 24.687 31.9222 24.1038C33.2582 23.0961 33.9719 21.6175 34.2054 20.1079C34.482 18.3221 34.0956 16.5094 33.2775 15.3807C32.9061 14.8681 32.4139 14.5369 31.8626 14.3435C31.1919 14.1085 30.4251 14.0712 29.6702 14.1607C26.9677 14.4803 24.4189 16.6103 23.2241 17.6084C23.0471 17.7564 22.8982 17.8806 22.7831 17.9716L22.1144 17.121L22.116 17.1218Z" fill="black"/>
<path d="M21.9228 22.1159C22.0118 22.229 22.1278 22.3673 22.2646 22.5312C23.3289 23.8049 25.6006 26.5234 25.958 29.544C26.0648 30.4463 26.0145 31.3776 25.7201 32.219C25.4565 32.9709 25.0025 33.6435 24.298 34.1541C22.9556 35.127 20.8353 35.5922 18.7715 35.2721C17.0061 34.9984 15.2707 34.1561 14.0772 32.5739C12.9902 31.1324 13.8655 30.0304 14.996 28.6074C16.1226 27.1886 17.5587 25.3802 16.9896 22.5248L18.0514 22.313C18.7187 25.6582 17.1066 27.6876 15.8421 29.2799C15.0055 30.3336 14.3576 31.1494 14.9408 31.922C15.9485 33.2581 17.4272 33.9718 18.9367 34.2053C20.7225 34.4819 22.5352 34.0955 23.6639 33.2774C24.1765 32.906 24.5077 32.4138 24.7006 31.8625C24.9356 31.1913 24.9729 30.4249 24.8839 29.6701C24.5643 26.9676 22.4343 24.4188 21.4362 23.224C21.2882 23.047 21.164 22.8981 21.073 22.783L21.9236 22.1143L21.9228 22.1159Z" fill="black"/>
<path d="M16.9294 21.9242C16.8162 22.0137 16.678 22.1293 16.514 22.2661C15.2399 23.3309 12.5224 25.6021 9.50123 25.9594C8.59893 26.0663 7.66769 26.016 6.82631 25.7215C6.0744 25.458 5.40177 25.0039 4.89115 24.2994C3.91825 22.9571 3.45311 20.8367 3.7732 18.773C4.04688 17.0075 4.88921 15.2721 6.47139 14.0787C7.91289 12.9917 9.01484 13.8669 10.4379 14.9974C11.8566 16.1241 13.6645 17.5602 16.5204 16.991L16.7322 18.0529C13.3871 18.7202 11.3576 17.1085 9.76535 15.8435C8.71171 15.007 7.89592 14.3591 7.12324 14.9422C5.7872 15.9499 5.07345 17.4286 4.83998 18.9382C4.56339 20.724 4.94975 22.5367 5.7679 23.6654C6.13927 24.1779 6.63152 24.5092 7.18279 24.7021C7.85395 24.9371 8.62033 24.9743 9.37519 24.8854C12.0777 24.5658 14.6265 22.4357 15.8208 21.4376C15.9978 21.2897 16.1467 21.1649 16.2618 21.0745L16.9305 21.9251L16.9294 21.9242Z" fill="black"/>
</svg>
