<svg width="25" height="25" viewBox="0 0 25 25" fill="none" xmlns="http://www.w3.org/2000/svg">
<g clip-path="url(#clip0_19_1661)">
<path d="M21.875 6.25H18.75C18.3188 6.25 17.9688 6.6 17.9688 7.03125C17.9688 7.4625 18.3188 7.8125 18.75 7.8125H21.875C22.3055 7.8125 22.6562 8.16328 22.6562 8.59375V10.1562C22.6562 10.5867 22.3055 10.9375 21.875 10.9375H3.125C2.69453 10.9375 2.34375 10.5867 2.34375 10.1562V8.59375C2.34375 8.16328 2.69453 7.8125 3.125 7.8125H6.25C6.68125 7.8125 7.03125 7.4625 7.03125 7.03125C7.03125 6.6 6.68125 6.25 6.25 6.25H3.125C1.83281 6.25 0.78125 7.30156 0.78125 8.59375V10.1562C0.78125 11.2031 1.47578 12.0812 2.425 12.3812L3.70625 21.9914C3.87266 23.2406 4.98984 24.2188 6.25 24.2188H18.75C20.0102 24.2188 21.1273 23.2406 21.293 21.9922L22.5742 12.3812C23.5242 12.0812 24.2188 11.2031 24.2188 10.1562V8.59375C24.2188 7.30156 23.1672 6.25 21.875 6.25ZM19.7445 21.7859C19.6828 22.2492 19.218 22.6562 18.75 22.6562H6.25C5.78203 22.6562 5.31719 22.2492 5.25547 21.7852L4.01719 12.5H20.9828L19.7445 21.7859Z" fill="white"/>
<path d="M7.5218 10.1008C7.61711 10.1383 7.71555 10.1562 7.81242 10.1562C8.12258 10.1562 8.41555 9.97031 8.5382 9.66484L11.6632 1.85234C11.8234 1.45156 11.6288 0.996873 11.228 0.836717C10.8249 0.677342 10.3726 0.871092 10.2124 1.27187L7.08742 9.08437C6.92648 9.48594 7.1218 9.93984 7.5218 10.1008ZM16.4616 9.66562C16.5843 9.97031 16.878 10.1562 17.1874 10.1562C17.2843 10.1562 17.382 10.1383 17.4773 10.1C17.878 9.93906 18.0726 9.48515 17.9124 9.08437L14.7874 1.27187C14.6273 0.871873 14.1734 0.678904 13.7718 0.836717C13.371 0.997654 13.1765 1.45156 13.3366 1.85234L16.4616 9.66562ZM12.4999 20.3125C12.9312 20.3125 13.2812 19.9625 13.2812 19.5312V15.625C13.2812 15.1937 12.9312 14.8437 12.4999 14.8437C12.0687 14.8437 11.7187 15.1937 11.7187 15.625V19.5312C11.7187 19.9625 12.0687 20.3125 12.4999 20.3125ZM16.4062 20.3125C16.8374 20.3125 17.1874 19.9625 17.1874 19.5312V15.625C17.1874 15.1937 16.8374 14.8437 16.4062 14.8437C15.9749 14.8437 15.6249 15.1937 15.6249 15.625V19.5312C15.6249 19.9625 15.9749 20.3125 16.4062 20.3125ZM8.59367 20.3125C9.02492 20.3125 9.37492 19.9625 9.37492 19.5312V15.625C9.37492 15.1937 9.02492 14.8437 8.59367 14.8437C8.16242 14.8437 7.81242 15.1937 7.81242 15.625V19.5312C7.81242 19.9625 8.16242 20.3125 8.59367 20.3125Z" fill="white"/>
</g>
<defs>
<clipPath id="clip0_19_1661">
<rect width="25" height="25" fill="white"/>
</clipPath>
</defs>
</svg>
