<svg width="30" height="22" viewBox="0 0 30 22" fill="none" xmlns="http://www.w3.org/2000/svg">
<path d="M3 8.54662H1.99543V10.2609H3V17.2325H7.18543C7.56343 18.6236 8.83414 19.6509 10.3431 19.6509C11.8521 19.6509 13.1229 18.6236 13.5013 17.2325H21.771C22.149 18.6236 23.4197 19.6509 24.9287 19.6509C26.4377 19.6509 27.7084 18.6236 28.0864 17.2325H30V8.89376L27.3741 3.64162H21.1881V0.576904H3V4.2609H0V5.97519H3V8.54662ZM10.3431 17.9366C9.48214 17.9366 8.78186 17.2363 8.78186 16.3753C8.78186 15.5143 9.48214 14.814 10.3431 14.814C11.2041 14.814 11.9044 15.5143 11.9044 16.3753C11.9044 17.2363 11.2041 17.9366 10.3431 17.9366ZM24.9287 17.9366C24.0677 17.9366 23.3674 17.2363 23.3674 16.3753C23.3674 15.5143 24.0677 14.814 24.9287 14.814C25.7893 14.814 26.49 15.5143 26.49 16.3753C26.49 17.2363 25.7893 17.9366 24.9287 17.9366ZM27.756 8.2389H24.4286V5.3559H26.3143L27.756 8.2389ZM22.7143 5.3559V9.95319H28.2857V15.5182H28.0864C27.7084 14.127 26.4377 13.0998 24.9287 13.0998C23.4197 13.0998 22.149 14.127 21.7706 15.5182H21.1886V5.3559H22.7143ZM4.71429 2.29119H19.4743V15.5182H13.5009C13.1224 14.127 11.8521 13.0998 10.3427 13.0998C8.83329 13.0998 7.563 14.127 7.185 15.5182H4.71429V10.2609H8.29029V8.54662H4.71429V5.97519H6.29486V4.2609H4.71429V2.29119ZM0.857143 19.7966H7.152V21.5109H0.857143V19.7966Z" fill="white"/>
</svg>
