<svg width="22" height="22" viewBox="0 0 22 22" fill="none" xmlns="http://www.w3.org/2000/svg">
<g clip-path="url(#clip0_15_37955)">
<path d="M14.0359 21.7675C13.3778 21.7356 12.7278 21.6086 12.1062 21.3904C11.6496 21.2275 11.1745 21.1219 10.6919 21.0761C10.2306 21.1001 9.77332 21.1739 9.3279 21.2961C8.39761 21.5224 7.33532 21.7801 6.34218 21.3338C5.34904 20.8875 4.8399 19.9258 4.3999 19.0772C4.20382 18.6587 3.95681 18.266 3.66447 17.9081C3.31883 17.5755 2.9323 17.2883 2.51418 17.0532C1.70961 16.5567 0.804466 15.9909 0.433609 15.0167C0.0627519 14.0424 0.339323 13.0115 0.628466 12.1127C0.785499 11.6511 0.884731 11.1718 0.923895 10.6858C0.906567 10.2239 0.832682 9.76577 0.703895 9.3218C0.477609 8.39152 0.219895 7.33552 0.666181 6.33609C1.17926 5.45536 1.97425 4.7733 2.92275 4.40009C3.34158 4.20205 3.73428 3.95291 4.0919 3.65838C4.42244 3.31333 4.70952 2.92914 4.94675 2.51438C5.44332 1.67838 6.00904 0.773233 6.98961 0.402376C7.97018 0.0315186 8.98847 0.339519 9.89361 0.628661C10.35 0.792169 10.8252 0.897755 11.3079 0.942947C11.7697 0.920084 12.2274 0.844156 12.6719 0.716661C13.6022 0.496661 14.6645 0.238947 15.6576 0.685233C16.5375 1.19244 17.2215 1.98049 17.5999 2.92295C17.796 3.34145 18.043 3.73414 18.3353 4.09209C18.6887 4.4264 19.0838 4.71372 19.5108 4.94695C20.3153 5.44352 21.2205 6.00923 21.5913 6.98352C21.9622 7.9578 21.6542 8.98866 21.3839 9.8938C21.221 10.3504 21.1155 10.8255 21.0696 11.3081C21.0869 11.77 21.1608 12.2281 21.2896 12.6721C21.5159 13.6024 21.7736 14.6584 21.3273 15.6578C20.881 16.6509 19.9193 17.1601 19.0708 17.6064C18.6512 17.804 18.2566 18.0509 17.8953 18.3418C17.5653 18.6973 17.2803 19.0921 17.0468 19.5172C16.5502 20.3218 15.9845 21.2269 15.0102 21.5978C14.6987 21.7141 14.3684 21.7716 14.0359 21.7675ZM10.6353 19.4858H10.7359C11.3574 19.5313 11.9702 19.6581 12.5588 19.8629C13.1537 20.1293 13.8133 20.2167 14.457 20.1144C14.9348 19.9384 15.3119 19.3224 15.7142 18.6749C16.0206 18.1333 16.3944 17.6328 16.8268 17.1852C17.288 16.7954 17.7971 16.4658 18.3416 16.2047C18.9715 15.9696 19.5151 15.5487 19.9005 14.9978C20.0576 14.3438 20.0116 13.6575 19.7685 13.0304C19.5981 12.4563 19.503 11.8626 19.4856 11.2641C19.5311 10.6426 19.6579 10.0298 19.8628 9.44123C20.1291 8.84631 20.2165 8.1867 20.1142 7.54295C19.9319 7.06523 19.3222 6.68809 18.6748 6.2858C18.1332 5.97941 17.6326 5.60557 17.185 5.17323C16.7996 4.71128 16.4743 4.20226 16.217 3.65838C15.9799 3.02967 15.5594 2.48662 15.0102 2.09952C14.3566 1.94276 13.671 1.98657 13.0428 2.22523C12.4666 2.40605 11.8676 2.50342 11.2639 2.51438C10.6375 2.46274 10.0205 2.32961 9.42847 2.11838C8.83589 1.8591 8.18057 1.77827 7.54275 1.8858C7.06504 2.06809 6.6879 2.6778 6.28561 3.32523C5.97833 3.86243 5.60452 4.35872 5.17304 4.80238C4.71179 5.19225 4.20274 5.52176 3.65818 5.78295C3.02947 6.02013 2.48643 6.44055 2.09932 6.9898C1.94257 7.64335 1.98638 8.32896 2.22504 8.95723C2.40238 9.53416 2.49967 10.1327 2.51418 10.7361C2.46254 11.3625 2.32942 11.9795 2.11818 12.5715C1.8589 13.1641 1.77808 13.8194 1.88561 14.4572C2.0679 14.9349 2.67761 15.3121 3.32504 15.7144C3.86664 16.0208 4.36721 16.3946 4.81475 16.8269C5.20022 17.2889 5.52549 17.7979 5.78275 18.3418C6.01993 18.9705 6.44036 19.5136 6.98961 19.9007C7.64384 20.0546 8.32924 20.0086 8.95704 19.7687C9.5034 19.6087 10.0667 19.5138 10.6353 19.4858Z" fill="white"/>
<path d="M9.80567 13.9983C9.70451 13.9996 9.60411 13.9807 9.51026 13.943C9.4164 13.9052 9.33095 13.8493 9.25881 13.7783L6.99595 11.5595C6.92249 11.4877 6.86389 11.4021 6.8235 11.3076C6.78311 11.2132 6.76172 11.1117 6.76055 11.009C6.75938 10.9062 6.77846 10.8043 6.81669 10.7089C6.85493 10.6136 6.91157 10.5267 6.98338 10.4532C7.0552 10.3797 7.14078 10.3211 7.23524 10.2807C7.3297 10.2404 7.43119 10.219 7.53392 10.2178C7.63665 10.2166 7.7386 10.2357 7.83396 10.2739C7.92931 10.3122 8.0162 10.3688 8.08967 10.4406L9.81195 12.1252L13.9165 8.21549C13.99 8.13839 14.0783 8.07702 14.1762 8.03511C14.2741 7.9932 14.3794 7.97162 14.4859 7.97168C14.5924 7.97174 14.6977 7.99344 14.7956 8.03547C14.8934 8.07749 14.9817 8.13897 15.055 8.21615C15.1284 8.29334 15.1853 8.38462 15.2222 8.48447C15.2592 8.58431 15.2755 8.69064 15.2702 8.79698C15.2648 8.90332 15.2379 9.00746 15.191 9.10308C15.1442 9.19869 15.0784 9.28379 14.9977 9.3532L10.3462 13.7532C10.2767 13.8277 10.1932 13.8876 10.1004 13.9297C10.0076 13.9718 9.90748 13.9951 9.80567 13.9983Z" fill="white"/>
</g>
<defs>
<clipPath id="clip0_15_37955">
<rect width="22" height="22" fill="white"/>
</clipPath>
</defs>
</svg>
