<svg width="23" height="49" viewBox="0 0 23 49" fill="none" xmlns="http://www.w3.org/2000/svg">
<path d="M10.1442 5.04624C10.1442 3.93243 9.23819 3.02637 8.12436 3.02637C7.01056 3.02637 6.10449 3.93241 6.10449 5.04624C6.10449 6.16007 7.01054 7.06611 8.12436 7.06611C9.23817 7.06611 10.1442 6.15964 10.1442 5.04624ZM7.31503 5.04624C7.31503 4.59997 7.67813 4.23687 8.1244 4.23687C8.57066 4.23687 8.93376 4.59997 8.93376 5.04624C8.93376 5.49251 8.57066 5.8556 8.1244 5.8556C7.67813 5.85518 7.31503 5.49251 7.31503 5.04624Z" fill="black"/>
<path d="M12.4482 5.6518H13.014C13.3484 5.6518 13.6194 5.38075 13.6194 5.04636C13.6194 4.71197 13.3484 4.44092 13.014 4.44092H12.4482C12.1138 4.44092 11.8428 4.71197 11.8428 5.04636C11.8432 5.38117 12.1142 5.6518 12.4482 5.6518Z" fill="black"/>
<path d="M15.6053 8.5918H7.39475C7.06036 8.5918 6.78931 8.86285 6.78931 9.19724V37.9346C6.78931 38.269 7.06036 38.54 7.39475 38.54H15.6053C15.9397 38.54 16.2108 38.269 16.2108 37.9346L16.2104 9.19724C16.2104 8.86285 15.9393 8.5918 15.6053 8.5918ZM8.8421 37.3291H7.9998V9.80234H8.8421V37.3291ZM10.8944 37.3291H10.0525V9.80234H10.8944V37.3291ZM12.9471 37.3291H12.1053V9.80234H12.9471V37.3291ZM14.9999 37.3291H14.1576V9.80234H14.9999V37.3291Z" fill="black"/>
<path d="M22.4093 44.088C22.3624 43.7946 22.1091 43.5788 21.8119 43.5788H21.1845V42.6247C21.1845 42.4419 21.1018 42.2687 20.9595 42.1539L19.3686 40.8687V3.02635C19.3686 1.35775 18.0108 0 16.3422 0H6.6577C4.98911 0 3.63136 1.35775 3.63136 3.02635V40.8687L2.04047 42.1539C1.89819 42.2692 1.81544 42.4419 1.81544 42.6251V43.5788H1.18804C0.890811 43.5788 0.637484 43.7946 0.59063 44.088L0.00757098 47.7199C-0.0202941 47.8951 0.029526 48.0737 0.144363 48.2083C0.259202 48.3434 0.42766 48.4211 0.604983 48.4211H4.23682C4.41456 48.4211 4.58386 48.343 4.6987 48.2071C4.81354 48.0711 4.86294 47.8917 4.83381 47.716L4.22837 44.0842C4.17981 43.7929 3.92733 43.5788 3.63137 43.5788H3.02593V42.9139L4.45091 41.763H18.5494L19.9735 42.9139V43.5788H19.368C19.0721 43.5788 18.8196 43.7929 18.7711 44.0846L18.1656 47.7165C18.1365 47.8921 18.1859 48.0716 18.3007 48.2075C18.416 48.343 18.5853 48.4211 18.763 48.4211H22.3949C22.5722 48.4211 22.7406 48.3434 22.8555 48.2083C22.9703 48.0737 23.0206 47.8951 22.9923 47.7199L22.4093 44.088ZM3.1185 44.7893L3.5217 47.2102H1.31485L1.70328 44.7893H3.1185ZM18.1573 40.5525H4.84136V3.02579C4.84136 2.02432 5.65579 1.20987 6.65727 1.20987H16.3418C17.3433 1.20987 18.1577 2.0243 18.1577 3.02579L18.1573 40.5525ZM19.4771 47.2107L19.8803 44.7898H21.2951L21.6836 47.2107H19.4771Z" fill="black"/>
</svg>
