<svg width="34" height="34" viewBox="0 0 34 34" fill="none" xmlns="http://www.w3.org/2000/svg">
<circle cx="17" cy="17" r="17" fill="#006FAC"/>
<path d="M21.272 11.768C21.0821 11.768 20.8965 11.8243 20.7387 11.9298C20.5808 12.0353 20.4577 12.1852 20.3851 12.3606C20.3124 12.536 20.2934 12.7291 20.3304 12.9153C20.3675 13.1015 20.4589 13.2726 20.5932 13.4068C20.7274 13.5411 20.8985 13.6325 21.0847 13.6696C21.2709 13.7066 21.464 13.6876 21.6394 13.6149C21.8148 13.5423 21.9647 13.4192 22.0702 13.2613C22.1757 13.1035 22.232 12.9179 22.232 12.728C22.232 12.4734 22.1309 12.2292 21.9508 12.0492C21.7708 11.8691 21.5266 11.768 21.272 11.768ZM24.952 13.704C24.9364 13.0402 24.8121 12.3835 24.584 11.76C24.3806 11.2265 24.064 10.7434 23.656 10.344C23.2599 9.93394 22.7756 9.61934 22.24 9.424C21.6181 9.18893 20.9607 9.06177 20.296 9.048C19.448 9 19.176 9 17 9C14.824 9 14.552 9 13.704 9.048C13.0393 9.06177 12.3819 9.18893 11.76 9.424C11.2253 9.62132 10.7415 9.93565 10.344 10.344C9.93394 10.7401 9.61934 11.2244 9.424 11.76C9.18893 12.3819 9.06177 13.0393 9.048 13.704C9 14.552 9 14.824 9 17C9 19.176 9 19.448 9.048 20.296C9.06177 20.9607 9.18893 21.6181 9.424 22.24C9.61934 22.7756 9.93394 23.2599 10.344 23.656C10.7415 24.0644 11.2253 24.3787 11.76 24.576C12.3819 24.8111 13.0393 24.9382 13.704 24.952C14.552 25 14.824 25 17 25C19.176 25 19.448 25 20.296 24.952C20.9607 24.9382 21.6181 24.8111 22.24 24.576C22.7756 24.3807 23.2599 24.0661 23.656 23.656C24.0658 23.2581 24.3827 22.7746 24.584 22.24C24.8121 21.6165 24.9364 20.9598 24.952 20.296C24.952 19.448 25 19.176 25 17C25 14.824 25 14.552 24.952 13.704ZM23.512 20.2C23.5062 20.7078 23.4142 21.211 23.24 21.688C23.1123 22.0362 22.9071 22.3507 22.64 22.608C22.3805 22.8724 22.0666 23.0771 21.72 23.208C21.243 23.3822 20.7398 23.4742 20.232 23.48C19.432 23.52 19.136 23.528 17.032 23.528C14.928 23.528 14.632 23.528 13.832 23.48C13.3047 23.4899 12.7797 23.4087 12.28 23.24C11.9486 23.1025 11.6491 22.8982 11.4 22.64C11.1345 22.383 10.9319 22.0682 10.808 21.72C10.6127 21.2361 10.5044 20.7216 10.488 20.2C10.488 19.4 10.44 19.104 10.44 17C10.44 14.896 10.44 14.6 10.488 13.8C10.4916 13.2808 10.5864 12.7664 10.768 12.28C10.9088 11.9423 11.125 11.6413 11.4 11.4C11.6431 11.1249 11.9434 10.9065 12.28 10.76C12.7676 10.584 13.2816 10.4921 13.8 10.488C14.6 10.488 14.896 10.44 17 10.44C19.104 10.44 19.4 10.44 20.2 10.488C20.7078 10.4938 21.211 10.5858 21.688 10.76C22.0515 10.8949 22.3778 11.1143 22.64 11.4C22.9022 11.6457 23.107 11.9462 23.24 12.28C23.4178 12.7671 23.5098 13.2814 23.512 13.8C23.552 14.6 23.56 14.896 23.56 17C23.56 19.104 23.552 19.4 23.512 20.2ZM17 12.896C16.1886 12.8976 15.396 13.1396 14.7221 13.5915C14.0483 14.0434 13.5235 14.685 13.2141 15.435C12.9047 16.185 12.8246 17.01 12.9838 17.8055C13.1431 18.6011 13.5346 19.3316 14.1089 19.9048C14.6831 20.4779 15.4144 20.868 16.2103 21.0257C17.0062 21.1834 17.8309 21.1017 18.5804 20.7908C19.3298 20.48 19.9703 19.954 20.4209 19.2792C20.8715 18.6045 21.112 17.8114 21.112 17C21.1131 16.4601 21.0074 15.9253 20.801 15.4264C20.5946 14.9274 20.2916 14.4742 19.9095 14.0928C19.5273 13.7114 19.0736 13.4093 18.5742 13.2039C18.0749 12.9985 17.5399 12.8939 17 12.896ZM17 19.664C16.4731 19.664 15.9581 19.5078 15.52 19.215C15.0819 18.9223 14.7404 18.5063 14.5388 18.0195C14.3372 17.5327 14.2844 16.997 14.3872 16.4803C14.49 15.9635 14.7437 15.4888 15.1163 15.1163C15.4888 14.7437 15.9635 14.49 16.4803 14.3872C16.997 14.2844 17.5327 14.3372 18.0195 14.5388C18.5063 14.7404 18.9223 15.0819 19.215 15.52C19.5078 15.9581 19.664 16.4731 19.664 17C19.664 17.3498 19.5951 17.6963 19.4612 18.0195C19.3273 18.3427 19.1311 18.6364 18.8837 18.8837C18.6364 19.1311 18.3427 19.3273 18.0195 19.4612C17.6963 19.5951 17.3498 19.664 17 19.664Z" fill="white"/>
</svg>
