<svg width="54" height="44" viewBox="0 0 54 44" fill="none" xmlns="http://www.w3.org/2000/svg">
<path d="M7.67358 11.0259H46.667V14.6032H7.67358V11.0259Z" stroke="black" stroke-width="1.2" stroke-miterlimit="10" stroke-linecap="round" stroke-linejoin="round"/>
<path d="M27.1699 11.026H7.67358C7.67358 11.026 13.2986 6.33936 27.1699 6.33936C41.0412 6.33936 46.6663 11.026 46.6663 11.026H27.1699Z" stroke="black" stroke-width="1.2" stroke-miterlimit="10" stroke-linecap="round" stroke-linejoin="round"/>
<path d="M26.0732 4.33691H28.2663V6.33895H26.0732V4.33691Z" fill="black" stroke="black" stroke-width="1.2" stroke-miterlimit="10" stroke-linecap="round" stroke-linejoin="round"/>
<path d="M23.5946 1H30.3636V4.33685H23.5946V1Z" stroke="black" stroke-width="1.2" stroke-miterlimit="10" stroke-linecap="round" stroke-linejoin="round"/>
<path d="M46.6663 14.6031V31.9532C46.6663 36.1657 43.2518 39.5802 39.0392 39.5802L15.3007 39.5797C11.0881 39.5797 7.67358 36.1652 7.67358 31.9526V14.6025L46.6663 14.6031Z" stroke="black" stroke-width="1.2" stroke-miterlimit="10" stroke-linecap="round" stroke-linejoin="round"/>
<path d="M7.6737 14.603H1V17.3983C1 17.3983 3.20896 17.2238 4.33685 18.3517C5.46474 19.4796 5.19497 21.1485 5.19497 21.1485H7.6737V14.603Z" stroke="black" stroke-width="1.2" stroke-miterlimit="10" stroke-linecap="round" stroke-linejoin="round"/>
<path d="M46.6663 14.603H53.34V17.3983C53.34 17.3983 51.131 17.2238 50.0031 18.3517C48.8752 19.4796 49.145 21.1485 49.145 21.1485H46.6663V14.603Z" stroke="black" stroke-width="1.2" stroke-miterlimit="10" stroke-linecap="round" stroke-linejoin="round"/>
<path d="M30.3001 26.9955C30.3001 25.2053 28.8487 23.7539 27.0585 23.7539C25.2683 23.7539 23.8169 25.2053 23.8169 26.9955V39.5802H30.3001L30.3001 26.9955Z" stroke="black" stroke-width="1.2" stroke-miterlimit="10" stroke-linecap="round" stroke-linejoin="round"/>
<path d="M23.8171 34.3052H30.2999" stroke="black" stroke-width="1.2" stroke-miterlimit="10" stroke-linecap="round" stroke-linejoin="round"/>
<path d="M25.5333 36.4658H28.5839V37.7373H25.5333V36.4658Z" fill="black" stroke="black" stroke-width="1.2" stroke-miterlimit="10" stroke-linecap="round" stroke-linejoin="round"/>
<path d="M15.046 42.5674H20.2587" stroke="black" stroke-width="1.2" stroke-miterlimit="10" stroke-linecap="round" stroke-linejoin="round"/>
<path d="M33.7964 42.5674H39.008" stroke="black" stroke-width="1.2" stroke-miterlimit="10" stroke-linecap="round" stroke-linejoin="round"/>
</svg>
