<svg width="41" height="45" viewBox="0 0 41 45" fill="none" xmlns="http://www.w3.org/2000/svg">
<path d="M4.98413 34.0226V29.0056C4.98413 28.6155 5.30246 28.2889 5.70264 28.2889H14.825C15.2161 28.2889 15.5435 28.6065 15.5435 29.0056V34.0226C15.5435 34.4127 15.2251 34.7393 14.825 34.7393H5.70264C5.30246 34.7393 4.98413 34.4127 4.98413 34.0226ZM6.42115 33.3059H14.1156V29.7224H6.42115V33.3059Z" fill="black"/>
<path d="M14.825 26.1025H5.70264C5.31155 26.1025 4.98413 25.785 4.98413 25.3858V18.491V11.5961V4.7013C4.98413 4.3112 5.30246 3.9846 5.70264 3.9846H14.825C15.2161 3.9846 15.5435 4.30213 15.5435 4.7013V11.5961V18.491V25.3858C15.5435 25.785 15.2251 26.1025 14.825 26.1025ZM6.42115 17.7743H14.1156V12.3038H6.42115V17.7743ZM6.42115 24.6782H14.1156V19.2077H6.42115V24.6782ZM14.1065 5.40893H6.42115V10.8794H14.1156V5.40893H14.1065Z" fill="black"/>
<path d="M8.47656 23.7891C8.08548 23.7891 7.75806 23.4715 7.75806 23.0724V20.8043C7.75806 20.4142 8.07638 20.0876 8.47656 20.0876C8.86765 20.0876 9.19507 20.4051 9.19507 20.8043V23.0724C9.18598 23.4715 8.86765 23.7891 8.47656 23.7891Z" fill="black"/>
<path d="M12.0509 23.7891C11.6598 23.7891 11.3324 23.4715 11.3324 23.0724V20.8043C11.3324 20.4142 11.6507 20.0876 12.0509 20.0876C12.442 20.0876 12.7694 20.4051 12.7694 20.8043V23.0724C12.7694 23.4715 12.4511 23.7891 12.0509 23.7891Z" fill="black"/>
<path d="M8.47656 16.8945C8.08548 16.8945 7.75806 16.577 7.75806 16.1778V13.9098C7.75806 13.5197 8.07638 13.1931 8.47656 13.1931C8.86765 13.1931 9.19507 13.5106 9.19507 13.9098V16.1778C9.18598 16.5679 8.86765 16.8945 8.47656 16.8945Z" fill="black"/>
<path d="M12.0509 16.8945C11.6598 16.8945 11.3324 16.577 11.3324 16.1778V13.9098C11.3324 13.5197 11.6507 13.1931 12.0509 13.1931C12.442 13.1931 12.7694 13.5106 12.7694 13.9098V16.1778C12.7694 16.5679 12.4511 16.8945 12.0509 16.8945Z" fill="black"/>
<path d="M8.47656 6.29807C8.86765 6.29807 9.19507 6.61559 9.19507 7.01477V9.28281C9.19507 9.67291 8.87675 9.99951 8.47656 9.99951C8.08548 9.99951 7.75806 9.68198 7.75806 9.28281V7.01477C7.75806 6.61559 8.07638 6.29807 8.47656 6.29807Z" fill="black"/>
<path d="M12.0509 6.29807C12.442 6.29807 12.7694 6.61559 12.7694 7.01477V9.28281C12.7694 9.67291 12.4511 9.99951 12.0509 9.99951C11.6598 9.99951 11.3324 9.68198 11.3324 9.28281V7.01477C11.3415 6.61559 11.6598 6.29807 12.0509 6.29807Z" fill="black"/>
<path d="M39.8181 30.1307C39.6817 30.2759 39.4907 30.3666 39.2906 30.3666H37.9627V32.8705C37.9627 33.2606 37.6444 33.5872 37.2442 33.5872C36.8531 33.5872 36.5257 33.2697 36.5257 32.8705V30.3666H33.5061V32.8705C33.5061 33.2606 33.1878 33.5872 32.7876 33.5872C32.3965 33.5872 32.0691 33.2697 32.0691 32.8705V30.3666H30.7412C30.5412 30.3666 30.3502 30.285 30.2137 30.1307C30.0773 29.9856 30.0136 29.786 30.0318 29.5864L30.5139 24.6239C30.6321 23.3629 31.387 22.2652 32.5239 21.7027L33.3606 21.2763C33.6608 21.1221 33.9791 21.0223 34.2974 20.9588V17.1485C34.2974 15.8965 33.2788 14.8804 32.0236 14.8804H29.1951C27.94 14.8804 26.9213 15.8965 26.9213 17.1485V40.727C26.9213 43.0858 25.0023 45 22.6376 45H13.8336C11.4689 45 9.5498 43.0858 9.5498 40.727V38.7584H1.98272C0.891314 38.7584 0 37.8693 0 36.7806V2.96866C0 1.88 0.891314 0.990929 1.98272 0.990929H18.5539C19.6453 0.990929 20.5366 1.88 20.5366 2.96866V36.7806C20.5366 37.8693 19.6453 38.7584 18.5539 38.7584H10.9868V40.727C10.9868 42.2965 12.2692 43.5757 13.8427 43.5757H22.6467C24.2201 43.5757 25.5025 42.2965 25.5025 40.727V17.1485C25.5025 15.1072 27.1669 13.4561 29.2042 13.4561H32.0327C34.0791 13.4561 35.7344 15.1163 35.7344 17.1485V20.9497C36.0618 21.0132 36.3711 21.1221 36.6712 21.2672L37.508 21.6936C38.6448 22.2652 39.3906 23.3538 39.518 24.6148L40 29.5773C40.0182 29.786 39.9454 29.9856 39.8181 30.1307ZM19.0905 36.7806V2.96866C19.0905 2.66928 18.8449 2.42433 18.5448 2.42433H1.98272C1.68258 2.42433 1.43702 2.66928 1.43702 2.96866V36.7806C1.43702 37.08 1.68258 37.3249 1.98272 37.3249H18.5539C18.854 37.3249 19.0905 37.08 19.0905 36.7806ZM38.09 24.7509C38.0173 23.9798 37.5625 23.3175 36.8622 22.9637L36.0255 22.5373C35.3888 22.2198 34.6339 22.2198 34.0064 22.5373L33.1696 22.9637C32.4784 23.3085 32.0146 23.9798 31.9418 24.7509L31.5416 28.9332H38.5084L38.09 24.7509Z" fill="black"/>
</svg>
