<svg width="16" height="16" viewBox="0 0 16 16" fill="none" xmlns="http://www.w3.org/2000/svg">
<path d="M11.9614 10.5878C11.8133 10.4392 11.6374 10.3214 11.4437 10.2409C11.25 10.1605 11.0423 10.1191 10.8325 10.1191C10.6227 10.1191 10.415 10.1605 10.2213 10.2409C10.0276 10.3214 9.85166 10.4392 9.7036 10.5878L8.93328 11.3581C8.06597 10.8077 7.2624 10.1627 6.53735 9.43502C5.8112 8.70858 5.16635 7.90519 4.61422 7.03908L5.38453 6.26877C5.53311 6.1207 5.651 5.94476 5.73144 5.75104C5.81188 5.55732 5.85329 5.34962 5.85329 5.13986C5.85329 4.9301 5.81188 4.7224 5.73144 4.52868C5.651 4.33496 5.53311 4.15902 5.38453 4.01095L3.8811 2.51283C3.73512 2.36376 3.56067 2.24555 3.3681 2.16524C3.17554 2.08493 2.9688 2.04415 2.76016 2.04533C2.55004 2.04481 2.34189 2.08585 2.14769 2.16609C1.9535 2.24632 1.77708 2.36416 1.6286 2.51283L0.906096 3.23002C0.561724 3.60028 0.304706 4.04301 0.153933 4.52567C0.00316132 5.00832 -0.0375316 5.51863 0.0348458 6.01908C0.204846 8.01127 1.51172 10.4072 3.52516 12.426C5.5386 14.4447 7.9611 15.7463 9.95328 15.9375C10.1019 15.9455 10.2509 15.9455 10.3995 15.9375C10.8284 15.9555 11.2565 15.8877 11.6588 15.7381C12.0611 15.5885 12.4295 15.3601 12.7423 15.0663L13.4595 14.3438C13.6082 14.1953 13.726 14.0189 13.8063 13.8247C13.8865 13.6305 13.9275 13.4223 13.927 13.2122C13.9282 13.0036 13.8874 12.7968 13.8071 12.6043C13.7268 12.4117 13.6086 12.2372 13.4595 12.0913L11.9614 10.5878ZM12.7105 13.5947L11.988 14.3119C11.7208 14.5345 11.409 14.6972 11.0735 14.7888C10.7381 14.8805 10.3868 14.899 10.0436 14.8431C8.31703 14.6944 6.11766 13.4725 4.30078 11.6556C2.48391 9.83877 1.26203 7.65533 1.09735 5.92877C1.04006 5.58553 1.05788 5.23396 1.1496 4.89828C1.24131 4.5626 1.40473 4.25081 1.6286 3.98439L2.37766 3.26189C2.4273 3.21265 2.48617 3.1737 2.5509 3.14726C2.61562 3.12083 2.68493 3.10742 2.75485 3.10783C2.82476 3.10742 2.89407 3.12083 2.9588 3.14726C3.02352 3.1737 3.08239 3.21265 3.13203 3.26189L4.63547 4.78127C4.73442 4.8808 4.78995 5.01545 4.78995 5.1558C4.78995 5.29615 4.73442 5.43079 4.63547 5.53033L3.57297 6.59283C3.48983 6.67556 3.4364 6.78348 3.42103 6.89976C3.40565 7.01604 3.42919 7.13414 3.48797 7.23564C4.12409 8.31857 4.89724 9.31492 5.78828 10.2C6.67339 11.0911 7.66973 11.8642 8.75266 12.5003C8.85416 12.5591 8.97226 12.5826 9.08854 12.5673C9.20481 12.5519 9.31274 12.4985 9.39547 12.4153L10.458 11.3528C10.5575 11.2539 10.6922 11.1983 10.8325 11.1983C10.9729 11.1983 11.1075 11.2539 11.207 11.3528L12.7105 12.8563C12.7597 12.9059 12.7987 12.9648 12.8251 13.0295C12.8515 13.0942 12.8649 13.1635 12.8645 13.2335C12.8612 13.3691 12.8061 13.4984 12.7105 13.5947ZM13.6348 2.3322C12.8965 1.59109 12.0188 1.00346 11.0524 0.603188C10.0859 0.202914 9.0497 -0.00208337 8.0036 1.59622e-05C7.8627 1.59622e-05 7.72757 0.0559868 7.62795 0.155615C7.52832 0.255244 7.47235 0.39037 7.47235 0.531266C7.47235 0.672162 7.52832 0.807288 7.62795 0.906917C7.72757 1.00655 7.8627 1.06252 8.0036 1.06252C8.91548 1.06248 9.81833 1.24304 10.6601 1.59376C11.5018 1.94448 12.2658 2.45842 12.9078 3.10593C13.5499 3.75343 14.0574 4.52169 14.401 5.36635C14.7446 6.21101 14.9176 7.11536 14.9098 8.0272C14.9098 8.1681 14.9658 8.30323 15.0654 8.40285C15.1651 8.50248 15.3002 8.55846 15.4411 8.55846C15.582 8.55846 15.7171 8.50248 15.8167 8.40285C15.9164 8.30323 15.9723 8.1681 15.9723 8.0272C15.9825 6.96998 15.7809 5.92142 15.3795 4.94333C14.978 3.96524 14.3848 3.07742 13.6348 2.3322Z" fill="black"/>
<path d="M10.6119 5.37086C10.9134 5.67053 11.1519 6.02748 11.3134 6.4207C11.4749 6.81392 11.5561 7.23547 11.5522 7.66055C11.5522 7.80144 11.6082 7.93657 11.7078 8.0362C11.8075 8.13583 11.9426 8.1918 12.0835 8.1918C12.2244 8.1918 12.3595 8.13583 12.4591 8.0362C12.5588 7.93657 12.6147 7.80144 12.6147 7.66055C12.6218 7.09797 12.517 6.5396 12.3066 6.01782C12.0962 5.49604 11.7842 5.02123 11.3889 4.62094C10.9935 4.22065 10.5226 3.90284 10.0035 3.68594C9.48439 3.46904 8.92736 3.35738 8.36475 3.35742C8.22385 3.35742 8.08872 3.41339 7.9891 3.51302C7.88947 3.61265 7.8335 3.74778 7.8335 3.88867C7.8335 4.02957 7.88947 4.16469 7.9891 4.26432C8.08872 4.36395 8.22385 4.41992 8.36475 4.41992C8.78341 4.42308 9.19736 4.50868 9.58294 4.67184C9.96852 4.83501 10.3182 5.07254 10.6119 5.37086Z" fill="black"/>
</svg>
