<svg width="23" height="21" viewBox="0 0 23 21" fill="none" xmlns="http://www.w3.org/2000/svg">
<g clip-path="url(#clip0_22_136)">
<path d="M20.8806 16.1575C20.6538 16.1575 20.4699 16.3414 20.4699 16.5682V18.0714C20.4699 18.7519 19.9183 19.3036 19.2378 19.3036H2.46422C1.78372 19.3036 1.23207 18.7519 1.23207 18.0714V4.92857C1.23207 4.24808 1.78372 3.69643 2.46422 3.69643H6.49743C6.72426 3.69643 6.90814 3.51255 6.90814 3.28571C6.90814 3.05888 6.72426 2.875 6.49743 2.875H2.46422C1.33006 2.875 0.410645 3.79442 0.410645 4.92857V18.0714C0.410645 19.2056 1.33006 20.125 2.46422 20.125H19.2378C20.3701 20.1205 21.2869 19.2037 21.2914 18.0714V16.5682C21.2914 16.3414 21.1075 16.1575 20.8806 16.1575Z" fill="white"/>
<path d="M21.3572 9.29026H21.2915V4.92847C21.287 3.79619 20.3702 2.8794 19.2379 2.8749C19.0111 2.8749 18.8272 3.05878 18.8272 3.28561C18.8272 3.51245 19.0111 3.69633 19.2379 3.69633C19.9184 3.69633 20.47 4.24798 20.47 4.92847V5.15847H20.01L17.5457 2.69419L15.755 0.903471C15.6779 0.825718 15.5729 0.781982 15.4634 0.781982C15.3539 0.781982 15.2489 0.825718 15.1718 0.903471L13.0032 3.07204L10.8265 0.903471C10.664 0.745935 10.4057 0.745935 10.2432 0.903471L5.98825 5.15847H4.51789C4.29106 5.15847 4.10718 5.34235 4.10718 5.56919C4.10718 5.79602 4.29106 5.9799 4.51789 5.9799H20.47V9.26561H18.0715C16.4836 9.26561 15.1965 10.5528 15.1965 12.1406V12.4528C15.1965 14.0406 16.4836 15.3278 18.0715 15.3278H21.3572C22.0377 15.3278 22.5893 14.7761 22.5893 14.0956V10.5224C22.5893 9.84191 22.0377 9.29026 21.3572 9.29026ZM15.4675 1.77419L16.6586 2.96526C15.9383 3.44922 14.9968 3.44922 14.2765 2.96526L15.4675 1.77419ZM13.6932 3.54847C14.7409 4.34817 16.1941 4.34817 17.2418 3.54847L18.8847 5.19133H15.0815L13.5782 3.65526L13.6932 3.54847ZM8.92896 5.19133L11.3932 2.72704L11.9682 3.30204L10.079 5.15847L8.92896 5.19133ZM12.5843 3.8524L13.9643 5.15847H11.2372L12.5843 3.8524ZM10.539 1.77419L10.8429 2.07811L7.76253 5.15847H7.15468L10.539 1.77419ZM21.7679 14.0956C21.7679 14.3224 21.584 14.5063 21.3572 14.5063H18.0715C17.5268 14.5063 17.0045 14.29 16.6194 13.9049C16.2342 13.5197 16.0179 12.9974 16.0179 12.4528V12.1406C16.0179 11.0065 16.9373 10.087 18.0715 10.087H21.3572C21.584 10.087 21.7679 10.2709 21.7679 10.4978V14.0956Z" fill="white"/>
<path d="M18.1371 13.1429C18.5908 13.1429 18.9585 12.7751 18.9585 12.3214C18.9585 11.8678 18.5908 11.5 18.1371 11.5C17.6834 11.5 17.3157 11.8678 17.3157 12.3214C17.3157 12.7751 17.6834 13.1429 18.1371 13.1429Z" fill="white"/>
</g>
<defs>
<clipPath id="clip0_22_136">
<rect width="23" height="20.5357" fill="white"/>
</clipPath>
</defs>
</svg>
