<svg width="16" height="12" viewBox="0 0 16 12" fill="none" xmlns="http://www.w3.org/2000/svg">
<path d="M14.2106 0.2146H1.66016C1.22001 0.215101 0.798033 0.39017 0.486802 0.701401C0.175571 1.01263 0.000500911 1.43461 0 1.87476V10.0626C0.000500911 10.5028 0.175571 10.9248 0.486802 11.236C0.798033 11.5472 1.22001 11.7223 1.66016 11.7228H14.2105C14.6507 11.7223 15.0727 11.5472 15.3839 11.236C15.6951 10.9248 15.8702 10.5028 15.8707 10.0626V1.87476C15.8702 1.43461 15.6951 1.01263 15.3839 0.701394C15.0727 0.39016 14.6507 0.215092 14.2106 0.2146ZM11.2588 5.96644L15.2067 2.86799V9.79875L11.2588 5.96644ZM1.66016 0.878662H14.2105C14.4746 0.878961 14.7278 0.984002 14.9145 1.17074C15.1013 1.35748 15.2063 1.61067 15.2066 1.87476V2.02384L8.81802 7.03811C8.58444 7.22046 8.29656 7.31939 8.00023 7.31915C7.7039 7.31891 7.41618 7.21951 7.1829 7.03678L0.664062 2.02258V1.87476C0.664361 1.61067 0.769402 1.35748 0.956141 1.17074C1.14288 0.984002 1.39607 0.878961 1.66016 0.878662ZM4.72939 5.98729L0.664062 9.81213V2.86036L4.72939 5.98729ZM14.2106 11.0587H1.66016C1.4901 11.0586 1.3229 11.015 1.17448 10.932C1.02605 10.849 0.901341 10.7294 0.812215 10.5846L5.26256 6.39769L6.77603 7.56179C7.12604 7.83519 7.55745 7.98365 8.00159 7.98353C8.44573 7.98342 8.87707 7.83474 9.22695 7.56116L10.7317 6.38042L15.0602 10.5819C14.9712 10.7275 14.8464 10.8478 14.6976 10.9313C14.5489 11.0147 14.3812 11.0586 14.2106 11.0587Z" fill="black"/>
</svg>
