<svg width="34" height="34" viewBox="0 0 34 34" fill="none" xmlns="http://www.w3.org/2000/svg">
<circle cx="17" cy="17" r="17" fill="#006FAC"/>
<path fill-rule="evenodd" clip-rule="evenodd" d="M17.4719 8C11.853 8 9 11.7026 9 14.807C9 15.3845 9.06508 15.9416 9.21695 16.4469C9.55327 17.6123 10.28 18.5509 11.43 18.9843C11.701 19.0975 11.9505 18.9843 12.0155 18.7161C12.0809 18.52 12.1997 18.0454 12.2651 17.8393C12.3519 17.5607 12.3193 17.4681 12.1023 17.2308C11.8205 16.9109 11.5817 16.5499 11.4517 16.0961C11.3648 15.797 11.3105 15.467 11.3105 15.0855C11.3105 12.3317 13.5558 9.85627 17.1574 9.85627C20.3356 9.85627 22.0931 11.6406 22.0931 14.0335C22.0931 14.7454 22.017 15.4157 21.876 16.055C21.3772 18.2519 20.0755 19.8403 18.3289 19.8403C17.0923 19.8403 16.1485 18.9013 16.4524 17.7359C16.626 17.0867 16.8752 16.4056 17.0923 15.7455C17.3202 15.0544 17.5153 14.3842 17.5153 13.8685C17.5153 12.9609 16.9947 12.2287 15.8993 12.2287C14.6298 12.2287 13.6103 13.4458 13.6103 15.0543C13.6103 15.3536 13.6424 15.6424 13.686 15.8588C13.8054 16.4365 13.9899 16.7872 13.9899 16.7872C13.9899 16.7872 12.6883 21.8513 12.4711 22.7385C12.0156 24.5121 12.4061 26.6676 12.4388 26.8843C12.4497 27.0077 12.6338 27.0389 12.7209 26.946C12.84 26.8021 14.3476 25.0998 14.8685 23.3776C14.9987 22.8825 15.704 20.3662 15.704 20.3662C16.1054 21.0987 17.3093 21.7378 18.6 21.7378C21.6913 21.7378 23.9913 19.6029 24.7396 16.4985C24.9131 15.797 25 15.0337 25 14.2502C25 11.0012 22.017 8 17.4719 8Z" fill="black"/>
</svg>
