<svg width="31" height="47" viewBox="0 0 31 47" fill="none" xmlns="http://www.w3.org/2000/svg">
<g clip-path="url(#clip0_204_3815)">
<path d="M21.6495 6.0918C21.9605 6.0918 22.215 6.34511 22.215 6.65472V33.7474C22.215 34.057 21.9605 34.3103 21.6495 34.3103C21.3385 34.3103 21.084 34.057 21.084 33.7474V6.65472C21.084 6.34511 21.3385 6.0918 21.6495 6.0918Z" fill="#333132"/>
<path d="M19.3028 6.0918C19.6138 6.0918 19.8683 6.34511 19.8683 6.65472V33.7474C19.8683 34.057 19.6138 34.3103 19.3028 34.3103C18.9918 34.3103 18.7373 34.057 18.7373 33.7474V6.65472C18.7373 6.34511 18.9918 6.0918 19.3028 6.0918Z" fill="#333132"/>
<path d="M23.9962 6.0918C24.3072 6.0918 24.5617 6.34511 24.5617 6.65472V33.7474C24.5617 34.057 24.3072 34.3103 23.9962 34.3103C23.6852 34.3103 23.4308 34.057 23.4308 33.7474V6.65472C23.4308 6.34511 23.6852 6.0918 23.9962 6.0918Z" fill="#333132"/>
<path d="M16.9561 6.0918C17.2671 6.0918 17.5215 6.34511 17.5215 6.65472V33.7474C17.5215 34.057 17.2671 34.3103 16.9561 34.3103C16.6451 34.3103 16.3906 34.057 16.3906 33.7474V6.65472C16.3906 6.34511 16.6451 6.0918 16.9561 6.0918Z" fill="#333132"/>
<path d="M14.6094 34.3103C14.2984 34.3103 14.0439 34.057 14.0439 33.7474V6.65472C14.0439 6.34511 14.2984 6.0918 14.6094 6.0918C14.9204 6.0918 15.1749 6.34511 15.1749 6.65472V33.7474C15.1749 34.061 14.9204 34.3103 14.6094 34.3103Z" fill="#333132"/>
<path d="M12.2627 34.3103C11.9516 34.3103 11.6972 34.057 11.6972 33.7474V6.65472C11.6972 6.34511 11.9516 6.0918 12.2627 6.0918C12.5737 6.0918 12.8281 6.34511 12.8281 6.65472V33.7474C12.8281 34.061 12.5737 34.3103 12.2627 34.3103Z" fill="#333132"/>
<path d="M9.91597 34.3103C9.60496 34.3103 9.3505 34.057 9.3505 33.7474V6.65472C9.3505 6.34511 9.60496 6.0918 9.91597 6.0918C10.227 6.0918 10.4814 6.34511 10.4814 6.65472V33.7474C10.4814 34.061 10.227 34.3103 9.91597 34.3103Z" fill="#333132"/>
<path d="M25.733 8.3795C25.422 8.3795 25.1676 8.12619 25.1676 7.81658C25.1676 7.50697 25.422 7.25366 25.733 7.25366H26.6378V2.17127C26.6378 0.973052 27.6152 0 28.8189 0C30.0225 0 31 0.973052 31 2.17127V38.2305C31 39.4287 30.0225 40.4017 28.8189 40.4017C27.6152 40.4017 26.6378 39.4287 26.6378 38.2305V33.1481H25.733C25.422 33.1481 25.1676 32.8948 25.1676 32.5852C25.1676 32.2756 25.422 32.0222 25.733 32.0222H26.6378V8.3795H25.733ZM27.7687 38.2305C27.7687 38.8055 28.2413 39.2759 28.8189 39.2759C29.3965 39.2759 29.8691 38.8055 29.8691 38.2305V2.17127C29.8691 1.59629 29.3965 1.12584 28.8189 1.12584C28.2413 1.12584 27.7687 1.59629 27.7687 2.17127V38.2305Z" fill="#333132"/>
<path d="M8.17916 32.0222C8.49017 32.0222 8.74463 32.2756 8.74463 32.5852C8.74463 32.8948 8.49017 33.1481 8.17916 33.1481H7.2744V38.2305C7.2744 39.4287 6.29694 40.4017 5.09329 40.4017C3.88964 40.4017 2.91218 39.4287 2.91218 38.2305V2.17127C2.91218 0.973052 3.88964 0 5.09329 0C6.29694 0 7.2744 0.973052 7.2744 2.17127V7.25366H8.17916C8.49017 7.25366 8.74463 7.50697 8.74463 7.81658C8.74463 8.12619 8.49017 8.3795 8.17916 8.3795H7.2744V32.0263H8.17916V32.0222ZM6.14346 2.17127C6.14346 1.59629 5.67088 1.12584 5.09329 1.12584C4.5157 1.12584 4.04313 1.59629 4.04313 2.17127V38.2305C4.04313 38.8055 4.5157 39.2759 5.09329 39.2759C5.67088 39.2759 6.14346 38.8055 6.14346 38.2305V2.17127Z" fill="#333132"/>
<path d="M0.56545 45.8743H7.5046C11.1317 45.8743 14.0802 42.939 14.0802 39.3283V36.0754V35.4321C14.0802 35.1225 14.3347 34.8691 14.6457 34.8691C14.9567 34.8691 15.2112 35.1225 15.2112 35.4321V36.0754V39.3283C15.2112 43.5582 11.7537 47.0001 7.5046 47.0001H0.56545C0.25444 47.0001 -2.19345e-05 46.7468 -2.19345e-05 46.4372C-2.19345e-05 46.1276 0.25444 45.8743 0.56545 45.8743Z" fill="#333132"/>
</g>
<defs>
<clipPath id="clip0_204_3815">
<rect width="31" height="47" fill="white" transform="matrix(-1 0 0 1 31 0)"/>
</clipPath>
</defs>
</svg>
