<svg width="22" height="20" viewBox="0 0 22 20" fill="none" xmlns="http://www.w3.org/2000/svg">
<path d="M18.5696 19.6344C18.5347 19.6761 18.4887 19.7105 18.4323 19.7316C17.6467 20.0234 16.8104 20.073 16.0233 19.9018C15.2362 19.7305 14.4978 19.3381 13.9044 18.7463C12.8897 17.7316 12.4715 16.3071 12.7161 14.956C12.0879 14.1832 11.0167 13.0537 9.91746 11.963C8.82676 10.8638 7.69734 9.79256 6.92453 9.16444C5.57342 9.40896 4.14888 8.99078 3.13422 7.97611C2.54244 7.38275 2.14997 6.64427 1.97874 5.85721C1.80751 5.07014 1.85711 4.23376 2.14889 3.44818C2.17004 3.39184 2.20442 3.3458 2.24605 3.31087C2.37106 3.20619 2.5658 3.20281 2.6931 3.33094L4.89229 5.52831L6.57236 5.34265L6.57238 5.3409L6.57413 5.34088L6.75978 3.66081L4.56239 1.46165C4.43425 1.33436 4.43765 1.13962 4.54231 1.0146C4.57724 0.972967 4.6232 0.938485 4.67962 0.917441C5.46521 0.625664 6.30159 0.576064 7.08865 0.747291C7.87572 0.918521 8.61419 1.31099 9.20756 1.90277C10.2222 2.91743 10.6404 4.34198 10.3959 5.69308C11.024 6.46589 12.0953 7.59529 13.1945 8.68601C14.2852 9.78519 15.4146 10.8565 16.1874 11.4846C17.5385 11.2401 18.9631 11.6583 19.9777 12.6729C20.5695 13.2663 20.962 14.0048 21.1332 14.7918C21.3044 15.5789 21.2548 16.4153 20.9631 17.2009C20.942 17.2573 20.9076 17.3033 20.8659 17.3382C20.7409 17.4429 20.5461 17.4462 20.4189 17.3181L18.2197 15.1207L16.5396 15.3063V15.3083H16.5376L16.352 16.9884L18.5494 19.1876C18.6775 19.3149 18.6743 19.5094 18.5696 19.6344ZM17.6979 19.2672L15.7724 17.3445C15.7011 17.2735 15.6659 17.174 15.677 17.074L15.9111 14.9715C15.9194 14.8944 15.9542 14.8262 16.006 14.7744C16.0577 14.7226 16.126 14.6879 16.203 14.6795L18.3055 14.4455C18.4055 14.4344 18.505 14.4696 18.576 14.5409L20.4987 16.4664C20.5861 15.9897 20.5884 15.398 20.4874 14.9332C20.3425 14.2675 20.0106 13.6412 19.5093 13.1386C18.6003 12.2297 17.3351 11.9077 16.167 12.1611C16.0695 12.1831 15.9675 12.1597 15.8892 12.0976C15.0683 11.4369 13.8721 10.3107 12.7238 9.15671C11.5698 8.00841 10.4436 6.81223 9.78286 5.99135C9.72079 5.91304 9.6975 5.81098 9.71946 5.71355C9.97286 4.54545 9.65087 3.28018 8.74188 2.37119C8.23927 1.86994 7.61298 1.53798 6.94731 1.39317C6.48255 1.29206 5.89078 1.29442 5.41413 1.38181L7.33966 3.30452C7.41092 3.37554 7.44617 3.47503 7.435 3.57503L7.20098 5.67751C7.19262 5.75456 7.15789 5.82279 7.10611 5.87458C7.05432 5.92636 6.9861 5.96107 6.90904 5.96946L4.80655 6.20343C4.70656 6.21454 4.60707 6.17935 4.53604 6.10809L2.6133 4.18259C2.52595 4.65925 2.52359 5.25101 2.62466 5.71578C2.76947 6.38145 3.10143 7.00774 3.60268 7.51035C4.51167 8.41934 5.77694 8.74133 6.94504 8.48792C7.04252 8.46593 7.14455 8.48929 7.22285 8.55133C8.04374 9.21207 9.23903 10.3392 10.3873 11.4932C11.5413 12.6414 12.6684 13.8367 13.3291 14.6576C13.3912 14.7359 13.4145 14.8379 13.3925 14.9354C13.1391 16.1035 13.4611 17.3688 14.3701 18.2778C14.8727 18.779 15.499 19.111 16.1647 19.2558C16.6294 19.3569 17.2212 19.3546 17.6979 19.2672Z" fill="white"/>
<path d="M6.16187 12.108L6.6291 12.5753L7.09633 12.108C7.09633 12.108 7.28472 11.928 7.55149 11.8391C7.81827 11.7501 8.13171 11.7434 8.49803 12.1098C8.85303 12.4648 8.85764 12.7895 8.76871 13.0563C8.67979 13.3231 8.49803 13.5097 8.49803 13.5097L8.0308 13.977L8.49803 14.4442L8.96526 13.977C8.96526 13.977 9.24993 13.6988 9.39456 13.2649C9.5392 12.831 9.54504 12.2223 8.96526 11.6425C8.38165 11.0589 7.77505 11.0669 7.34115 11.2115C6.90725 11.3561 6.6291 11.6408 6.6291 11.6408L6.16187 12.108ZM16.4255 2.31339C16.3692 2.37623 16.3391 2.45821 16.3414 2.54252C16.3436 2.62682 16.3781 2.70708 16.4376 2.76683L17.8393 4.16853C17.8728 4.20201 17.9131 4.22789 17.9575 4.24441C18.002 4.26093 18.0494 4.26771 18.0967 4.26427C18.1439 4.26084 18.1899 4.24728 18.2314 4.22451C18.273 4.20174 18.3092 4.1703 18.3375 4.13232L19.7392 2.26511C19.7873 2.20158 19.8109 2.12279 19.8055 2.04325C19.8001 1.96372 19.7662 1.88882 19.7099 1.83236L18.7754 0.897898C18.719 0.841621 18.6441 0.807656 18.5645 0.802269C18.485 0.796882 18.4062 0.820437 18.3427 0.868588L16.4737 2.26856C16.4562 2.28186 16.44 2.29688 16.4255 2.31339ZM17.1737 2.56856L18.5099 1.56685L19.0392 2.09615L18.0375 3.43233L17.1737 2.56856Z" fill="white"/>
<path d="M8.49816 11.6407L8.9654 12.108L9.724 11.3494L9.25677 10.8821L8.49816 11.6407ZM12.1119 8.02701L12.5791 8.49424L17.6066 3.46674L17.1394 2.99951L12.1119 8.02701ZM1.25692 15.6131C1.25692 15.6131 0.972249 15.8912 0.827617 16.3251C0.682984 16.759 0.676368 17.367 1.25692 17.9475L2.65862 19.3492C3.23826 19.9288 3.8471 19.9231 4.281 19.7785C4.7149 19.6339 4.99306 19.3492 4.99306 19.3492L8.26368 16.0786C8.26368 16.0786 8.54836 15.8004 8.69299 15.3665C8.83762 14.9326 8.84598 14.3264 8.26368 13.7441L6.86199 12.3424C6.27961 11.7601 5.6735 11.7685 5.2396 11.9131C4.8057 12.0578 4.52755 12.3424 4.52755 12.3424L1.25692 15.6131ZM1.72415 16.0803L4.99478 12.8097C4.99478 12.8097 5.18145 12.6279 5.44822 12.539C5.715 12.4501 6.03951 12.4544 6.39475 12.8097L7.79645 14.2114C8.15379 14.5687 8.15606 14.8911 8.06714 15.1579C7.97821 15.4247 7.79645 15.6113 7.79645 15.6113L4.52582 18.882C4.52582 18.882 4.33916 19.0637 4.07238 19.1527C3.80561 19.2416 3.48045 19.2366 3.12585 18.882L1.72415 17.4803C1.3695 17.1256 1.36454 16.8005 1.45347 16.5337C1.54239 16.267 1.72415 16.0803 1.72415 16.0803Z" fill="white"/>
</svg>
