<svg width="20" height="21" viewBox="0 0 20 21" fill="none" xmlns="http://www.w3.org/2000/svg">
<path d="M7.77778 15.6207C3.48911 15.6207 0 12.1169 0 7.81033C0 3.50371 3.48911 0 7.77778 0C12.0664 0 15.5556 3.50371 15.5556 7.81033C15.5556 12.1169 12.0664 15.6207 7.77778 15.6207ZM7.77778 1.56207C4.347 1.56207 1.55556 4.36519 1.55556 7.81033C1.55556 11.2555 4.347 14.0586 7.77778 14.0586C11.2086 14.0586 14 11.2555 14 7.81033C14 4.36519 11.2093 1.56207 7.77778 1.56207Z" fill="black"/>
<path d="M19.1972 20.0838C19.0919 20.0839 18.9875 20.0631 18.8902 20.0226C18.7928 19.982 18.7044 19.9226 18.63 19.8477L12.4576 13.6486C12.3831 13.5738 12.324 13.485 12.2837 13.3873C12.2434 13.2896 12.2227 13.1848 12.2227 13.079C12.2227 12.9732 12.2434 12.8685 12.2837 12.7707C12.324 12.673 12.3831 12.5842 12.4576 12.5094C12.5321 12.4346 12.6205 12.3752 12.7178 12.3348C12.8151 12.2943 12.9194 12.2734 13.0248 12.2734C13.1301 12.2734 13.2344 12.2943 13.3317 12.3348C13.4291 12.3752 13.5175 12.4346 13.592 12.5094L19.7644 18.7084C19.877 18.821 19.9537 18.9645 19.9849 19.1209C20.016 19.2773 20.0002 19.4395 19.9394 19.5869C19.8787 19.7342 19.7757 19.8601 19.6435 19.9486C19.5114 20.0371 19.356 20.0841 19.1972 20.0838Z" fill="black"/>
</svg>
