<svg width="35" height="35" viewBox="0 0 35 35" fill="none" xmlns="http://www.w3.org/2000/svg">
<circle cx="17.5" cy="17.5" r="17.5" fill="#CDC9C9"/>
<path d="M16.949 21.8111C13.7166 21.8111 11.0869 19.1813 11.0869 15.949C11.0869 12.7166 13.7166 10.0869 16.949 10.0869C20.1813 10.0869 22.8111 12.7166 22.8111 15.949C22.8111 19.1813 20.1813 21.8111 16.949 21.8111ZM16.949 11.2593C14.3632 11.2593 12.2593 13.3632 12.2593 15.949C12.2593 18.5347 14.3632 20.6386 16.949 20.6386C19.5347 20.6386 21.6386 18.5347 21.6386 15.949C21.6386 13.3632 19.5353 11.2593 16.949 11.2593Z" fill="#313131"/>
<path d="M25.3269 24.9131C25.2499 24.9131 25.1736 24.898 25.1025 24.8685C25.0314 24.8391 24.9668 24.7958 24.9124 24.7413L20.4021 20.231C20.3477 20.1766 20.3045 20.112 20.2751 20.0409C20.2456 19.9698 20.2305 19.8936 20.2305 19.8166C20.2305 19.7396 20.2456 19.6634 20.2751 19.5923C20.3045 19.5212 20.3477 19.4566 20.4021 19.4021C20.4566 19.3477 20.5212 19.3045 20.5923 19.2751C20.6634 19.2456 20.7396 19.2305 20.8166 19.2305C20.8936 19.2305 20.9698 19.2456 21.0409 19.2751C21.112 19.3045 21.1766 19.3477 21.231 19.4021L25.7413 23.9124C25.8236 23.9943 25.8796 24.0987 25.9024 24.2125C25.9252 24.3263 25.9136 24.4443 25.8692 24.5515C25.8248 24.6588 25.7495 24.7504 25.653 24.8147C25.5564 24.8791 25.4429 24.9133 25.3269 24.9131Z" fill="#313131"/>
</svg>
