<svg width="13" height="13" viewBox="0 0 13 13" fill="none" xmlns="http://www.w3.org/2000/svg">
<path d="M10.3461 7.68167C10.1771 7.84414 10.0991 8.08395 10.1388 8.31206L10.7165 11.5095C10.7627 11.7825 10.6522 12.0548 10.4241 12.2114C10.2031 12.3739 9.91067 12.3934 9.66372 12.2634L6.78536 10.7621C6.68073 10.7101 6.57025 10.677 6.46042 10.677H6.2843C6.21931 10.6835 6.16147 10.7101 6.10883 10.7355L3.22983 12.2439C3.08686 12.3154 2.92438 12.3414 2.76841 12.3154C2.37848 12.2374 2.12567 11.8728 2.19001 11.4894L2.76841 8.29191C2.8074 8.0586 2.72942 7.82464 2.5611 7.65567L0.214353 5.38107C0.019387 5.1861 -0.0521006 4.906 0.0395336 4.64669C0.124019 4.39259 0.344331 4.20412 0.617283 4.15928L3.84722 3.69071C4.09418 3.66471 4.30864 3.51589 4.41912 3.29493L5.84238 0.376935C5.87487 0.311946 5.92036 0.252806 5.97301 0.201465L6.03085 0.155973C6.05684 0.122829 6.09583 0.0974831 6.13548 0.0714876L6.20632 0.0454921L6.3168 0H6.5904C6.83736 0.0259955 7.05182 0.17482 7.1623 0.389283L8.6044 3.29493C8.70838 3.50939 8.90985 3.65237 9.14381 3.69071L12.3737 4.15928C12.6467 4.19827 12.8748 4.38674 12.9651 4.64669C13.0496 4.906 12.9781 5.1926 12.7767 5.38107L10.3461 7.68167Z" fill="#F5C832"/>
</svg>
