<svg width="19" height="19" viewBox="0 0 19 19" fill="none" xmlns="http://www.w3.org/2000/svg">
<path d="M9.49992 5.96711H2.12614C2.04817 5.96701 1.97158 5.94644 1.90405 5.90745C1.83653 5.86846 1.78042 5.81243 1.74134 5.74495C1.70227 5.67747 1.6816 5.60091 1.6814 5.52294C1.6812 5.44496 1.70148 5.3683 1.7402 5.30063L3.51284 2.1968C3.55177 2.12878 3.60794 2.07224 3.67571 2.03289C3.74347 1.99353 3.82042 1.97276 3.89878 1.97266H9.49992C9.61803 1.97266 9.73129 2.01957 9.81481 2.10309C9.89832 2.1866 9.94524 2.29986 9.94524 2.41797C9.94524 2.53607 9.89832 2.64934 9.81481 2.73285C9.73129 2.81636 9.61803 2.86328 9.49992 2.86328H4.15795L2.89356 5.07648H9.49992C9.61803 5.07648 9.73129 5.1234 9.81481 5.20691C9.89832 5.29043 9.94524 5.40369 9.94524 5.5218C9.94524 5.6399 9.89832 5.75317 9.81481 5.83668C9.73129 5.92019 9.61803 5.96711 9.49992 5.96711Z" fill="white"/>
<path d="M16.8738 5.96711H9.5C9.3819 5.96711 9.26863 5.92019 9.18512 5.83668C9.10161 5.75317 9.05469 5.6399 9.05469 5.5218C9.05469 5.40369 9.10161 5.29043 9.18512 5.20691C9.26863 5.1234 9.3819 5.07649 9.5 5.07649H16.1064L14.842 2.86328H9.5C9.3819 2.86328 9.26863 2.81636 9.18512 2.73285C9.10161 2.64934 9.05469 2.53607 9.05469 2.41797C9.05469 2.29986 9.10161 2.1866 9.18512 2.10309C9.26863 2.01957 9.3819 1.97266 9.5 1.97266H15.1003C15.1786 1.97276 15.2556 1.99353 15.3233 2.03289C15.3911 2.07224 15.4473 2.12878 15.4862 2.1968L17.2603 5.30033C17.299 5.36801 17.3193 5.44467 17.3191 5.52264C17.3189 5.60062 17.2983 5.67717 17.2592 5.74465C17.2201 5.81213 17.164 5.86817 17.0965 5.90715C17.0289 5.94614 16.9524 5.96671 16.8744 5.96681L16.8738 5.96711ZM3.96981 9.28231C3.36298 9.28161 2.78119 9.04023 2.35209 8.61113C1.92299 8.18203 1.68162 7.60025 1.68091 6.99341V5.5218C1.68091 5.40369 1.72782 5.29043 1.81134 5.20691C1.89485 5.1234 2.00812 5.07649 2.12622 5.07649C2.24432 5.07649 2.35759 5.1234 2.4411 5.20691C2.52462 5.29043 2.57153 5.40369 2.57153 5.5218V6.9937C2.56883 7.17902 2.603 7.36303 2.67205 7.53503C2.7411 7.70702 2.84366 7.86358 2.97375 7.99558C3.10385 8.12759 3.25889 8.23241 3.42986 8.30396C3.60084 8.37551 3.78433 8.41236 3.96967 8.41236C4.15501 8.41236 4.3385 8.37551 4.50947 8.30396C4.68044 8.23241 4.83548 8.12759 4.96558 7.99558C5.09567 7.86358 5.19823 7.70702 5.26728 7.53503C5.33633 7.36303 5.3705 7.17902 5.3678 6.9937V5.5218C5.3678 5.40369 5.41472 5.29043 5.49823 5.20691C5.58174 5.1234 5.69501 5.07649 5.81311 5.07649C5.93122 5.07649 6.04448 5.1234 6.12799 5.20691C6.21151 5.29043 6.25842 5.40369 6.25842 5.5218V6.9937C6.25772 7.60046 6.01637 8.18217 5.58732 8.61122C5.15828 9.04026 4.57657 9.28161 3.96981 9.28231Z" fill="white"/>
<path d="M7.65658 9.28249C7.04974 9.28178 6.46796 9.0404 6.03886 8.6113C5.60976 8.1822 5.36838 7.60042 5.36768 6.99358V5.52197C5.36768 5.40387 5.41459 5.2906 5.49811 5.20709C5.58162 5.12358 5.69488 5.07666 5.81299 5.07666C5.93109 5.07666 6.04436 5.12358 6.12787 5.20709C6.21138 5.2906 6.2583 5.40387 6.2583 5.52197V6.99388C6.2556 7.1792 6.28977 7.36321 6.35882 7.5352C6.42787 7.7072 6.53043 7.86375 6.66052 7.99576C6.79062 8.12776 6.94566 8.23259 7.11663 8.30414C7.2876 8.37569 7.4711 8.41253 7.65643 8.41253C7.84177 8.41253 8.02526 8.37569 8.19624 8.30414C8.36721 8.23259 8.52225 8.12776 8.65235 7.99576C8.78244 7.86375 8.885 7.7072 8.95405 7.5352C9.0231 7.36321 9.05727 7.1792 9.05457 6.99388V5.52197C9.05457 5.40387 9.10148 5.2906 9.185 5.20709C9.26851 5.12358 9.38178 5.07666 9.49988 5.07666C9.61798 5.07666 9.73125 5.12358 9.81476 5.20709C9.89828 5.2906 9.94519 5.40387 9.94519 5.52197V6.99388C9.94449 7.60064 9.70314 8.18234 9.27409 8.61139C8.84505 9.04043 8.26334 9.28178 7.65658 9.28249Z" fill="white"/>
<path d="M11.3433 9.28249C10.7365 9.28178 10.1547 9.04039 9.72568 8.61128C9.29663 8.18218 9.05532 7.60039 9.05469 6.99358V5.52197C9.05469 5.40387 9.1016 5.2906 9.18512 5.20709C9.26863 5.12358 9.3819 5.07666 9.5 5.07666C9.6181 5.07666 9.73137 5.12358 9.81488 5.20709C9.8984 5.2906 9.94531 5.40387 9.94531 5.52197V6.99388C9.94261 7.1792 9.97678 7.36321 10.0458 7.5352C10.1149 7.7072 10.2174 7.86375 10.3475 7.99576C10.4776 8.12776 10.6327 8.23259 10.8036 8.30414C10.9746 8.37569 11.1581 8.41253 11.3434 8.41253C11.5288 8.41253 11.7123 8.37569 11.8832 8.30414C12.0542 8.23259 12.2093 8.12776 12.3394 7.99576C12.4695 7.86375 12.572 7.7072 12.6411 7.5352C12.7101 7.36321 12.7443 7.1792 12.7416 6.99388V5.52197C12.7416 5.40387 12.7885 5.2906 12.872 5.20709C12.9555 5.12358 13.0688 5.07666 13.1869 5.07666C13.305 5.07666 13.4183 5.12358 13.5018 5.20709C13.5853 5.2906 13.6322 5.40387 13.6322 5.52197V6.99388C13.6314 7.60067 13.39 8.18237 12.9609 8.61141C12.5318 9.04044 11.9501 9.28178 11.3433 9.28249Z" fill="white"/>
<path d="M15.0303 9.28249C14.4235 9.28178 13.8417 9.04039 13.4127 8.61128C12.9836 8.18218 12.7423 7.60039 12.7417 6.99358V5.52197C12.7417 5.40387 12.7886 5.2906 12.8721 5.20709C12.9556 5.12358 13.0689 5.07666 13.187 5.07666C13.3051 5.07666 13.4184 5.12358 13.5019 5.20709C13.5854 5.2906 13.6323 5.40387 13.6323 5.52197V6.99388C13.6296 7.1792 13.6638 7.36321 13.7328 7.5352C13.8019 7.7072 13.9044 7.86375 14.0345 7.99576C14.1646 8.12776 14.3197 8.23259 14.4907 8.30414C14.6616 8.37569 14.8451 8.41253 15.0305 8.41253C15.2158 8.41253 15.3993 8.37569 15.5703 8.30414C15.7412 8.23259 15.8963 8.12776 16.0264 7.99576C16.1565 7.86375 16.259 7.7072 16.3281 7.5352C16.3971 7.36321 16.4313 7.1792 16.4286 6.99388V5.52197C16.4286 5.40387 16.4755 5.2906 16.559 5.20709C16.6425 5.12358 16.7558 5.07666 16.8739 5.07666C16.992 5.07666 17.1053 5.12358 17.1888 5.20709C17.2723 5.2906 17.3192 5.40387 17.3192 5.52197V6.99388C17.3184 7.60067 17.077 8.18237 16.6479 8.61141C16.2188 9.04044 15.6371 9.28178 15.0303 9.28249Z" fill="white"/>
<path d="M13.1867 5.96707C13.091 5.96704 12.9978 5.93619 12.921 5.87908C12.8442 5.82197 12.7879 5.74165 12.7603 5.65001L11.827 2.54618C11.7929 2.43308 11.8052 2.31108 11.8611 2.20702C11.917 2.10297 12.0119 2.02538 12.125 1.99132C12.2381 1.95727 12.3601 1.96954 12.4642 2.02544C12.5682 2.08134 12.6458 2.17628 12.6799 2.28939L13.6133 5.39321C13.6473 5.50612 13.6351 5.62791 13.5795 5.73188C13.5238 5.83584 13.4292 5.91348 13.3164 5.94778C13.2744 5.96068 13.2306 5.96719 13.1867 5.96707ZM5.81347 5.96707C5.76991 5.96717 5.72659 5.96076 5.68492 5.94807C5.57209 5.91378 5.47748 5.83614 5.42182 5.73217C5.36617 5.62821 5.35402 5.50642 5.38805 5.39351L6.32023 2.28939C6.35429 2.17628 6.43188 2.08134 6.53593 2.02544C6.58746 1.99776 6.64393 1.9805 6.70212 1.97465C6.76031 1.9688 6.81909 1.97446 6.87509 1.99132C6.9311 2.00818 6.98323 2.03591 7.02852 2.07292C7.07381 2.10993 7.11136 2.1555 7.13904 2.20702C7.16672 2.25854 7.18398 2.31502 7.18983 2.37321C7.19568 2.4314 7.19002 2.49018 7.17316 2.54618L6.23978 5.64971C6.21227 5.74141 6.15595 5.8218 6.07916 5.87896C6.00237 5.93613 5.9092 5.96703 5.81347 5.96707ZM9.50006 5.96707C9.38196 5.96707 9.26869 5.92016 9.18518 5.83664C9.10167 5.75313 9.05475 5.63986 9.05475 5.52176V2.41793C9.05475 2.29983 9.10167 2.18656 9.18518 2.10305C9.26869 2.01954 9.38196 1.97262 9.50006 1.97262C9.61817 1.97262 9.73143 2.01954 9.81495 2.10305C9.89846 2.18656 9.94537 2.29983 9.94537 2.41793V5.52176C9.94537 5.63986 9.89846 5.75313 9.81495 5.83664C9.73143 5.92016 9.61817 5.96707 9.50006 5.96707ZM9.50006 17.0272H2.875C2.7569 17.0272 2.64363 16.9802 2.56012 16.8967C2.4766 16.8132 2.42969 16.6999 2.42969 16.5818V8.47418C2.42969 8.35608 2.4766 8.24281 2.56012 8.1593C2.64363 8.07579 2.7569 8.02887 2.875 8.02887C2.9931 8.02887 3.10637 8.07579 3.18988 8.1593C3.2734 8.24281 3.32031 8.35608 3.32031 8.47418V16.1365H9.50006C9.61817 16.1365 9.73143 16.1834 9.81495 16.267C9.89846 16.3505 9.94537 16.4637 9.94537 16.5818C9.94537 16.6999 9.89846 16.8132 9.81495 16.8967C9.73143 16.9802 9.61817 17.0272 9.50006 17.0272Z" fill="white"/>
<path d="M16.1251 17.0273H9.5C9.3819 17.0273 9.26863 16.9804 9.18512 16.8969C9.1016 16.8134 9.05469 16.7001 9.05469 16.582C9.05469 16.4639 9.1016 16.3506 9.18512 16.2671C9.26863 16.1836 9.3819 16.1367 9.5 16.1367H15.6798V8.47437C15.6798 8.35626 15.7267 8.24299 15.8102 8.15948C15.8937 8.07597 16.007 8.02905 16.1251 8.02905C16.2432 8.02905 16.3564 8.07597 16.4399 8.15948C16.5235 8.24299 16.5704 8.35626 16.5704 8.47437V16.582C16.5704 16.7001 16.5235 16.8134 16.4399 16.8969C16.3564 16.9804 16.2432 17.0273 16.1251 17.0273Z" fill="white"/>
<path d="M13.0272 16.916C12.9091 16.916 12.7959 16.8691 12.7124 16.7855C12.6288 16.702 12.5819 16.5888 12.5819 16.4707V11.7607H6.41821V16.4386C6.41821 16.5567 6.3713 16.67 6.28778 16.7535C6.20427 16.837 6.091 16.8839 5.9729 16.8839C5.8548 16.8839 5.74153 16.837 5.65802 16.7535C5.5745 16.67 5.52759 16.5567 5.52759 16.4386V11.3154C5.52759 11.1973 5.5745 11.0841 5.65802 11.0005C5.74153 10.917 5.8548 10.8701 5.9729 10.8701H13.0272C13.1453 10.8701 13.2586 10.917 13.3421 11.0005C13.4256 11.0841 13.4726 11.1973 13.4726 11.3154V16.4707C13.4726 16.5888 13.4256 16.702 13.3421 16.7855C13.2586 16.8691 13.1453 16.916 13.0272 16.916Z" fill="white"/>
</svg>
