<svg width="72" height="72" viewBox="0 0 72 72" fill="none" xmlns="http://www.w3.org/2000/svg">
<circle cx="36" cy="36" r="36" fill="#1C9BE2"/>
<path fill-rule="evenodd" clip-rule="evenodd" d="M25.414 26.0002C25.0347 26.0017 24.7281 26.3116 24.7296 26.6919V28.5289C24.7287 28.7117 24.8005 28.8874 24.9288 29.017C25.0574 29.1468 25.2317 29.22 25.414 29.2207C25.5973 29.2216 25.7731 29.149 25.9027 29.0188C26.0322 28.8889 26.1046 28.7126 26.104 28.5289V27.3784H44.9476V41.7579H34.9903C34.6791 40.1227 33.263 38.8685 31.5633 38.8685C29.8636 38.8685 28.4521 40.1227 28.1418 41.7579H25.4142C25.0367 41.7595 24.731 42.0659 24.7298 42.4444C24.7289 42.6272 24.8007 42.8026 24.929 42.9324C25.0576 43.062 25.2319 43.1352 25.4142 43.1362H28.1458C28.4656 44.7591 29.8723 46 31.5633 46C33.2544 46 34.6653 44.759 34.9863 43.1362H48.0534C48.3742 44.7591 49.7854 46 51.4761 46C53.1672 46 54.5769 44.759 54.8976 43.1362H57.3153C57.6949 43.1346 58.0015 42.8247 58 42.4444V35.6843C58.0003 35.5572 57.9653 35.4323 57.8993 35.3237L54.1851 29.3377C54.0601 29.1356 53.8398 29.0125 53.6025 29.0119H46.3219V26.6917C46.3234 26.3114 46.0168 26.0015 45.6374 26L25.414 26.0002ZM46.3217 30.39H53.2156L56.6252 35.8836V41.7581H54.9031C54.5922 40.1229 53.1761 38.8687 51.4764 38.8687C49.7767 38.8687 48.3606 40.1229 48.0494 41.7581H46.3218L46.3217 30.39ZM23.4309 31.0162C23.2489 31.0153 23.0737 31.0873 22.9441 31.2159C22.8149 31.3449 22.7419 31.5197 22.741 31.7024C22.7419 31.8852 22.8149 32.0603 22.9441 32.1889C23.0737 32.3176 23.2489 32.3896 23.4309 32.3889H30.2794C30.4618 32.3896 30.637 32.3176 30.7662 32.1889C30.8957 32.0603 30.9688 31.8852 30.9694 31.7024C30.9688 31.5197 30.8957 31.3449 30.7662 31.2159C30.637 31.0873 30.4618 31.0153 30.2794 31.0162H23.4309ZM19.0577 34.83C18.6792 34.8309 18.3726 35.1383 18.372 35.5178C18.3711 35.7008 18.4432 35.8766 18.5718 36.0064C18.7004 36.1359 18.8754 36.2092 19.0577 36.2095H28.0933C28.2765 36.2101 28.4524 36.1375 28.5819 36.0076C28.7114 35.8778 28.7839 35.7015 28.7833 35.5178C28.7829 35.3347 28.7099 35.1596 28.5804 35.0303C28.4512 34.9014 28.2756 34.8294 28.0933 34.83L19.0577 34.83ZM14.6847 38.6454C14.5024 38.646 14.3278 38.7195 14.1995 38.8491C14.0709 38.9789 13.9994 39.1543 14 39.3371C14.0015 39.7156 14.3072 40.0221 14.6847 40.0236H25.9062C26.0885 40.0242 26.2638 39.9522 26.393 39.8236C26.5225 39.695 26.5955 39.5199 26.5961 39.3371C26.5971 39.1534 26.5243 38.9771 26.3948 38.8472C26.2653 38.7174 26.0894 38.6448 25.9062 38.6454L14.6847 38.6454ZM31.5091 40.243C31.5272 40.2424 31.5447 40.243 31.5628 40.243C32.7294 40.243 33.6784 41.2096 33.6784 42.4351C33.6784 43.6607 32.7297 44.6221 31.5628 44.6221C30.3962 44.6221 29.4528 43.6608 29.4528 42.4351C29.4528 41.2286 30.3677 40.2725 31.5091 40.243ZM51.4212 40.243C51.4394 40.2424 51.4581 40.243 51.4762 40.243C52.6428 40.243 53.5918 41.2096 53.5918 42.4351C53.5918 43.6607 52.6431 44.6221 51.4762 44.6221C50.3096 44.6221 49.3606 43.6608 49.3606 42.4351C49.3606 41.2286 50.2798 40.2725 51.4212 40.243Z" fill="white"/>
</svg>
