<svg width="72" height="72" viewBox="0 0 72 72" fill="none" xmlns="http://www.w3.org/2000/svg">
<circle cx="36" cy="36" r="36" fill="#1C9BE2"/>
<path d="M57.1129 42.3889H55.8036V39.1505C55.8036 37.8412 55.1144 36.6699 54.15 35.9121V30.8132C54.15 29.573 53.1853 28.6083 51.9451 28.6083H48.9822L44.297 18.2729C44.0902 17.8596 43.7459 17.515 43.3323 17.3773C42.919 17.2395 42.4366 17.2395 41.9543 17.4463L14.9446 29.7107C14.0489 30.124 13.6356 31.1575 14.0489 32.0535L21.0082 47.281H21.0772C21.3527 48.1767 22.1797 48.8658 23.2131 48.8658H44.7796V51.0708C44.7796 52.1042 45.6066 53.0002 46.7091 53.0002H57.2516C58.2851 53.0002 59.112 52.1733 59.112 51.0708V44.2493C58.9739 43.2156 58.147 42.3889 57.1136 42.3889L57.1129 42.3889ZM54.7702 39.1505V42.3889H48.9135V39.1505C48.9135 37.4969 50.2228 36.1876 51.8764 36.1876C53.4612 36.1876 54.7702 37.4966 54.7702 39.1505H54.7702ZM47.8109 28.5392H32.9968L45.262 22.958L47.8109 28.5392ZM15.358 30.6754L42.3677 18.3415C42.5745 18.2724 42.7123 18.2724 42.9188 18.3415C43.1256 18.4105 43.2634 18.5483 43.3321 18.7548L44.8479 22.131L30.5161 28.5391H23.1435C21.9032 28.5391 20.9385 29.5038 20.9385 30.7441V32.88L16.4599 34.8781L14.9441 31.5707C14.8063 31.2264 14.9441 30.8131 15.3577 30.6754L15.358 30.6754ZM20.9388 44.6626L16.8738 35.8427L20.9388 34.0514V44.6626ZM44.7103 44.2492V47.7633H23.1438C22.5236 47.7633 21.9725 47.2122 21.9725 46.592V30.7446C21.9725 30.1245 22.5236 29.5734 23.1438 29.5734L51.945 29.5731C52.5651 29.5731 53.1162 30.1241 53.1162 30.7443V35.3608C52.7029 35.223 52.2893 35.154 51.876 35.154C49.671 35.154 47.8796 36.9453 47.8796 39.1503V42.3888H46.5703C45.5368 42.3891 44.7099 43.2157 44.7099 44.2495L44.7103 44.2492ZM57.94 51.0704C57.94 51.5527 57.5267 51.966 57.0444 51.966L46.5706 51.9663C46.0883 51.9663 45.675 51.553 45.675 51.0707V44.2492C45.675 43.7669 46.0883 43.3536 46.5706 43.3536H57.1132C57.5955 43.3536 58.0088 43.7669 58.0088 44.2492V51.0704L57.94 51.0704Z" fill="white"/>
<path d="M48.3629 45.6968H55.2531V46.7302H48.3629V45.6968Z" fill="white"/>
<path d="M48.3629 48.5217H55.2531V49.5552H48.3629V48.5217Z" fill="white"/>
<path d="M26.3815 43.7664H27.4149V44.7998H26.3815V43.7664Z" fill="white"/>
<path d="M23.8333 43.7664H24.8667V44.7998H23.8333V43.7664Z" fill="white"/>
<path d="M39.1298 43.7664H40.1632V44.7998H39.1298V43.7664Z" fill="white"/>
<path d="M41.6797 43.7664H42.7131V44.7998H41.6797V43.7664Z" fill="white"/>
<path d="M36.58 43.7664H37.6134V44.7998H36.58V43.7664Z" fill="white"/>
<path d="M34.031 43.7664H35.0645V44.7998H34.031V43.7664Z" fill="white"/>
<path d="M31.4819 43.7664H32.5154V44.7998H31.4819V43.7664Z" fill="white"/>
<path d="M28.9314 43.7664H29.9649V44.7998H28.9314V43.7664Z" fill="white"/>
<path d="M24.9346 37.704H33.4785V32.1919H24.9346V37.704ZM25.968 33.2254H32.4449V36.6706H25.968V33.2254Z" fill="white"/>
<path d="M38.6475 36.6709H46.9155V37.7044H38.6475V36.6709Z" fill="white"/>
<path d="M42.5746 33.4998H50.6362V34.5332H42.5746V33.4998Z" fill="white"/>
</svg>
