<svg width="72" height="72" viewBox="0 0 72 72" fill="none" xmlns="http://www.w3.org/2000/svg">
<circle cx="36" cy="36" r="36" fill="#1C9BE2"/>
<path d="M36.3341 17.0001C31.9129 17.0001 27.626 18.5217 24.1977 21.2884L24.1896 17.4826C24.189 17.2159 23.9725 17.0001 23.7061 17.0001H23.7051C23.4381 17.0004 23.2223 17.2176 23.2227 17.4843L23.2331 22.3197C23.2334 22.5861 23.4492 22.8015 23.7156 22.8022L28.5326 22.8123H28.5336C28.8 22.8123 29.0164 22.5966 29.0171 22.3299C29.0174 22.0628 28.8016 21.846 28.5346 21.8457L25.0538 21.8383C28.2672 19.3359 32.2407 17.9667 36.334 17.9667C46.4619 17.9667 54.7013 26.2062 54.7013 36.334C54.7013 40.0148 53.6167 43.5657 51.5647 46.6035C51.4153 46.8247 51.4733 47.1251 51.6948 47.2744C51.7778 47.3304 51.8718 47.3574 51.9649 47.3574C52.1203 47.3574 52.2724 47.2829 52.3658 47.1446C54.5259 43.9467 55.6679 40.2083 55.6679 36.334C55.6679 25.6727 46.9952 17 36.3339 17L36.3341 17.0001Z" fill="white"/>
<path d="M20.9731 25.394C20.7516 25.2443 20.4512 25.3029 20.3021 25.5241C18.142 28.7217 17 32.4601 17 36.3339C17 46.9952 25.6727 55.6679 36.334 55.6679C40.7528 55.6679 45.0162 54.1608 48.441 51.4072L48.4485 55.1854C48.4488 55.4521 48.6652 55.6679 48.9316 55.6679H48.9326C49.1996 55.6675 49.4154 55.4504 49.4151 55.1837L49.4053 50.338C49.405 50.0713 49.1885 49.8556 48.9218 49.8556H44.1039C43.8368 49.8556 43.6204 50.072 43.6204 50.339C43.6204 50.6061 43.8368 50.8225 44.1039 50.8225H47.6163C44.4009 53.329 40.4393 54.7012 36.3344 54.7012C26.2065 54.7012 17.9672 46.4618 17.9672 36.3339C17.9672 32.6532 19.0518 29.1023 21.1038 26.0645C21.2531 25.8433 21.1951 25.5429 20.9736 25.3935L20.9731 25.394Z" fill="white"/>
<path d="M24.3738 41.9255C24.3738 42.1069 24.4753 42.2727 24.6364 42.3553L36.1125 48.2408C36.182 48.2765 36.2575 48.2941 36.3334 48.2941C36.4092 48.2941 36.4848 48.2762 36.5542 48.2408L48.0312 42.3553C48.1923 42.2727 48.2938 42.1065 48.2938 41.9255L48.2935 30.4485C48.2935 30.2637 48.188 30.0948 48.0217 30.0139L36.5456 24.4228C36.4121 24.3578 36.2557 24.3578 36.1222 24.4228L24.6461 30.0139C24.6184 30.0274 24.5952 30.0466 24.5712 30.0645C24.5618 30.0715 24.5513 30.0763 24.5422 30.084C24.4994 30.1214 24.465 30.1659 24.4377 30.2152C24.435 30.2199 24.4303 30.2226 24.4279 30.2273C24.4235 30.2357 24.4242 30.2448 24.4205 30.2533C24.402 30.2951 24.3895 30.3386 24.3834 30.3851C24.3814 30.3993 24.378 30.4127 24.3777 30.4269C24.3774 30.4343 24.3747 30.4411 24.3747 30.4481L24.3738 41.9255ZM25.3404 31.24L35.8507 36.6298V47.0201L25.3404 41.6306V31.24ZM36.8174 47.0196V36.6293L39.8255 35.0845V39.4905C39.8255 39.6594 39.9139 39.8162 40.0585 39.9039C40.135 39.9504 40.222 39.9736 40.309 39.9736C40.3855 39.9736 40.4627 39.9554 40.5329 39.9187L43.9513 38.1331C44.1108 38.0498 44.2109 37.8849 44.2109 37.7045L44.2106 32.833L47.3272 31.2325V41.6297L36.8174 47.0196ZM40.7921 34.588L43.2439 33.3291V37.4121L40.7921 38.6926V34.588ZM40.3751 33.7152L37.4058 32.2098L39.6576 31.021L42.6587 32.5426L40.3751 33.7152ZM36.3339 25.3948L46.7225 30.4559L43.7211 31.997L39.8718 30.0456C39.7315 29.9748 39.566 29.9758 39.4278 30.0493L36.1286 31.7911C35.9688 31.8754 35.8694 32.0416 35.871 32.2226C35.8724 32.4034 35.9745 32.5679 36.1357 32.6498L39.313 34.2608L36.3339 35.7905L25.9375 30.4596L36.3339 25.3948Z" fill="white"/>
</svg>
