<svg width="72" height="72" viewBox="0 0 72 72" fill="none" xmlns="http://www.w3.org/2000/svg">
<circle cx="36" cy="36" r="36" fill="#1C9BE2"/>
<path d="M47 34.9996C47 28.9376 42.066 24 36 24C29.934 24 25 28.9378 25 34.9996C25 41.0615 29.934 46 36 46C42.066 46 47 41.0661 47 34.9996ZM26.218 34.9996C26.218 29.6073 30.608 25.2165 36.0007 25.2165C41.3935 25.2165 45.7835 29.607 45.7835 34.9996C45.7835 40.3923 41.3935 44.7827 36.0007 44.7827C30.608 44.7827 26.218 40.3963 26.218 34.9996Z" fill="white"/>
<path d="M36.5609 35.9181L41.6858 33.028C41.9873 32.8566 42.0892 32.481 41.915 32.1912C41.7367 31.9013 41.3461 31.8034 41.0446 31.9708L36.404 34.5874L32.1413 29.2399C31.929 28.9705 31.53 28.9216 31.2495 29.1257C30.9694 29.3299 30.9184 29.7177 31.1308 29.9831L35.7332 35.7591C35.8564 35.9143 36.0474 36 36.2384 36C36.3486 36 36.4588 35.9755 36.5609 35.9183V35.9181Z" fill="white"/>
<path d="M52.8636 30.8851H52.692C52.1404 30.8851 51.6418 31.0954 51.2615 31.4286C49.484 24.8636 43.3176 20 36.0026 20C28.6877 20 22.5214 24.8633 20.7474 31.4286C20.3674 31.0954 19.8688 30.8851 19.3169 30.8851H19.1414C17.9603 30.8851 17 31.8173 17 32.9637V37.6524C17 38.7988 17.9603 39.731 19.1414 39.731H19.313C20.494 39.731 21.4543 38.7988 21.4543 37.6524V35.3079C21.4543 27.521 27.9807 21.1904 35.9981 21.1904C44.0157 21.1904 50.5418 27.5255 50.5418 35.3079C50.5418 41.6587 46.2224 47.1728 39.9781 48.8899C39.6266 48.3783 39.026 48.0448 38.3475 48.0448L35.7157 48.0454C34.6327 48.0454 33.7542 48.8982 33.7542 49.9494V50.096C33.7542 51.1472 34.6327 52 35.7157 52H38.3516C39.4345 52 40.313 51.1472 40.313 50.096V50.0365C45.7727 48.5371 49.8756 44.3642 51.2606 39.1909C51.6406 39.5241 52.1391 39.7305 52.6867 39.7305H52.8584C54.0394 39.7305 54.9997 38.7983 54.9997 37.6519L55 32.9673C55.004 31.8206 54.0437 30.8846 52.8627 30.8846L52.8636 30.8851ZM20.2324 37.6524C20.2324 38.1444 19.8197 38.5409 19.3171 38.5409L19.1415 38.5412C18.6347 38.5412 18.2262 38.1405 18.2262 37.6527L18.2259 32.9678C18.2259 32.4759 18.6387 32.0794 19.1413 32.0794H19.3129C19.8197 32.0794 20.2282 32.48 20.2282 32.9678L20.2285 37.6524L20.2324 37.6524ZM39.0919 50.0961C39.0919 50.4887 38.7609 50.81 38.3565 50.81L35.7163 50.8102C35.3118 50.8102 34.9808 50.489 34.9808 50.0964V49.9497C34.9808 49.5571 35.3118 49.2358 35.7163 49.2358H38.3522C38.6506 49.2358 38.912 49.4104 39.0263 49.6642C39.0303 49.6918 39.0303 49.7156 39.0386 49.7436C39.0468 49.7754 39.0671 49.8031 39.0793 49.8307C39.0876 49.8703 39.0916 49.9101 39.0916 49.9497L39.0919 50.0961ZM53.7794 37.6524C53.7794 38.1444 53.3666 38.5409 52.8641 38.5409H52.6925C52.1857 38.5409 51.7772 38.1402 51.7772 37.6524L51.7769 32.9679C51.7769 32.4759 52.1896 32.0794 52.6922 32.0794H52.8638C53.3706 32.0794 53.7791 32.48 53.7791 32.9679L53.7794 37.6524Z" fill="white"/>
</svg>
