<svg width="24" height="23" viewBox="0 0 24 23" fill="none" xmlns="http://www.w3.org/2000/svg">
<path d="M11.0114 1.48406L2.88975 1.76473C2.68111 1.77152 2.51356 1.93907 2.50676 2.14771L2.2261 10.2694C2.22227 10.3727 2.25899 10.4734 2.32843 10.55L13.5315 22.8699C13.6833 23.0374 13.9443 23.0441 14.1045 22.8846L23.6265 13.3625C23.7861 13.2023 23.7794 12.9413 23.6118 12.7895L11.2891 1.58639C11.2132 1.51767 11.1137 1.481 11.0114 1.48406ZM10.8769 2.2822L22.7728 13.0964L13.8385 22.0279L3.02423 10.1349L3.28735 2.54532L10.8769 2.2822Z" fill="white"/>
<path d="M7.13813 4.45166C6.63908 4.45166 6.13988 4.63285 5.76137 4.99819C5.00435 5.72888 5.00435 6.92525 5.76137 7.65594C6.51839 8.38663 7.75787 8.38663 8.51489 7.65594C9.2719 6.92525 9.2719 5.72888 8.51489 4.99819C8.13638 4.63285 7.63718 4.45166 7.13813 4.45166ZM6.31322 5.53085C6.77265 5.0874 7.50648 5.0874 7.96591 5.53085C8.42534 5.9743 8.42534 6.68261 7.96591 7.12606C7.50648 7.56951 6.77265 7.56951 6.31322 7.12606C5.85379 6.68261 5.85379 5.9743 6.31322 5.53085ZM11.8116 9.40373C11.7106 9.40673 11.6148 9.44752 11.5443 9.51748L10.9925 10.0474C10.9925 10.0474 10.7952 10.2329 10.6936 10.5273C10.5919 10.8217 10.6254 11.2882 10.9925 11.6426C11.3596 11.9969 11.8429 12.032 12.1479 11.9339C12.4529 11.8357 12.6452 11.6426 12.6452 11.6426C12.6452 11.6426 12.7298 11.5691 12.8377 11.5344C12.9457 11.4996 13.0135 11.4654 13.197 11.6426C13.3806 11.8197 13.3451 11.8851 13.3091 11.9894C13.2731 12.0936 13.197 12.1752 13.197 12.1752L12.6452 12.7051C12.2773 13.0602 12.8291 13.5929 13.197 13.2378L13.746 12.7051C13.746 12.7051 13.9461 12.5223 14.0478 12.2279C14.1495 11.9336 14.1131 11.467 13.746 11.1127C13.3789 10.7584 12.8955 10.7233 12.5906 10.8214C12.2856 10.9195 12.0962 11.1127 12.0962 11.1127C12.0962 11.1127 12.0116 11.1861 11.9036 11.2209C11.7956 11.2556 11.7279 11.2898 11.5443 11.1127C11.3608 10.9355 11.3962 10.8701 11.4322 10.7659C11.4682 10.6617 11.5443 10.58 11.5443 10.58L12.0962 10.0474C12.3486 9.80772 12.1655 9.39368 11.8116 9.40373Z" fill="white"/>
<path d="M9.61496 8.70636C8.08354 10.2014 8.08354 12.6382 9.61496 14.1332C11.1464 15.6282 13.6426 15.6282 15.174 14.1332C16.7054 12.6382 16.7054 10.2014 15.174 8.70636C13.6426 7.21136 11.1464 7.21136 9.61496 8.70636ZM10.1709 9.24905C11.4019 8.04726 13.387 8.04726 14.6181 9.24905C15.8492 10.4508 15.8492 12.3887 14.6181 13.5905C13.387 14.7923 11.4019 14.7923 10.1709 13.5905C8.9398 12.3887 8.9398 10.4508 10.1709 9.24905ZM0.612443 16.4993C0.411027 16.5115 0.251794 16.6706 0.244017 16.8674L0.000333445 21.8574C-0.00879823 22.076 0.170801 22.2578 0.394868 22.2567L13.7779 22.2581V21.4908L0.806809 21.4921L1.03019 16.9043C1.04378 16.6742 0.848018 16.4844 0.612443 16.4993ZM0.69077 15.3523C0.166657 15.3523 0.166657 16.1198 0.69077 16.1198C1.21488 16.1198 1.21488 15.3523 0.69077 15.3523ZM2.59382 3.95071L0.911245 5.47999C0.83595 5.54845 0.791163 5.64301 0.786502 5.74336L0.357156 14.5679C0.33191 15.0796 1.11808 15.1164 1.14332 14.6047L1.56397 5.93594L3.13051 4.51144L2.59382 3.95071ZM7.09036 6.91504e-05C6.87324 0.00391282 6.70045 0.178927 6.70453 0.390885V6.1455C6.70453 6.65715 7.4907 6.65715 7.4907 6.1455V0.390885C7.49488 0.173374 7.31317 -0.00401532 7.09036 6.91504e-05Z" fill="white"/>
</svg>
