<svg width="22" height="22" viewBox="0 0 22 22" fill="none" xmlns="http://www.w3.org/2000/svg">
<circle cx="11" cy="11" r="11" fill="#0078BB"/>
<path d="M16.8133 7.19C16.7546 7.12979 16.6848 7.08201 16.6079 7.0494C16.5309 7.01679 16.4484 7 16.3651 7C16.2818 7 16.1992 7.01679 16.1223 7.0494C16.0454 7.08201 15.9756 7.12979 15.9169 7.19L8.79008 14.4483L6.08202 11.6863C5.96315 11.5653 5.80194 11.4974 5.63383 11.4974C5.46573 11.4974 5.30451 11.5653 5.18565 11.6863C5.06678 11.8072 5 11.9713 5 12.1423C5 12.3134 5.06678 12.4774 5.18565 12.5984L8.3419 15.81C8.40058 15.8702 8.4704 15.918 8.54732 15.9506C8.62424 15.9832 8.70675 16 8.79008 16C8.87342 16 8.95593 15.9832 9.03285 15.9506C9.10977 15.918 9.17959 15.8702 9.23827 15.81L16.8133 8.1021C16.8724 8.04239 16.9194 7.97135 16.9515 7.89307C16.9835 7.8148 17 7.73084 17 7.64605C17 7.56125 16.9835 7.4773 16.9515 7.39903C16.9194 7.32075 16.8724 7.24971 16.8133 7.19Z" fill="white"/>
</svg>
