<svg width="34" height="34" viewBox="0 0 34 34" fill="none" xmlns="http://www.w3.org/2000/svg">
<circle cx="17" cy="17" r="17" fill="#006FAC"/>
<path d="M27 11.7971C26.2859 12.0975 25.5308 12.2961 24.758 12.3867C25.5733 11.9144 26.1842 11.1713 26.4775 10.2954C25.7114 10.7377 24.8727 11.0493 23.998 11.2167C23.4133 10.6018 22.6347 10.1925 21.7843 10.0529C20.9339 9.9134 20.0598 10.0516 19.2991 10.4457C18.5384 10.8399 17.9341 11.4678 17.581 12.2309C17.2279 12.994 17.1459 13.8492 17.348 14.6624C15.799 14.5864 14.2837 14.1952 12.9007 13.5143C11.5177 12.8334 10.2979 11.8779 9.3205 10.71C8.97768 11.2905 8.79754 11.948 8.798 12.6171C8.79678 13.2384 8.95401 13.8503 9.25567 14.3985C9.55733 14.9466 9.99407 15.4139 10.527 15.7587C9.90758 15.7424 9.30139 15.5812 8.76 15.2889V15.3349C8.76464 16.2055 9.07919 17.0477 9.65045 17.7192C10.2217 18.3907 11.0146 18.8503 11.895 19.0201C11.5561 19.1202 11.2042 19.1729 10.85 19.1768C10.6048 19.174 10.3602 19.1524 10.1185 19.1123C10.3692 19.8611 10.8544 20.5156 11.5065 20.9845C12.1587 21.4535 12.9453 21.7136 13.757 21.7288C12.3863 22.7747 10.6941 23.3455 8.95 23.3503C8.63245 23.3513 8.31515 23.3328 8 23.295C9.78071 24.41 11.8559 25.0019 13.9755 24.9994C15.4382 25.0142 16.8893 24.7461 18.244 24.2109C19.5986 23.6756 20.8298 22.884 21.8654 21.8822C22.9011 20.8804 23.7206 19.6885 24.2759 18.3761C24.8313 17.0637 25.1114 15.6571 25.1 14.2386C25.1 14.0819 25.1 13.9161 25.1 13.7503C25.8455 13.2111 26.4884 12.5502 27 11.7971Z" fill="black"/>
</svg>
