<svg width="34" height="34" viewBox="0 0 34 34" fill="none" xmlns="http://www.w3.org/2000/svg">
<path d="M34 17C34 26.3888 26.3888 34 17 34C7.61116 34 0 26.3888 0 17C0 7.61116 7.61116 0 17 0C26.3888 0 34 7.61116 34 17Z" fill="#006FAC"/>
<path d="M26 11.7971C25.2859 12.0975 24.5308 12.2961 23.758 12.3867C24.5733 11.9144 25.1842 11.1713 25.4775 10.2954C24.7114 10.7377 23.8727 11.0493 22.998 11.2167C22.4133 10.6018 21.6347 10.1925 20.7843 10.0529C19.9339 9.9134 19.0598 10.0516 18.2991 10.4457C17.5384 10.8399 16.9341 11.4678 16.581 12.2309C16.2279 12.994 16.1459 13.8492 16.348 14.6624C14.799 14.5864 13.2837 14.1952 11.9007 13.5143C10.5177 12.8334 9.2979 11.8779 8.3205 10.71C7.97768 11.2905 7.79754 11.948 7.798 12.6171C7.79678 13.2384 7.95401 13.8503 8.25567 14.3985C8.55733 14.9466 8.99407 15.4139 9.527 15.7587C8.90758 15.7424 8.30139 15.5812 7.76 15.2889V15.3349C7.76464 16.2055 8.07919 17.0477 8.65045 17.7192C9.2217 18.3907 10.0146 18.8503 10.895 19.0201C10.5561 19.1202 10.2042 19.1729 9.85 19.1768C9.6048 19.174 9.3602 19.1524 9.1185 19.1123C9.36921 19.8611 9.85439 20.5156 10.5065 20.9845C11.1587 21.4535 11.9453 21.7136 12.757 21.7288C11.3863 22.7747 9.69409 23.3455 7.95 23.3503C7.63245 23.3513 7.31515 23.3328 7 23.295C8.78071 24.41 10.8559 25.0019 12.9755 24.9994C14.4382 25.0142 15.8893 24.7461 17.244 24.2109C18.5986 23.6756 19.8298 22.884 20.8654 21.8822C21.9011 20.8804 22.7206 19.6885 23.2759 18.3761C23.8313 17.0637 24.1114 15.6571 24.1 14.2386C24.1 14.0819 24.1 13.9161 24.1 13.7503C24.8455 13.2111 25.4884 12.5502 26 11.7971Z" fill="white"/>
</svg>
