<svg width="13" height="12" viewBox="0 0 13 12" fill="none" xmlns="http://www.w3.org/2000/svg">
<g clip-path="url(#clip0_23_1480)">
<path d="M5.62322 8.95604C3.40676 8.95604 1.60352 7.1528 1.60352 4.93633C1.60352 2.71987 3.40676 0.916626 5.62322 0.916626C7.83969 0.916626 9.64293 2.71987 9.64293 4.93633C9.64293 7.1528 7.83969 8.95604 5.62322 8.95604ZM5.62322 1.72057C3.85013 1.72057 2.40746 3.16324 2.40746 4.93633C2.40746 6.70942 3.85013 8.15209 5.62322 8.15209C7.39631 8.15209 8.83898 6.70942 8.83898 4.93633C8.83898 3.16324 7.39671 1.72057 5.62322 1.72057Z" fill="white"/>
<path d="M11.3682 11.0833C11.3154 11.0833 11.2631 11.073 11.2144 11.0528C11.1656 11.0325 11.1213 11.0029 11.084 10.9655L7.99125 7.87275C7.95393 7.83543 7.92433 7.79112 7.90413 7.74236C7.88393 7.6936 7.87354 7.64134 7.87354 7.58856C7.87354 7.53578 7.88393 7.48351 7.90413 7.43475C7.92433 7.38599 7.95393 7.34168 7.99125 7.30436C8.02857 7.26704 8.07288 7.23744 8.12164 7.21724C8.1704 7.19704 8.22267 7.18665 8.27545 7.18665C8.32822 7.18665 8.38049 7.19704 8.42925 7.21724C8.47801 7.23744 8.52232 7.26704 8.55964 7.30436L11.6524 10.3971C11.7088 10.4533 11.7472 10.5249 11.7629 10.6029C11.7785 10.681 11.7705 10.7619 11.7401 10.8354C11.7096 10.9089 11.658 10.9717 11.5918 11.0159C11.5256 11.06 11.4478 11.0835 11.3682 11.0833Z" fill="white"/>
</g>
<defs>
<clipPath id="clip0_23_1480">
<rect width="11.6571" height="11.6571" fill="white" transform="translate(0.858398 0.171387)"/>
</clipPath>
</defs>
</svg>
