<svg width="34" height="34" viewBox="0 0 34 34" fill="none" xmlns="http://www.w3.org/2000/svg">
<circle cx="17" cy="17" r="17" fill="#006FAC"/>
<path d="M24.9961 15.21C25.0343 14.1047 24.7925 13.0076 24.2933 12.0207C23.9546 11.6157 23.4846 11.3424 22.9651 11.2484C20.8164 11.0534 18.6587 10.9735 16.5014 11.009C14.352 10.9719 12.2022 11.0493 10.061 11.2407C9.63764 11.3177 9.24588 11.5163 8.9335 11.8122C8.23848 12.4531 8.16126 13.5497 8.08403 14.4764C7.97199 16.1425 7.97199 17.8143 8.08403 19.4805C8.10637 20.0021 8.18403 20.5198 8.3157 21.025C8.40882 21.415 8.5972 21.7759 8.86399 22.0752C9.1785 22.3868 9.57939 22.5966 10.0146 22.6776C11.6795 22.8831 13.3571 22.9682 15.0342 22.9324C17.737 22.971 20.1078 22.9324 22.911 22.7162C23.357 22.6402 23.7691 22.4301 24.0926 22.1138C24.3088 21.8975 24.4703 21.6328 24.5636 21.3416C24.8398 20.4941 24.9755 19.6072 24.9652 18.716C24.9961 18.2835 24.9961 15.6734 24.9961 15.21ZM14.7562 19.1793V14.3992L19.3278 16.8008C18.0459 17.5113 16.3547 18.3144 14.7562 19.1793Z" fill="white"/>
</svg>
